<svg class="fig scene" xmlns="http://www.w3.org/2000/svg" viewBox="0 0 640 540" role="img" aria-label="Molecule with descriptor constructions">
<defs><radialGradient id="sgglossyC98A4B" cx="34%" cy="30%" r="70%"><stop offset="0" stop-color="#FFFFFF"/><stop offset="0.13" stop-color="#e9d0b7"/><stop offset="0.5" stop-color="#C98A4B"/><stop offset="1" stop-color="#5a3e22"/></radialGradient><radialGradient id="sgglossy36C24A" cx="34%" cy="30%" r="70%"><stop offset="0" stop-color="#FFFFFF"/><stop offset="0.13" stop-color="#afe7b7"/><stop offset="0.5" stop-color="#36C24A"/><stop offset="1" stop-color="#185721"/></radialGradient><radialGradient id="sgglossy4F5BEA" cx="34%" cy="30%" r="70%"><stop offset="0" stop-color="#FFFFFF"/><stop offset="0.13" stop-color="#b9bdf7"/><stop offset="0.5" stop-color="#4F5BEA"/><stop offset="1" stop-color="#242969"/></radialGradient><radialGradient id="sgglossyBFC3C8" cx="34%" cy="30%" r="70%"><stop offset="0" stop-color="#FFFFFF"/><stop offset="0.13" stop-color="#e5e7e9"/><stop offset="0.5" stop-color="#BFC3C8"/><stop offset="1" stop-color="#56585a"/></radialGradient><radialGradient id="sgglossyE3241B" cx="34%" cy="30%" r="70%"><stop offset="0" stop-color="#FFFFFF"/><stop offset="0.13" stop-color="#f4a7a4"/><stop offset="0.5" stop-color="#E3241B"/><stop offset="1" stop-color="#66100c"/></radialGradient><radialGradient id="sgglossyF7F7F7" cx="34%" cy="30%" r="70%"><stop offset="0" stop-color="#FFFFFF"/><stop offset="0.13" stop-color="#fcfcfc"/><stop offset="0.5" stop-color="#F7F7F7"/><stop offset="1" stop-color="#6f6f6f"/></radialGradient><marker id="mk1596A6" viewBox="0 0 10 10" refX="8.5" refY="5" markerWidth="5.2" markerHeight="5.2" orient="auto"><path d="M0,0 L10,5 L0,10 z" fill="#1596A6"/></marker><marker id="mkC9352B" viewBox="0 0 10 10" refX="8.5" refY="5" markerWidth="5.2" markerHeight="5.2" orient="auto"><path d="M0,0 L10,5 L0,10 z" fill="#C9352B"/></marker><marker id="mk6C4AB6" viewBox="0 0 10 10" refX="8.5" refY="5" markerWidth="5.2" markerHeight="5.2" orient="auto"><path d="M0,0 L10,5 L0,10 z" fill="#6C4AB6"/></marker></defs>
<g>
<circle class="ball" cx="214.2" cy="301.1" r="5.4" fill="url(#sgglossyF7F7F7)" style="stroke:#3B424C;stroke-width:1.3px"/>
<g class="bond"><line x1="216.9" y1="294.5" x2="214.2" y2="301.1" style="stroke:#3B424C;stroke-width:6.4px;stroke-linecap:round"/><line x1="216.9" y1="294.5" x2="214.2" y2="301.1" style="stroke:#1D2025;stroke-width:3.9px;stroke-linecap:round"/></g>
<circle class="ball" cx="242.3" cy="224.8" r="5.4" fill="url(#sgglossyF7F7F7)" style="stroke:#3B424C;stroke-width:1.3px"/>
<circle class="ball" cx="531.6" cy="195.0" r="5.4" fill="url(#sgglossyF7F7F7)" style="stroke:#3B424C;stroke-width:1.3px"/>
<g class="bond"><line x1="236.1" y1="247.0" x2="242.3" y2="224.8" style="stroke:#3B424C;stroke-width:6.4px;stroke-linecap:round"/><line x1="236.1" y1="247.0" x2="242.3" y2="224.8" style="stroke:#1D2025;stroke-width:3.9px;stroke-linecap:round"/></g>
<circle class="ball" cx="216.9" cy="294.5" r="7.8" fill="url(#sgglossyBFC3C8)" style="stroke:#3B424C;stroke-width:1.3px"/>
<circle class="ball" cx="143.5" cy="302.4" r="5.4" fill="url(#sgglossyF7F7F7)" style="stroke:#3B424C;stroke-width:1.3px"/>
<g class="bond"><line x1="505.3" y1="204.3" x2="531.6" y2="195.0" style="stroke:#3B424C;stroke-width:6.4px;stroke-linecap:round"/><line x1="505.3" y1="204.3" x2="531.6" y2="195.0" style="stroke:#1D2025;stroke-width:3.9px;stroke-linecap:round"/></g>
<circle class="ball" cx="468.2" cy="142.9" r="5.4" fill="url(#sgglossyF7F7F7)" style="stroke:#3B424C;stroke-width:1.3px"/>
<g class="bond"><line x1="216.9" y1="294.5" x2="236.1" y2="247.0" style="stroke:#3B424C;stroke-width:6.4px;stroke-linecap:round"/><line x1="216.9" y1="294.5" x2="236.1" y2="247.0" style="stroke:#1D2025;stroke-width:3.9px;stroke-linecap:round"/></g>
<circle class="ball" cx="314.7" cy="379.2" r="5.4" fill="url(#sgglossyF7F7F7)" style="stroke:#3B424C;stroke-width:1.3px"/>
<g class="bond"><line x1="250.0" y1="324.9" x2="216.9" y2="294.5" style="stroke:#3B424C;stroke-width:6.4px;stroke-linecap:round"/><line x1="250.0" y1="324.9" x2="216.9" y2="294.5" style="stroke:#1D2025;stroke-width:3.9px;stroke-linecap:round"/></g>
<g class="bond"><line x1="469.5" y1="174.9" x2="468.2" y2="142.9" style="stroke:#3B424C;stroke-width:6.4px;stroke-linecap:round"/><line x1="469.5" y1="174.9" x2="468.2" y2="142.9" style="stroke:#1D2025;stroke-width:3.9px;stroke-linecap:round"/></g>
<circle class="ball" cx="236.1" cy="247.0" r="7.8" fill="url(#sgglossyBFC3C8)" style="stroke:#3B424C;stroke-width:1.3px"/>
<g class="bond"><line x1="216.9" y1="294.5" x2="171.2" y2="299.4" style="stroke:#3B424C;stroke-width:6.4px;stroke-linecap:round"/><line x1="216.9" y1="294.5" x2="171.2" y2="299.4" style="stroke:#1D2025;stroke-width:3.9px;stroke-linecap:round"/></g>
<g class="bond"><line x1="171.2" y1="299.4" x2="143.5" y2="302.4" style="stroke:#3B424C;stroke-width:6.4px;stroke-linecap:round"/><line x1="171.2" y1="299.4" x2="143.5" y2="302.4" style="stroke:#1D2025;stroke-width:3.9px;stroke-linecap:round"/></g>
<circle class="ball" cx="505.3" cy="204.3" r="7.8" fill="url(#sgglossyBFC3C8)" style="stroke:#3B424C;stroke-width:1.3px"/>
<g class="bond"><line x1="469.5" y1="174.9" x2="505.3" y2="204.3" style="stroke:#3B424C;stroke-width:6.4px;stroke-linecap:round"/><line x1="469.5" y1="174.9" x2="505.3" y2="204.3" style="stroke:#1D2025;stroke-width:3.9px;stroke-linecap:round"/></g>
<circle class="ball" cx="250.0" cy="324.9" r="7.3" fill="url(#sgglossyE3241B)" style="stroke:#3B424C;stroke-width:1.3px"/>
<circle class="ball" cx="469.5" cy="174.9" r="7.8" fill="url(#sgglossyBFC3C8)" style="stroke:#3B424C;stroke-width:1.3px"/>
<g class="bond"><line x1="332.6" y1="370.4" x2="314.7" y2="379.2" style="stroke:#3B424C;stroke-width:6.4px;stroke-linecap:round"/><line x1="332.6" y1="370.4" x2="314.7" y2="379.2" style="stroke:#1D2025;stroke-width:3.9px;stroke-linecap:round"/></g>
<g class="bond"><line x1="278.6" y1="257.1" x2="236.1" y2="247.0" style="stroke:#3B424C;stroke-width:6.4px;stroke-linecap:round"/><line x1="278.6" y1="257.1" x2="236.1" y2="247.0" style="stroke:#1D2025;stroke-width:3.9px;stroke-linecap:round"/></g>
<g class="bond"><line x1="505.3" y1="204.3" x2="507.6" y2="245.6" style="stroke:#3B424C;stroke-width:6.4px;stroke-linecap:round"/><line x1="505.3" y1="204.3" x2="507.6" y2="245.6" style="stroke:#1D2025;stroke-width:3.9px;stroke-linecap:round"/></g>
<circle class="ball" cx="171.2" cy="299.4" r="7.8" fill="url(#sgglossyBFC3C8)" style="stroke:#3B424C;stroke-width:1.3px"/>
<g class="bond"><line x1="283.0" y1="299.9" x2="250.0" y2="324.9" style="stroke:#3B424C;stroke-width:6.4px;stroke-linecap:round"/><line x1="283.0" y1="299.9" x2="250.0" y2="324.9" style="stroke:#1D2025;stroke-width:3.9px;stroke-linecap:round"/></g>
<g class="bond"><line x1="236.1" y1="247.0" x2="202.3" y2="227.2" style="stroke:#3B424C;stroke-width:6.4px;stroke-linecap:round"/><line x1="236.1" y1="247.0" x2="202.3" y2="227.2" style="stroke:#1D2025;stroke-width:3.9px;stroke-linecap:round"/></g>
<circle class="ball" cx="535.4" cy="268.5" r="5.4" fill="url(#sgglossyF7F7F7)" style="stroke:#3B424C;stroke-width:1.3px"/>
<g class="bond"><line x1="507.6" y1="245.6" x2="535.4" y2="268.5" style="stroke:#3B424C;stroke-width:6.4px;stroke-linecap:round"/><line x1="507.6" y1="245.6" x2="535.4" y2="268.5" style="stroke:#1D2025;stroke-width:3.9px;stroke-linecap:round"/></g>
<circle class="ball" cx="278.6" cy="257.1" r="7.5" fill="url(#sgglossy4F5BEA)" style="stroke:#3B424C;stroke-width:1.3px"/>
<circle class="ball" cx="507.6" cy="245.6" r="7.8" fill="url(#sgglossyBFC3C8)" style="stroke:#3B424C;stroke-width:1.3px"/>
<g class="bond"><line x1="171.2" y1="299.4" x2="171.1" y2="329.7" style="stroke:#3B424C;stroke-width:6.4px;stroke-linecap:round"/><line x1="171.2" y1="299.4" x2="171.1" y2="329.7" style="stroke:#1D2025;stroke-width:3.9px;stroke-linecap:round"/></g>
<g class="bond"><line x1="435.3" y1="186.0" x2="469.5" y2="174.9" style="stroke:#3B424C;stroke-width:6.4px;stroke-linecap:round"/><line x1="435.3" y1="186.0" x2="469.5" y2="174.9" style="stroke:#1D2025;stroke-width:3.9px;stroke-linecap:round"/></g>
<g class="bond"><line x1="278.6" y1="257.1" x2="283.0" y2="299.9" style="stroke:#3B424C;stroke-width:6.4px;stroke-linecap:round"/><line x1="278.6" y1="257.1" x2="283.0" y2="299.9" style="stroke:#1D2025;stroke-width:3.9px;stroke-linecap:round"/></g>
<circle class="ball" cx="332.6" cy="370.4" r="7.8" fill="url(#sgglossyBFC3C8)" style="stroke:#3B424C;stroke-width:1.3px"/>
<g class="bond"><line x1="332.6" y1="370.4" x2="368.0" y2="379.2" style="stroke:#3B424C;stroke-width:6.4px;stroke-linecap:round"/><line x1="332.6" y1="370.4" x2="368.0" y2="379.2" style="stroke:#1D2025;stroke-width:3.9px;stroke-linecap:round"/></g>
<circle class="ball" cx="368.0" cy="379.2" r="5.4" fill="url(#sgglossyF7F7F7)" style="stroke:#3B424C;stroke-width:1.3px"/>
<circle class="ball" cx="283.0" cy="299.9" r="7.8" fill="url(#sgglossyBFC3C8)" style="stroke:#3B424C;stroke-width:1.3px"/>
<g class="bond"><line x1="166.7" y1="257.0" x2="171.2" y2="299.4" style="stroke:#3B424C;stroke-width:6.4px;stroke-linecap:round"/><line x1="166.7" y1="257.0" x2="171.2" y2="299.4" style="stroke:#1D2025;stroke-width:3.9px;stroke-linecap:round"/></g>
<circle class="ball" cx="202.3" cy="227.2" r="7.8" fill="url(#sgglossyBFC3C8)" style="stroke:#3B424C;stroke-width:1.3px"/>
<circle class="ball" cx="171.1" cy="329.7" r="5.4" fill="url(#sgglossyF7F7F7)" style="stroke:#3B424C;stroke-width:1.3px"/>
<g class="bond"><line x1="320.1" y1="209.4" x2="278.6" y2="257.1" style="stroke:#3B424C;stroke-width:6.4px;stroke-linecap:round" stroke-dasharray="3.5 2.9"/><line x1="320.1" y1="209.4" x2="278.6" y2="257.1" style="stroke:#1D2025;stroke-width:3.9px;stroke-linecap:round" stroke-dasharray="3.5 2.9"/></g>
<g class="bond"><line x1="320.1" y1="325.2" x2="332.6" y2="370.4" style="stroke:#3B424C;stroke-width:6.4px;stroke-linecap:round"/><line x1="320.1" y1="325.2" x2="332.6" y2="370.4" style="stroke:#1D2025;stroke-width:3.9px;stroke-linecap:round"/></g>
<g class="bond"><line x1="283.0" y1="299.9" x2="320.1" y2="325.2" style="stroke:#3B424C;stroke-width:6.4px;stroke-linecap:round"/><line x1="283.0" y1="299.9" x2="320.1" y2="325.2" style="stroke:#1D2025;stroke-width:3.9px;stroke-linecap:round"/></g>
<g class="bond"><line x1="202.3" y1="227.2" x2="166.7" y2="257.0" style="stroke:#3B424C;stroke-width:6.4px;stroke-linecap:round"/><line x1="202.3" y1="227.2" x2="166.7" y2="257.0" style="stroke:#1D2025;stroke-width:3.9px;stroke-linecap:round"/></g>
<g class="bond"><line x1="473.5" y1="256.9" x2="507.6" y2="245.6" style="stroke:#3B424C;stroke-width:6.4px;stroke-linecap:round"/><line x1="473.5" y1="256.9" x2="507.6" y2="245.6" style="stroke:#1D2025;stroke-width:3.9px;stroke-linecap:round"/></g>
<circle class="ball" cx="435.3" cy="186.0" r="7.8" fill="url(#sgglossyBFC3C8)" style="stroke:#3B424C;stroke-width:1.3px"/>
<circle class="ball" cx="166.7" cy="257.0" r="7.8" fill="url(#sgglossyBFC3C8)" style="stroke:#3B424C;stroke-width:1.3px"/>
<g class="bond"><line x1="435.3" y1="186.0" x2="407.1" y2="163.4" style="stroke:#3B424C;stroke-width:6.4px;stroke-linecap:round"/><line x1="435.3" y1="186.0" x2="407.1" y2="163.4" style="stroke:#1D2025;stroke-width:3.9px;stroke-linecap:round"/></g>
<g class="bond"><line x1="202.3" y1="227.2" x2="204.9" y2="186.1" style="stroke:#3B424C;stroke-width:6.4px;stroke-linecap:round"/><line x1="202.3" y1="227.2" x2="204.9" y2="186.1" style="stroke:#1D2025;stroke-width:3.9px;stroke-linecap:round"/></g>
<circle class="ball" cx="407.1" cy="163.4" r="5.4" fill="url(#sgglossyF7F7F7)" style="stroke:#3B424C;stroke-width:1.3px"/>
<g class="bond"><line x1="332.6" y1="370.4" x2="307.6" y2="370.4" style="stroke:#3B424C;stroke-width:6.4px;stroke-linecap:round"/><line x1="332.6" y1="370.4" x2="307.6" y2="370.4" style="stroke:#1D2025;stroke-width:3.9px;stroke-linecap:round"/></g>
<circle class="ball" cx="320.1" cy="325.2" r="7.8" fill="url(#sgglossyBFC3C8)" style="stroke:#3B424C;stroke-width:1.3px"/>
<g class="bond"><line x1="320.1" y1="209.4" x2="320.1" y2="136.8" style="stroke:#3B424C;stroke-width:6.4px;stroke-linecap:round" stroke-dasharray="3.5 2.9"/><line x1="320.1" y1="209.4" x2="320.1" y2="136.8" style="stroke:#1D2025;stroke-width:3.9px;stroke-linecap:round" stroke-dasharray="3.5 2.9"/></g>
<circle class="ball" cx="320.1" cy="136.8" r="9.2" fill="url(#sgglossy36C24A)" style="stroke:#3B424C;stroke-width:1.3px"/>
<circle class="ball" cx="320.1" cy="209.4" r="10.9" fill="url(#sgglossyC98A4B)" style="stroke:#3B424C;stroke-width:1.3px"/>
<circle class="ball" cx="233.0" cy="163.5" r="5.4" fill="url(#sgglossyF7F7F7)" style="stroke:#3B424C;stroke-width:1.3px"/>
<g class="bond"><line x1="437.8" y1="227.2" x2="435.3" y2="186.0" style="stroke:#3B424C;stroke-width:6.4px;stroke-linecap:round"/><line x1="437.8" y1="227.2" x2="435.3" y2="186.0" style="stroke:#1D2025;stroke-width:3.9px;stroke-linecap:round"/></g>
<g class="bond"><line x1="204.9" y1="186.1" x2="233.0" y2="163.5" style="stroke:#3B424C;stroke-width:6.4px;stroke-linecap:round"/><line x1="204.9" y1="186.1" x2="233.0" y2="163.5" style="stroke:#1D2025;stroke-width:3.9px;stroke-linecap:round"/></g>
<circle class="ball" cx="473.5" cy="256.9" r="7.8" fill="url(#sgglossyBFC3C8)" style="stroke:#3B424C;stroke-width:1.3px"/>
<circle class="ball" cx="204.9" cy="186.1" r="7.8" fill="url(#sgglossyBFC3C8)" style="stroke:#3B424C;stroke-width:1.3px"/>
<g class="bond"><line x1="166.7" y1="257.0" x2="132.6" y2="245.6" style="stroke:#3B424C;stroke-width:6.4px;stroke-linecap:round"/><line x1="166.7" y1="257.0" x2="132.6" y2="245.6" style="stroke:#1D2025;stroke-width:3.9px;stroke-linecap:round"/></g>
<g class="bond"><line x1="473.5" y1="256.9" x2="437.8" y2="227.2" style="stroke:#3B424C;stroke-width:6.4px;stroke-linecap:round"/><line x1="473.5" y1="256.9" x2="437.8" y2="227.2" style="stroke:#1D2025;stroke-width:3.9px;stroke-linecap:round"/></g>
<g class="bond"><line x1="320.1" y1="325.2" x2="357.2" y2="299.9" style="stroke:#3B424C;stroke-width:6.4px;stroke-linecap:round"/><line x1="320.1" y1="325.2" x2="357.2" y2="299.9" style="stroke:#1D2025;stroke-width:3.9px;stroke-linecap:round"/></g>
<g class="bond"><line x1="320.1" y1="325.2" x2="307.6" y2="370.4" style="stroke:#3B424C;stroke-width:6.4px;stroke-linecap:round"/><line x1="320.1" y1="325.2" x2="307.6" y2="370.4" style="stroke:#1D2025;stroke-width:3.9px;stroke-linecap:round"/></g>
<g class="bond"><line x1="320.1" y1="209.4" x2="361.6" y2="257.1" style="stroke:#3B424C;stroke-width:6.4px;stroke-linecap:round" stroke-dasharray="3.5 2.9"/><line x1="320.1" y1="209.4" x2="361.6" y2="257.1" style="stroke:#1D2025;stroke-width:3.9px;stroke-linecap:round" stroke-dasharray="3.5 2.9"/></g>
<circle class="ball" cx="469.1" cy="329.7" r="5.4" fill="url(#sgglossyF7F7F7)" style="stroke:#3B424C;stroke-width:1.3px"/>
<circle class="ball" cx="437.8" cy="227.2" r="7.8" fill="url(#sgglossyBFC3C8)" style="stroke:#3B424C;stroke-width:1.3px"/>
<g class="bond"><line x1="469.1" y1="299.4" x2="473.5" y2="256.9" style="stroke:#3B424C;stroke-width:6.4px;stroke-linecap:round"/><line x1="469.1" y1="299.4" x2="473.5" y2="256.9" style="stroke:#1D2025;stroke-width:3.9px;stroke-linecap:round"/></g>
<circle class="ball" cx="357.2" cy="299.9" r="7.8" fill="url(#sgglossyBFC3C8)" style="stroke:#3B424C;stroke-width:1.3px"/>
<circle class="ball" cx="272.1" cy="379.2" r="5.4" fill="url(#sgglossyF7F7F7)" style="stroke:#3B424C;stroke-width:1.3px"/>
<g class="bond"><line x1="307.6" y1="370.4" x2="272.1" y2="379.2" style="stroke:#3B424C;stroke-width:6.4px;stroke-linecap:round"/><line x1="307.6" y1="370.4" x2="272.1" y2="379.2" style="stroke:#1D2025;stroke-width:3.9px;stroke-linecap:round"/></g>
<circle class="ball" cx="307.6" cy="370.4" r="7.8" fill="url(#sgglossyBFC3C8)" style="stroke:#3B424C;stroke-width:1.3px"/>
<g class="bond"><line x1="361.6" y1="257.1" x2="357.2" y2="299.9" style="stroke:#3B424C;stroke-width:6.4px;stroke-linecap:round"/><line x1="361.6" y1="257.1" x2="357.2" y2="299.9" style="stroke:#1D2025;stroke-width:3.9px;stroke-linecap:round"/></g>
<g class="bond"><line x1="469.1" y1="299.4" x2="469.1" y2="329.7" style="stroke:#3B424C;stroke-width:6.4px;stroke-linecap:round"/><line x1="469.1" y1="299.4" x2="469.1" y2="329.7" style="stroke:#1D2025;stroke-width:3.9px;stroke-linecap:round"/></g>
<g class="bond"><line x1="170.6" y1="175.0" x2="204.9" y2="186.1" style="stroke:#3B424C;stroke-width:6.4px;stroke-linecap:round"/><line x1="170.6" y1="175.0" x2="204.9" y2="186.1" style="stroke:#1D2025;stroke-width:3.9px;stroke-linecap:round"/></g>
<circle class="ball" cx="132.6" cy="245.6" r="7.8" fill="url(#sgglossyBFC3C8)" style="stroke:#3B424C;stroke-width:1.3px"/>
<circle class="ball" cx="361.6" cy="257.1" r="7.5" fill="url(#sgglossy4F5BEA)" style="stroke:#3B424C;stroke-width:1.3px"/>
<g class="bond"><line x1="132.6" y1="245.6" x2="104.7" y2="268.5" style="stroke:#3B424C;stroke-width:6.4px;stroke-linecap:round"/><line x1="132.6" y1="245.6" x2="104.7" y2="268.5" style="stroke:#1D2025;stroke-width:3.9px;stroke-linecap:round"/></g>
<circle class="ball" cx="104.7" cy="268.5" r="5.4" fill="url(#sgglossyF7F7F7)" style="stroke:#3B424C;stroke-width:1.3px"/>
<g class="bond"><line x1="404.2" y1="247.0" x2="437.8" y2="227.2" style="stroke:#3B424C;stroke-width:6.4px;stroke-linecap:round"/><line x1="404.2" y1="247.0" x2="437.8" y2="227.2" style="stroke:#1D2025;stroke-width:3.9px;stroke-linecap:round"/></g>
<g class="bond"><line x1="357.2" y1="299.9" x2="390.2" y2="325.0" style="stroke:#3B424C;stroke-width:6.4px;stroke-linecap:round"/><line x1="357.2" y1="299.9" x2="390.2" y2="325.0" style="stroke:#1D2025;stroke-width:3.9px;stroke-linecap:round"/></g>
<circle class="ball" cx="469.1" cy="299.4" r="7.8" fill="url(#sgglossyBFC3C8)" style="stroke:#3B424C;stroke-width:1.3px"/>
<g class="bond"><line x1="132.6" y1="245.6" x2="134.8" y2="204.4" style="stroke:#3B424C;stroke-width:6.4px;stroke-linecap:round"/><line x1="132.6" y1="245.6" x2="134.8" y2="204.4" style="stroke:#1D2025;stroke-width:3.9px;stroke-linecap:round"/></g>
<g class="bond"><line x1="361.6" y1="257.1" x2="404.2" y2="247.0" style="stroke:#3B424C;stroke-width:6.4px;stroke-linecap:round"/><line x1="361.6" y1="257.1" x2="404.2" y2="247.0" style="stroke:#1D2025;stroke-width:3.9px;stroke-linecap:round"/></g>
<g class="bond"><line x1="307.6" y1="370.4" x2="325.5" y2="379.2" style="stroke:#3B424C;stroke-width:6.4px;stroke-linecap:round"/><line x1="307.6" y1="370.4" x2="325.5" y2="379.2" style="stroke:#1D2025;stroke-width:3.9px;stroke-linecap:round"/></g>
<circle class="ball" cx="170.6" cy="175.0" r="7.8" fill="url(#sgglossyBFC3C8)" style="stroke:#3B424C;stroke-width:1.3px"/>
<circle class="ball" cx="390.2" cy="325.0" r="7.3" fill="url(#sgglossyE3241B)" style="stroke:#3B424C;stroke-width:1.3px"/>
<g class="bond"><line x1="134.8" y1="204.4" x2="170.6" y2="175.0" style="stroke:#3B424C;stroke-width:6.4px;stroke-linecap:round"/><line x1="134.8" y1="204.4" x2="170.6" y2="175.0" style="stroke:#1D2025;stroke-width:3.9px;stroke-linecap:round"/></g>
<circle class="ball" cx="134.8" cy="204.4" r="7.8" fill="url(#sgglossyBFC3C8)" style="stroke:#3B424C;stroke-width:1.3px"/>
<g class="bond"><line x1="469.1" y1="299.4" x2="496.7" y2="302.4" style="stroke:#3B424C;stroke-width:6.4px;stroke-linecap:round"/><line x1="469.1" y1="299.4" x2="496.7" y2="302.4" style="stroke:#1D2025;stroke-width:3.9px;stroke-linecap:round"/></g>
<g class="bond"><line x1="423.4" y1="294.6" x2="469.1" y2="299.4" style="stroke:#3B424C;stroke-width:6.4px;stroke-linecap:round"/><line x1="423.4" y1="294.6" x2="469.1" y2="299.4" style="stroke:#1D2025;stroke-width:3.9px;stroke-linecap:round"/></g>
<circle class="ball" cx="404.2" cy="247.0" r="7.8" fill="url(#sgglossyBFC3C8)" style="stroke:#3B424C;stroke-width:1.3px"/>
<g class="bond"><line x1="170.6" y1="175.0" x2="171.9" y2="143.0" style="stroke:#3B424C;stroke-width:6.4px;stroke-linecap:round"/><line x1="170.6" y1="175.0" x2="171.9" y2="143.0" style="stroke:#1D2025;stroke-width:3.9px;stroke-linecap:round"/></g>
<g class="bond"><line x1="423.4" y1="294.6" x2="390.2" y2="325.0" style="stroke:#3B424C;stroke-width:6.4px;stroke-linecap:round"/><line x1="423.4" y1="294.6" x2="390.2" y2="325.0" style="stroke:#1D2025;stroke-width:3.9px;stroke-linecap:round"/></g>
<circle class="ball" cx="325.5" cy="379.2" r="5.4" fill="url(#sgglossyF7F7F7)" style="stroke:#3B424C;stroke-width:1.3px"/>
<g class="bond"><line x1="404.2" y1="247.0" x2="423.4" y2="294.6" style="stroke:#3B424C;stroke-width:6.4px;stroke-linecap:round"/><line x1="404.2" y1="247.0" x2="423.4" y2="294.6" style="stroke:#1D2025;stroke-width:3.9px;stroke-linecap:round"/></g>
<circle class="ball" cx="171.9" cy="143.0" r="5.4" fill="url(#sgglossyF7F7F7)" style="stroke:#3B424C;stroke-width:1.3px"/>
<g class="bond"><line x1="134.8" y1="204.4" x2="108.4" y2="195.2" style="stroke:#3B424C;stroke-width:6.4px;stroke-linecap:round"/><line x1="134.8" y1="204.4" x2="108.4" y2="195.2" style="stroke:#1D2025;stroke-width:3.9px;stroke-linecap:round"/></g>
<circle class="ball" cx="496.7" cy="302.4" r="5.4" fill="url(#sgglossyF7F7F7)" style="stroke:#3B424C;stroke-width:1.3px"/>
<circle class="ball" cx="423.4" cy="294.6" r="7.8" fill="url(#sgglossyBFC3C8)" style="stroke:#3B424C;stroke-width:1.3px"/>
<g class="bond"><line x1="404.2" y1="247.0" x2="398.0" y2="224.9" style="stroke:#3B424C;stroke-width:6.4px;stroke-linecap:round"/><line x1="404.2" y1="247.0" x2="398.0" y2="224.9" style="stroke:#1D2025;stroke-width:3.9px;stroke-linecap:round"/></g>
<circle class="ball" cx="108.4" cy="195.2" r="5.4" fill="url(#sgglossyF7F7F7)" style="stroke:#3B424C;stroke-width:1.3px"/>
<circle class="ball" cx="398.0" cy="224.9" r="5.4" fill="url(#sgglossyF7F7F7)" style="stroke:#3B424C;stroke-width:1.3px"/>
<g class="bond"><line x1="423.4" y1="294.6" x2="426.1" y2="301.2" style="stroke:#3B424C;stroke-width:6.4px;stroke-linecap:round"/><line x1="423.4" y1="294.6" x2="426.1" y2="301.2" style="stroke:#1D2025;stroke-width:3.9px;stroke-linecap:round"/></g>
<circle class="ball" cx="426.1" cy="301.2" r="5.4" fill="url(#sgglossyF7F7F7)" style="stroke:#3B424C;stroke-width:1.3px"/>
</g>
<line class="sx-axis behind" x1="236.1" y1="247.0" x2="227.3" y2="241.8" stroke="#1596A6"/><line class="sx-axis" x1="227.3" y1="241.8" x2="205.3" y2="228.9" stroke="#1596A6"/><line class="sx-axis behind" x1="205.3" y1="228.9" x2="196.5" y2="223.7" stroke="#1596A6"/><line class="sx-axis" x1="196.5" y1="223.7" x2="95.3" y2="164.3" stroke="#1596A6" marker-end="url(#mk1596A6)"/>
<path class="sx-wedge" d="M236.1,247.0 L384.2,199.9 L386.3,202.2 L388.2,204.5 L390.1,206.9 L391.8,209.3 L393.4,211.7 L394.8,214.2 L396.1,216.7 L397.3,219.2 L398.3,221.7 L399.3,224.3 L400.0,226.9 L400.7,229.5 L401.2,232.1 L401.6,234.7 L401.8,237.4 L401.9,240.0 L401.9,242.7 L401.7,245.3 L401.4,248.0 L400.9,250.6 L400.4,253.3 L399.6,255.9 L398.8,258.6 L397.8,261.2 L396.7,263.8 L395.4,266.4 L394.1,269.0 L392.6,271.6 L390.9,274.1 L389.1,276.6 L387.3,279.1 Z" fill="#3450A8"/>
<path class="sx-arc" d="M384.2,199.9 L386.3,202.2 L388.2,204.5 L390.1,206.9 L391.8,209.3 L393.4,211.7 L394.8,214.2 L396.1,216.7 L397.3,219.2 L398.3,221.7 L399.3,224.3 L400.0,226.9 L400.7,229.5 L401.2,232.1 L401.6,234.7 L401.8,237.4 L401.9,240.0 L401.9,242.7 L401.7,245.3 L401.4,248.0 L400.9,250.6 L400.4,253.3 L399.6,255.9 L398.8,258.6 L397.8,261.2 L396.7,263.8 L395.4,266.4 L394.1,269.0 L392.6,271.6 L390.9,274.1 L389.1,276.6 L387.3,279.1" stroke="#3450A8"/>
<line class="sx-shadow behind" x1="236.1" y1="247.0" x2="246.1" y2="243.8" stroke="#3450A8"/><line class="sx-shadow" x1="246.1" y1="243.8" x2="321.5" y2="219.8" stroke="#3450A8"/><line class="sx-shadow behind" x1="321.5" y1="219.8" x2="331.6" y2="216.6" stroke="#3450A8"/><line class="sx-shadow" x1="331.6" y1="216.6" x2="396.9" y2="195.8" stroke="#3450A8"/>
<line class="sx-v dash behind" x1="236.1" y1="247.0" x2="244.2" y2="248.7" stroke="#C9352B"/><line class="sx-v dash" x1="244.2" y1="248.7" x2="276.8" y2="255.7" stroke="#C9352B"/><line class="sx-v dash behind" x1="276.8" y1="255.7" x2="293.1" y2="259.1" stroke="#C9352B"/><line class="sx-v dash" x1="293.1" y1="259.1" x2="423.4" y2="286.8" stroke="#C9352B"/><line class="sx-v dash behind" x1="423.4" y1="286.8" x2="431.6" y2="288.5" stroke="#C9352B"/><line class="sx-v dash" x1="431.6" y1="288.5" x2="496.7" y2="302.4" stroke="#C9352B" marker-end="url(#mkC9352B)"/>
<circle class="sx-ring" cx="496.7" cy="302.4" r="8.4" stroke="#C9352B"/>
<circle cx="236.1" cy="247.0" r="2.4" fill="#3450A8"/>
<line class="sx-b1" x1="183.5" y1="216.1" x2="156.8" y2="187.6" stroke="#6C4AB6" marker-end="url(#mk6C4AB6)"/>
<line class="sx-trace" x1="145.6" y1="202.3" x2="163.8" y2="178.5" stroke="#6C4AB6"/><line class="sx-trace behind" x1="163.8" y1="178.5" x2="168.0" y2="173.0" stroke="#6C4AB6"/>
<line class="sx-axis behind" x1="404.2" y1="247.0" x2="413.0" y2="241.9" stroke="#1596A6"/><line class="sx-axis" x1="413.0" y1="241.9" x2="434.9" y2="228.9" stroke="#1596A6"/><line class="sx-axis behind" x1="434.9" y1="228.9" x2="448.1" y2="221.1" stroke="#1596A6"/><line class="sx-axis" x1="448.1" y1="221.1" x2="544.7" y2="164.1" stroke="#1596A6" marker-end="url(#mk1596A6)"/>
<path class="sx-wedge" d="M404.2,247.0 L256.1,199.8 L254.0,202.1 L252.0,204.4 L250.2,206.8 L248.5,209.2 L246.9,211.6 L245.5,214.1 L244.1,216.6 L243.0,219.1 L241.9,221.7 L241.0,224.2 L240.2,226.8 L239.6,229.4 L239.0,232.0 L238.7,234.7 L238.4,237.3 L238.3,240.0 L238.4,242.6 L238.5,245.3 L238.8,247.9 L239.3,250.6 L239.9,253.2 L240.6,255.9 L241.4,258.5 L242.4,261.2 L243.5,263.8 L244.8,266.4 L246.2,269.0 L247.7,271.5 L249.3,274.1 L251.1,276.6 L253.0,279.1 Z" fill="#3450A8"/>
<path class="sx-arc" d="M256.1,199.8 L254.0,202.1 L252.0,204.4 L250.2,206.8 L248.5,209.2 L246.9,211.6 L245.5,214.1 L244.1,216.6 L243.0,219.1 L241.9,221.7 L241.0,224.2 L240.2,226.8 L239.6,229.4 L239.0,232.0 L238.7,234.7 L238.4,237.3 L238.3,240.0 L238.4,242.6 L238.5,245.3 L238.8,247.9 L239.3,250.6 L239.9,253.2 L240.6,255.9 L241.4,258.5 L242.4,261.2 L243.5,263.8 L244.8,266.4 L246.2,269.0 L247.7,271.5 L249.3,274.1 L251.1,276.6 L253.0,279.1" stroke="#3450A8"/>
<line class="sx-shadow behind" x1="404.2" y1="247.0" x2="394.2" y2="243.8" stroke="#3450A8"/><line class="sx-shadow" x1="394.2" y1="243.8" x2="243.7" y2="195.8" stroke="#3450A8"/>
<line class="sx-v dash behind" x1="404.2" y1="247.0" x2="396.0" y2="248.8" stroke="#C9352B"/><line class="sx-v dash" x1="396.0" y1="248.8" x2="363.5" y2="255.7" stroke="#C9352B"/><line class="sx-v dash behind" x1="363.5" y1="255.7" x2="347.2" y2="259.1" stroke="#C9352B"/><line class="sx-v dash" x1="347.2" y1="259.1" x2="176.1" y2="295.5" stroke="#C9352B"/><line class="sx-v dash behind" x1="176.1" y1="295.5" x2="159.8" y2="298.9" stroke="#C9352B"/><line class="sx-v dash" x1="159.8" y1="298.9" x2="143.5" y2="302.4" stroke="#C9352B" marker-end="url(#mkC9352B)"/>
<circle class="sx-ring" cx="143.5" cy="302.4" r="8.4" stroke="#C9352B"/>
<circle cx="404.2" cy="247.0" r="2.4" fill="#3450A8"/>
<line class="sx-b1" x1="456.6" y1="216.1" x2="483.4" y2="187.6" stroke="#6C4AB6" marker-end="url(#mk6C4AB6)"/>
<line class="sx-trace" x1="494.6" y1="202.3" x2="472.2" y2="173.0" stroke="#6C4AB6"/>
<line class="leader" x1="351.3" y1="199.2" x2="401.9" y2="240.0" stroke="#3450A8"/><text class="th" data-lab="th||1" x="347.3" y="190.4" text-anchor="end" font-size="17.6" fill="#3450A8">&#952;</text>
<line class="leader" x1="289.0" y1="199.1" x2="238.3" y2="240.0" stroke="#3450A8"/><text class="th" data-lab="th||2" x="293.0" y="190.4" text-anchor="start" font-size="17.6" fill="#3450A8">&#952;</text>
<text class="lab" data-lab="lab|B1|1" x="142.8" y="171.6" text-anchor="end" font-size="16.2" fill="#6C4AB6">B<tspan dy="2.6" font-size="0.75em">1</tspan><tspan dy="-2.6"></tspan></text>
<text class="lab" data-lab="lab|B1|2" x="497.4" y="171.6" text-anchor="start" font-size="16.2" fill="#6C4AB6">B<tspan dy="2.6" font-size="0.75em">1</tspan><tspan dy="-2.6"></tspan></text>
</svg>