<svg class="fig scene" xmlns="http://www.w3.org/2000/svg" viewBox="0 0 640 540" role="img" aria-label="Molecule with descriptor constructions">
<defs><radialGradient id="sgglossyd09264" cx="34%" cy="30%" r="70%"><stop offset="0" stop-color="#FFFFFF"/><stop offset="0.13" stop-color="#ecd3c1"/><stop offset="0.5" stop-color="#d09264"/><stop offset="1" stop-color="#5e422d"/></radialGradient><radialGradient id="sgglossy75ad71" cx="34%" cy="30%" r="70%"><stop offset="0" stop-color="#FFFFFF"/><stop offset="0.13" stop-color="#c8dec6"/><stop offset="0.5" stop-color="#75ad71"/><stop offset="1" stop-color="#354e33"/></radialGradient><radialGradient id="sgglossy647dd1" cx="34%" cy="30%" r="70%"><stop offset="0" stop-color="#FFFFFF"/><stop offset="0.13" stop-color="#c1cbed"/><stop offset="0.5" stop-color="#647dd1"/><stop offset="1" stop-color="#2d385e"/></radialGradient><radialGradient id="sgglossyb5bcc6" cx="34%" cy="30%" r="70%"><stop offset="0" stop-color="#FFFFFF"/><stop offset="0.13" stop-color="#e1e4e8"/><stop offset="0.5" stop-color="#b5bcc6"/><stop offset="1" stop-color="#515559"/></radialGradient><radialGradient id="sgglossyA9B1BC" cx="34%" cy="30%" r="70%"><stop offset="0" stop-color="#FFFFFF"/><stop offset="0.13" stop-color="#dde0e4"/><stop offset="0.5" stop-color="#A9B1BC"/><stop offset="1" stop-color="#4c5055"/></radialGradient><radialGradient id="sgglossyF3F5F8" cx="34%" cy="30%" r="70%"><stop offset="0" stop-color="#FFFFFF"/><stop offset="0.13" stop-color="#fafbfc"/><stop offset="0.5" stop-color="#F3F5F8"/><stop offset="1" stop-color="#6d6e70"/></radialGradient><radialGradient id="sgglossyd6645c" cx="34%" cy="30%" r="70%"><stop offset="0" stop-color="#FFFFFF"/><stop offset="0.13" stop-color="#efc1be"/><stop offset="0.5" stop-color="#d6645c"/><stop offset="1" stop-color="#602d29"/></radialGradient><radialGradient id="sgglossyf5f6f9" cx="34%" cy="30%" r="70%"><stop offset="0" stop-color="#FFFFFF"/><stop offset="0.13" stop-color="#fbfbfd"/><stop offset="0.5" stop-color="#f5f6f9"/><stop offset="1" stop-color="#6e6f70"/></radialGradient><radialGradient id="sgglossyf6f8fa" cx="34%" cy="30%" r="70%"><stop offset="0" stop-color="#FFFFFF"/><stop offset="0.13" stop-color="#fbfcfd"/><stop offset="0.5" stop-color="#f6f8fa"/><stop offset="1" stop-color="#6f7071"/></radialGradient><marker id="mk1596A6" viewBox="0 0 10 10" refX="8.5" refY="5" markerWidth="5.2" markerHeight="5.2" orient="auto"><path d="M0,0 L10,5 L0,10 z" fill="#1596A6"/></marker><marker id="mkC9352B" viewBox="0 0 10 10" refX="8.5" refY="5" markerWidth="5.2" markerHeight="5.2" orient="auto"><path d="M0,0 L10,5 L0,10 z" fill="#C9352B"/></marker><marker id="mk6C4AB6" viewBox="0 0 10 10" refX="8.5" refY="5" markerWidth="5.2" markerHeight="5.2" orient="auto"><path d="M0,0 L10,5 L0,10 z" fill="#6C4AB6"/></marker><filter id="softshadow" x="-20%" y="-20%" width="140%" height="140%"><feDropShadow dx="1.4" dy="2.4" stdDeviation="2.3" flood-color="#1B2230" flood-opacity=".22"/></filter></defs>
<g filter="url(#softshadow)">
<circle class="ball" cx="434.5" cy="222.3" r="12.5" fill="url(#sgglossyf6f8fa)" style="stroke:#3B424C;stroke-width:0.8px"/>
<circle class="ball" cx="486.9" cy="311.7" r="12.5" fill="url(#sgglossyf5f6f9)" style="stroke:#3B424C;stroke-width:0.8px"/>
<circle class="ball" cx="539.3" cy="216.6" r="12.5" fill="url(#sgglossyf5f6f9)" style="stroke:#3B424C;stroke-width:0.8px"/>
<g class="bond"><line x1="451.5" y1="230.8" x2="434.5" y2="222.3" style="stroke:#3B424C;stroke-width:12.7px;stroke-linecap:round"/><line x1="451.5" y1="230.8" x2="443.0" y2="226.5" style="stroke:#c0c6cf;stroke-width:11.1px;stroke-linecap:round"/><line x1="443.0" y1="226.5" x2="434.5" y2="222.3" style="stroke:#f7f9fb;stroke-width:11.1px;stroke-linecap:round"/></g>
<g class="bond"><line x1="459.9" y1="295.1" x2="486.9" y2="311.7" style="stroke:#3B424C;stroke-width:12.7px;stroke-linecap:round"/><line x1="459.9" y1="295.1" x2="473.4" y2="303.4" style="stroke:#c0c6cf;stroke-width:11.1px;stroke-linecap:round"/><line x1="473.4" y1="303.4" x2="486.9" y2="311.7" style="stroke:#f7f7fa;stroke-width:11.1px;stroke-linecap:round"/></g>
<g class="bond"><line x1="508.7" y1="200.0" x2="539.3" y2="216.6" style="stroke:#3B424C;stroke-width:12.7px;stroke-linecap:round"/><line x1="508.7" y1="200.0" x2="524.0" y2="208.3" style="stroke:#c0c6cf;stroke-width:11.1px;stroke-linecap:round"/><line x1="524.0" y1="208.3" x2="539.3" y2="216.6" style="stroke:#f7f7fa;stroke-width:11.1px;stroke-linecap:round"/></g>
<circle class="ball" cx="123.9" cy="153.1" r="12.5" fill="url(#sgglossyf5f6f9)" style="stroke:#3B424C;stroke-width:0.8px"/>
<g class="bond"><line x1="157.0" y1="183.7" x2="123.9" y2="153.1" style="stroke:#3B424C;stroke-width:12.7px;stroke-linecap:round"/><line x1="157.0" y1="183.7" x2="140.5" y2="168.4" style="stroke:#c0c6cf;stroke-width:11.1px;stroke-linecap:round"/><line x1="140.5" y1="168.4" x2="123.9" y2="153.1" style="stroke:#f7f7fa;stroke-width:11.1px;stroke-linecap:round"/></g>
<circle class="ball" cx="412.6" cy="124.8" r="12.5" fill="url(#sgglossyf5f6f9)" style="stroke:#3B424C;stroke-width:0.8px"/>
<circle class="ball" cx="451.5" cy="230.8" r="18.3" fill="url(#sgglossyb5bcc6)" style="stroke:#3B424C;stroke-width:0.8px"/>
<circle class="ball" cx="504.8" cy="154.1" r="12.5" fill="url(#sgglossyf5f6f9)" style="stroke:#3B424C;stroke-width:0.8px"/>
<g class="bond"><line x1="451.5" y1="230.8" x2="508.7" y2="200.0" style="stroke:#3B424C;stroke-width:12.7px;stroke-linecap:round"/><line x1="451.5" y1="230.8" x2="480.1" y2="215.4" style="stroke:#c0c6cf;stroke-width:11.1px;stroke-linecap:round"/><line x1="480.1" y1="215.4" x2="508.7" y2="200.0" style="stroke:#c0c6cf;stroke-width:11.1px;stroke-linecap:round"/></g>
<g class="bond"><line x1="459.9" y1="295.1" x2="451.5" y2="230.8" style="stroke:#3B424C;stroke-width:12.7px;stroke-linecap:round"/><line x1="459.9" y1="295.1" x2="455.7" y2="262.9" style="stroke:#c0c6cf;stroke-width:11.1px;stroke-linecap:round"/><line x1="455.7" y1="262.9" x2="451.5" y2="230.8" style="stroke:#c0c6cf;stroke-width:11.1px;stroke-linecap:round"/></g>
<g class="bond"><line x1="508.7" y1="200.0" x2="504.8" y2="154.1" style="stroke:#3B424C;stroke-width:12.7px;stroke-linecap:round"/><line x1="508.7" y1="200.0" x2="506.8" y2="177.0" style="stroke:#c0c6cf;stroke-width:11.1px;stroke-linecap:round"/><line x1="506.8" y1="177.0" x2="504.8" y2="154.1" style="stroke:#f7f7fa;stroke-width:11.1px;stroke-linecap:round"/></g>
<circle class="ball" cx="157.0" cy="183.7" r="18.3" fill="url(#sgglossyb5bcc6)" style="stroke:#3B424C;stroke-width:0.8px"/>
<circle class="ball" cx="100.7" cy="256.6" r="12.5" fill="url(#sgglossyf5f6f9)" style="stroke:#3B424C;stroke-width:0.8px"/>
<circle class="ball" cx="419.0" cy="317.6" r="12.5" fill="url(#sgglossyf5f6f9)" style="stroke:#3B424C;stroke-width:0.8px"/>
<g class="bond"><line x1="459.9" y1="295.1" x2="419.0" y2="317.6" style="stroke:#3B424C;stroke-width:12.7px;stroke-linecap:round"/><line x1="459.9" y1="295.1" x2="439.5" y2="306.4" style="stroke:#c0c6cf;stroke-width:11.1px;stroke-linecap:round"/><line x1="439.5" y1="306.4" x2="419.0" y2="317.6" style="stroke:#f7f7fa;stroke-width:11.1px;stroke-linecap:round"/></g>
<circle class="ball" cx="225.7" cy="122.0" r="12.5" fill="url(#sgglossyf5f6f9)" style="stroke:#3B424C;stroke-width:0.8px"/>
<circle class="ball" cx="508.7" cy="200.0" r="18.3" fill="url(#sgglossyb5bcc6)" style="stroke:#3B424C;stroke-width:0.8px"/>
<circle class="ball" cx="459.9" cy="295.1" r="18.3" fill="url(#sgglossyb5bcc6)" style="stroke:#3B424C;stroke-width:0.8px"/>
<g class="bond"><line x1="157.0" y1="183.7" x2="143.9" y2="241.5" style="stroke:#3B424C;stroke-width:12.7px;stroke-linecap:round"/><line x1="157.0" y1="183.7" x2="150.5" y2="212.6" style="stroke:#c0c6cf;stroke-width:11.1px;stroke-linecap:round"/><line x1="150.5" y1="212.6" x2="143.9" y2="241.5" style="stroke:#c0c6cf;stroke-width:11.1px;stroke-linecap:round"/></g>
<g class="bond"><line x1="213.0" y1="166.1" x2="157.0" y2="183.7" style="stroke:#3B424C;stroke-width:12.7px;stroke-linecap:round"/><line x1="213.0" y1="166.1" x2="185.0" y2="174.9" style="stroke:#c0c6cf;stroke-width:11.1px;stroke-linecap:round"/><line x1="185.0" y1="174.9" x2="157.0" y2="183.7" style="stroke:#c0c6cf;stroke-width:11.1px;stroke-linecap:round"/></g>
<g class="bond"><line x1="143.9" y1="241.5" x2="100.7" y2="256.6" style="stroke:#3B424C;stroke-width:12.7px;stroke-linecap:round"/><line x1="143.9" y1="241.5" x2="122.3" y2="249.1" style="stroke:#c0c6cf;stroke-width:11.1px;stroke-linecap:round"/><line x1="122.3" y1="249.1" x2="100.7" y2="256.6" style="stroke:#f7f7fa;stroke-width:11.1px;stroke-linecap:round"/></g>
<g class="bond"><line x1="213.0" y1="166.1" x2="225.7" y2="122.0" style="stroke:#3B424C;stroke-width:12.7px;stroke-linecap:round"/><line x1="213.0" y1="166.1" x2="219.4" y2="144.0" style="stroke:#c0c6cf;stroke-width:11.1px;stroke-linecap:round"/><line x1="219.4" y1="144.0" x2="225.7" y2="122.0" style="stroke:#f7f7fa;stroke-width:11.1px;stroke-linecap:round"/></g>
<circle class="ball" cx="143.9" cy="241.5" r="18.3" fill="url(#sgglossyb5bcc6)" style="stroke:#3B424C;stroke-width:0.8px"/>
<circle class="ball" cx="213.0" cy="166.1" r="18.3" fill="url(#sgglossyb5bcc6)" style="stroke:#3B424C;stroke-width:0.8px"/>
<g class="bond"><line x1="143.9" y1="241.5" x2="187.5" y2="279.5" style="stroke:#3B424C;stroke-width:12.7px;stroke-linecap:round"/><line x1="143.9" y1="241.5" x2="165.7" y2="260.5" style="stroke:#c0c6cf;stroke-width:11.1px;stroke-linecap:round"/><line x1="165.7" y1="260.5" x2="187.5" y2="279.5" style="stroke:#c0c6cf;stroke-width:11.1px;stroke-linecap:round"/></g>
<g class="bond"><line x1="254.2" y1="207.2" x2="213.0" y2="166.1" style="stroke:#3B424C;stroke-width:12.7px;stroke-linecap:round"/><line x1="254.2" y1="207.2" x2="233.6" y2="186.7" style="stroke:#c0c6cf;stroke-width:11.1px;stroke-linecap:round"/><line x1="233.6" y1="186.7" x2="213.0" y2="166.1" style="stroke:#c0c6cf;stroke-width:11.1px;stroke-linecap:round"/></g>
<g class="bond"><line x1="394.3" y1="143.6" x2="412.6" y2="124.8" style="stroke:#3B424C;stroke-width:12.7px;stroke-linecap:round"/><line x1="394.3" y1="143.6" x2="403.4" y2="134.2" style="stroke:#c0c6cf;stroke-width:11.1px;stroke-linecap:round"/><line x1="403.4" y1="134.2" x2="412.6" y2="124.8" style="stroke:#f7f7fa;stroke-width:11.1px;stroke-linecap:round"/></g>
<g class="bond"><line x1="451.5" y1="230.8" x2="407.8" y2="208.4" style="stroke:#3B424C;stroke-width:12.7px;stroke-linecap:round"/><line x1="451.5" y1="230.8" x2="429.6" y2="219.6" style="stroke:#c0c6cf;stroke-width:11.1px;stroke-linecap:round"/><line x1="429.6" y1="219.6" x2="407.8" y2="208.4" style="stroke:#b6bdc6;stroke-width:11.1px;stroke-linecap:round"/></g>
<circle class="ball" cx="187.5" cy="279.5" r="18.3" fill="url(#sgglossyb5bcc6)" style="stroke:#3B424C;stroke-width:0.8px"/>
<circle class="ball" cx="254.2" cy="207.2" r="18.3" fill="url(#sgglossyb5bcc6)" style="stroke:#3B424C;stroke-width:0.8px"/>
<g class="bond"><line x1="187.5" y1="279.5" x2="179.6" y2="324.8" style="stroke:#3B424C;stroke-width:12.7px;stroke-linecap:round"/><line x1="187.5" y1="279.5" x2="183.6" y2="302.1" style="stroke:#c0c6cf;stroke-width:11.1px;stroke-linecap:round"/><line x1="183.6" y1="302.1" x2="179.6" y2="324.8" style="stroke:#f7f7fa;stroke-width:11.1px;stroke-linecap:round"/></g>
<g class="bond"><line x1="241.2" y1="262.9" x2="187.5" y2="279.5" style="stroke:#3B424C;stroke-width:12.7px;stroke-linecap:round"/><line x1="241.2" y1="262.9" x2="214.3" y2="271.2" style="stroke:#7b91d8;stroke-width:11.1px;stroke-linecap:round"/><line x1="214.3" y1="271.2" x2="187.5" y2="279.5" style="stroke:#c0c6cf;stroke-width:11.1px;stroke-linecap:round"/></g>
<g class="bond"><line x1="459.9" y1="295.1" x2="480.3" y2="304.2" style="stroke:#3B424C;stroke-width:12.7px;stroke-linecap:round"/><line x1="459.9" y1="295.1" x2="470.1" y2="299.7" style="stroke:#c0c6cf;stroke-width:11.1px;stroke-linecap:round"/><line x1="470.1" y1="299.7" x2="480.3" y2="304.2" style="stroke:#f5f7f9;stroke-width:11.1px;stroke-linecap:round"/></g>
<g class="bond"><line x1="241.2" y1="262.9" x2="254.2" y2="207.2" style="stroke:#3B424C;stroke-width:12.7px;stroke-linecap:round"/><line x1="241.2" y1="262.9" x2="247.7" y2="235.1" style="stroke:#7b91d8;stroke-width:11.1px;stroke-linecap:round"/><line x1="247.7" y1="235.1" x2="254.2" y2="207.2" style="stroke:#c0c6cf;stroke-width:11.1px;stroke-linecap:round"/></g>
<g class="bond"><line x1="314.2" y1="194.3" x2="254.2" y2="207.2" style="stroke:#3B424C;stroke-width:12.7px;stroke-linecap:round"/><line x1="314.2" y1="194.3" x2="284.2" y2="200.8" style="stroke:#c0c6cf;stroke-width:11.1px;stroke-linecap:round"/><line x1="284.2" y1="200.8" x2="254.2" y2="207.2" style="stroke:#c0c6cf;stroke-width:11.1px;stroke-linecap:round"/></g>
<g class="bond"><line x1="508.7" y1="200.0" x2="525.6" y2="207.2" style="stroke:#3B424C;stroke-width:12.7px;stroke-linecap:round"/><line x1="508.7" y1="200.0" x2="517.1" y2="203.6" style="stroke:#c0c6cf;stroke-width:11.1px;stroke-linecap:round"/><line x1="517.1" y1="203.6" x2="525.6" y2="207.2" style="stroke:#f5f7f9;stroke-width:11.1px;stroke-linecap:round"/></g>
<circle class="ball" cx="179.6" cy="324.8" r="12.5" fill="url(#sgglossyf5f6f9)" style="stroke:#3B424C;stroke-width:0.8px"/>
<circle class="ball" cx="241.2" cy="262.9" r="17.7" fill="url(#sgglossy647dd1)" style="stroke:#3B424C;stroke-width:0.8px"/>
<circle class="ball" cx="314.2" cy="194.3" r="18.3" fill="url(#sgglossyb5bcc6)" style="stroke:#3B424C;stroke-width:0.8px"/>
<g class="bond"><line x1="333.4" y1="140.3" x2="314.2" y2="194.3" style="stroke:#3B424C;stroke-width:12.7px;stroke-linecap:round"/><line x1="333.4" y1="140.3" x2="323.8" y2="167.3" style="stroke:#dc7b74;stroke-width:11.1px;stroke-linecap:round"/><line x1="323.8" y1="167.3" x2="314.2" y2="194.3" style="stroke:#c0c6cf;stroke-width:11.1px;stroke-linecap:round"/></g>
<circle class="ball" cx="333.4" cy="140.3" r="17.0" fill="url(#sgglossyd6645c)" style="stroke:#3B424C;stroke-width:0.8px"/>
<g class="bond"><line x1="351.9" y1="234.1" x2="314.2" y2="194.3" style="stroke:#3B424C;stroke-width:12.7px;stroke-linecap:round"/><line x1="351.9" y1="234.1" x2="333.1" y2="214.2" style="stroke:#7b91d8;stroke-width:11.1px;stroke-linecap:round"/><line x1="333.1" y1="214.2" x2="314.2" y2="194.3" style="stroke:#c0c6cf;stroke-width:11.1px;stroke-linecap:round"/></g>
<g class="bond"><line x1="317.8" y1="309.4" x2="241.2" y2="262.9" style="stroke:#3B424C;stroke-width:12.7px;stroke-linecap:round" stroke-dasharray="10.0 8.3"/><line x1="317.8" y1="309.4" x2="279.5" y2="286.2" style="stroke:#d7a27b;stroke-width:11.1px;stroke-linecap:round" stroke-dasharray="10.0 8.3"/><line x1="279.5" y1="286.2" x2="241.2" y2="262.9" style="stroke:#7b91d8;stroke-width:11.1px;stroke-linecap:round" stroke-dasharray="10.0 8.3"/></g>
<g class="bond"><line x1="317.8" y1="309.4" x2="314.2" y2="194.3" style="stroke:#3B424C;stroke-width:12.7px;stroke-linecap:round" stroke-dasharray="10.0 8.3"/><line x1="317.8" y1="309.4" x2="316.0" y2="251.9" style="stroke:#d7a27b;stroke-width:11.1px;stroke-linecap:round" stroke-dasharray="10.0 8.3"/><line x1="316.0" y1="251.9" x2="314.2" y2="194.3" style="stroke:#c0c6cf;stroke-width:11.1px;stroke-linecap:round" stroke-dasharray="10.0 8.3"/></g>
<g class="bond"><line x1="394.3" y1="143.6" x2="333.4" y2="140.3" style="stroke:#3B424C;stroke-width:12.7px;stroke-linecap:round"/><line x1="394.3" y1="143.6" x2="363.8" y2="141.9" style="stroke:#c0c6cf;stroke-width:11.1px;stroke-linecap:round"/><line x1="363.8" y1="141.9" x2="333.4" y2="140.3" style="stroke:#dc7b74;stroke-width:11.1px;stroke-linecap:round"/></g>
<circle class="ball" cx="351.9" cy="234.1" r="17.7" fill="url(#sgglossy647dd1)" style="stroke:#3B424C;stroke-width:0.8px"/>
<g class="bond"><line x1="317.8" y1="309.4" x2="351.9" y2="234.1" style="stroke:#3B424C;stroke-width:12.7px;stroke-linecap:round" stroke-dasharray="10.0 8.3"/><line x1="317.8" y1="309.4" x2="334.9" y2="271.8" style="stroke:#d7a27b;stroke-width:11.1px;stroke-linecap:round" stroke-dasharray="10.0 8.3"/><line x1="334.9" y1="271.8" x2="351.9" y2="234.1" style="stroke:#7b91d8;stroke-width:11.1px;stroke-linecap:round" stroke-dasharray="10.0 8.3"/></g>
<circle class="ball" cx="317.8" cy="309.4" r="25.5" fill="url(#sgglossyd09264)" style="stroke:#3B424C;stroke-width:0.8px"/>
<g class="bond"><line x1="317.8" y1="309.4" x2="321.6" y2="398.6" style="stroke:#3B424C;stroke-width:12.7px;stroke-linecap:round" stroke-dasharray="10.0 8.3"/><line x1="317.8" y1="309.4" x2="319.7" y2="354.0" style="stroke:#d7a27b;stroke-width:11.1px;stroke-linecap:round" stroke-dasharray="10.0 8.3"/><line x1="319.7" y1="354.0" x2="321.6" y2="398.6" style="stroke:#8ab986;stroke-width:11.1px;stroke-linecap:round" stroke-dasharray="10.0 8.3"/></g>
<circle class="ball" cx="394.3" cy="143.6" r="18.3" fill="url(#sgglossyb5bcc6)" style="stroke:#3B424C;stroke-width:0.8px"/>
<circle class="ball" cx="321.6" cy="398.6" r="21.7" fill="url(#sgglossy75ad71)" style="stroke:#3B424C;stroke-width:0.8px"/>
<g class="bond"><line x1="351.9" y1="234.1" x2="407.8" y2="208.4" style="stroke:#3B424C;stroke-width:12.7px;stroke-linecap:round"/><line x1="351.9" y1="234.1" x2="379.9" y2="221.2" style="stroke:#7b91d8;stroke-width:11.1px;stroke-linecap:round"/><line x1="379.9" y1="221.2" x2="407.8" y2="208.4" style="stroke:#b6bdc6;stroke-width:11.1px;stroke-linecap:round"/></g>
<g class="bond"><line x1="407.8" y1="208.4" x2="394.3" y2="143.6" style="stroke:#3B424C;stroke-width:12.7px;stroke-linecap:round"/><line x1="407.8" y1="208.4" x2="401.0" y2="176.0" style="stroke:#b6bdc6;stroke-width:11.1px;stroke-linecap:round"/><line x1="401.0" y1="176.0" x2="394.3" y2="143.6" style="stroke:#c0c6cf;stroke-width:11.1px;stroke-linecap:round"/></g>
<circle class="ball" cx="407.8" cy="208.4" r="18.3" fill="url(#sgglossyA9B1BC)" style="stroke:#3B424C;stroke-width:0.8px"/>
<circle class="ball" cx="480.3" cy="304.2" r="12.5" fill="url(#sgglossyF3F5F8)" style="stroke:#3B424C;stroke-width:0.8px"/>
<circle class="ball" cx="525.6" cy="207.2" r="12.5" fill="url(#sgglossyF3F5F8)" style="stroke:#3B424C;stroke-width:0.8px"/>
<g class="bond"><line x1="394.3" y1="143.6" x2="407.7" y2="118.8" style="stroke:#3B424C;stroke-width:12.7px;stroke-linecap:round"/><line x1="394.3" y1="143.6" x2="401.0" y2="131.2" style="stroke:#c0c6cf;stroke-width:11.1px;stroke-linecap:round"/><line x1="401.0" y1="131.2" x2="407.7" y2="118.8" style="stroke:#f5f7f9;stroke-width:11.1px;stroke-linecap:round"/></g>
<g class="bond"><line x1="407.8" y1="208.4" x2="423.2" y2="219.3" style="stroke:#3B424C;stroke-width:12.7px;stroke-linecap:round"/><line x1="407.8" y1="208.4" x2="415.5" y2="213.8" style="stroke:#b6bdc6;stroke-width:11.1px;stroke-linecap:round"/><line x1="415.5" y1="213.8" x2="423.2" y2="219.3" style="stroke:#f5f7f9;stroke-width:11.1px;stroke-linecap:round"/></g>
<circle class="ball" cx="407.7" cy="118.8" r="12.5" fill="url(#sgglossyF3F5F8)" style="stroke:#3B424C;stroke-width:0.8px"/>
<circle class="ball" cx="423.2" cy="219.3" r="12.5" fill="url(#sgglossyF3F5F8)" style="stroke:#3B424C;stroke-width:0.8px"/>
</g>
<line class="sx-axis behind" x1="407.8" y1="208.4" x2="437.3" y2="223.5" stroke="#1596A6"/><line class="sx-axis" x1="437.3" y1="223.5" x2="441.0" y2="225.4" stroke="#1596A6"/><line class="sx-axis behind" x1="441.0" y1="225.4" x2="470.5" y2="240.5" stroke="#1596A6"/><line class="sx-axis" x1="470.5" y1="240.5" x2="525.8" y2="268.8" stroke="#1596A6" marker-end="url(#mk1596A6)"/>
<path class="sx-wedge" d="M407.8,208.4 L444.6,179.9 L445.4,179.7 L446.1,179.5 L446.9,179.3 L447.7,179.1 L448.4,178.9 L449.2,178.8 L449.9,178.6 L450.6,178.5 L451.3,178.3 L452.0,178.2 L452.7,178.0 L453.4,177.9 L454.1,177.8 L454.7,177.7 L455.4,177.6 L456.0,177.5 L456.6,177.4 L457.2,177.3 L457.8,177.2 L458.4,177.1 L459.0,177.1 L459.6,177.0 L460.1,177.0 L460.7,176.9 L461.2,176.9 L461.7,176.9 L462.2,176.9 L462.7,176.9 L463.2,176.9 L463.6,176.9 L464.1,176.9 Z" fill="#3450A8"/>
<path class="sx-arc" d="M444.6,179.9 L445.4,179.7 L446.1,179.5 L446.9,179.3 L447.7,179.1 L448.4,178.9 L449.2,178.8 L449.9,178.6 L450.6,178.5 L451.3,178.3 L452.0,178.2 L452.7,178.0 L453.4,177.9 L454.1,177.8 L454.7,177.7 L455.4,177.6 L456.0,177.5 L456.6,177.4 L457.2,177.3 L457.8,177.2 L458.4,177.1 L459.0,177.1 L459.6,177.0 L460.1,177.0 L460.7,176.9 L461.2,176.9 L461.7,176.9 L462.2,176.9 L462.7,176.9 L463.2,176.9 L463.6,176.9 L464.1,176.9" stroke="#3450A8"/>
<line class="sx-shadow behind" x1="407.8" y1="208.4" x2="423.6" y2="196.1" stroke="#3450A8"/><line class="sx-shadow" x1="423.6" y1="196.1" x2="464.1" y2="164.8" stroke="#3450A8"/>
<line class="sx-perp" x1="464.1" y1="164.8" x2="493.4" y2="157.1" stroke="#3450A8"/><line class="sx-perp behind" x1="493.4" y1="157.1" x2="504.8" y2="154.1" stroke="#3450A8"/>
<path class="sx-right" d="M457.3,170.0 L466.8,167.5 L473.6,162.3" stroke="#434C59"/>
<line class="sx-v dash behind" x1="407.8" y1="208.4" x2="426.0" y2="198.2" stroke="#C9352B"/><line class="sx-v dash" x1="426.0" y1="198.2" x2="495.7" y2="159.2" stroke="#C9352B"/><line class="sx-v dash behind" x1="495.7" y1="159.2" x2="504.8" y2="154.1" stroke="#C9352B" marker-end="url(#mkC9352B)"/>
<circle class="sx-ring" cx="504.8" cy="154.1" r="15.5" stroke="#C9352B"/>
<circle cx="407.8" cy="208.4" r="2.4" fill="#3450A8"/>
<line class="sx-b1 behind" x1="461.1" y1="235.7" x2="436.5" y2="242.1" stroke="#6C4AB6"/><line class="sx-b1" x1="436.5" y1="242.1" x2="400.7" y2="251.5" stroke="#6C4AB6" marker-end="url(#mk6C4AB6)"/>
<line class="sx-trace" x1="402.8" y1="229.8" x2="398.6" y2="273.1" stroke="#6C4AB6"/>
<line class="sx-locline" x1="464.1" y1="164.8" x2="459.3" y2="214.4" stroke="#8A6A00"/><line class="sx-locline behind" x1="459.3" y1="214.4" x2="457.5" y2="233.8" stroke="#8A6A00"/>
<line class="sx-tickhalo" x1="454.1" y1="240.5" x2="460.9" y2="227.1" stroke="#FFFFFF"/>
<line class="sx-loctick" x1="454.1" y1="240.5" x2="460.9" y2="227.1" stroke="#C99A00"/>
<line class="sx-b5 behind" x1="457.5" y1="233.8" x2="466.1" y2="219.3" stroke="#C9352B"/><line class="sx-b5" x1="466.1" y1="219.3" x2="498.5" y2="164.7" stroke="#C9352B"/><line class="sx-b5 behind" x1="498.5" y1="164.7" x2="511.5" y2="142.9" stroke="#C9352B"/><line class="sx-b5" x1="511.5" y1="142.9" x2="526.6" y2="117.4" stroke="#C9352B" marker-end="url(#mkC9352B)"/>
<line class="leader" x1="532.0" y1="177.5" x2="456.0" y2="177.5" stroke="#3450A8"/><text class="th" data-lab="th||1" x="536.0" y="181.5" text-anchor="start" font-size="13.0" fill="#3450A8">&#952; 27.4&#176;</text>
<line class="leader" x1="522.8" y1="265.8" x2="457.5" y2="233.8" stroke="#8A6A00"/><text class="lab" data-lab="lab|locB5|1" x="526.8" y="277.8" text-anchor="start" font-size="12.0" fill="#8A6A00">loc B<tspan dy="2.6" font-size="0.75em">5</tspan><tspan dy="-2.6"> 1.75 &#8491;</tspan></text>
<text class="lab" data-lab="lab|B1|1" x="400.7" y="281.5" text-anchor="middle" font-size="12.0" fill="#6C4AB6">B<tspan dy="2.6" font-size="0.75em">1</tspan><tspan dy="-2.6"> 1.90 &#8491;</tspan></text>
<text class="lab" data-lab="lab|B5|1" x="526.6" y="107.4" text-anchor="middle" font-size="12.0" fill="#C9352B">B<tspan dy="2.6" font-size="0.75em">5</tspan><tspan dy="-2.6"> 3.17 &#8491;</tspan></text>
<text class="vl" data-lab="vl|v|1" x="473.8" y="189.2" text-anchor="middle" font-size="11.5" fill="#C9352B">v</text>
<circle cx="626" cy="442.8" r="3.6" fill="#1596A6"/>
<text class="key" x="618" y="446.3" text-anchor="end" font-size="10.5" fill="#374151">7-6  B<tspan dy="2.6" font-size="0.75em">1</tspan><tspan dy="-2.6"> 1.90</tspan> · B<tspan dy="2.6" font-size="0.75em">5</tspan><tspan dy="-2.6"> 3.17</tspan> · L 4.16 · loc B<tspan dy="2.6" font-size="0.75em">5</tspan><tspan dy="-2.6"> 1.75</tspan> · &#952; 27.4&#176;</text>
</svg>