<svg class="fig scene" xmlns="http://www.w3.org/2000/svg" viewBox="0 0 640 540" role="img" aria-label="Molecule with descriptor constructions">
<defs><radialGradient id="sgglossyd09264" cx="34%" cy="30%" r="70%"><stop offset="0" stop-color="#FFFFFF"/><stop offset="0.13" stop-color="#ecd3c1"/><stop offset="0.5" stop-color="#d09264"/><stop offset="1" stop-color="#5e422d"/></radialGradient><radialGradient id="sgglossy75ad71" cx="34%" cy="30%" r="70%"><stop offset="0" stop-color="#FFFFFF"/><stop offset="0.13" stop-color="#c8dec6"/><stop offset="0.5" stop-color="#75ad71"/><stop offset="1" stop-color="#354e33"/></radialGradient><radialGradient id="sgglossy647dd1" cx="34%" cy="30%" r="70%"><stop offset="0" stop-color="#FFFFFF"/><stop offset="0.13" stop-color="#c1cbed"/><stop offset="0.5" stop-color="#647dd1"/><stop offset="1" stop-color="#2d385e"/></radialGradient><radialGradient id="sgglossyA9B1BC" cx="34%" cy="30%" r="70%"><stop offset="0" stop-color="#FFFFFF"/><stop offset="0.13" stop-color="#dde0e4"/><stop offset="0.5" stop-color="#A9B1BC"/><stop offset="1" stop-color="#4c5055"/></radialGradient><radialGradient id="sgglossyb5bcc6" cx="34%" cy="30%" r="70%"><stop offset="0" stop-color="#FFFFFF"/><stop offset="0.13" stop-color="#e1e4e8"/><stop offset="0.5" stop-color="#b5bcc6"/><stop offset="1" stop-color="#515559"/></radialGradient><radialGradient id="sgglossyf5f6f9" cx="34%" cy="30%" r="70%"><stop offset="0" stop-color="#FFFFFF"/><stop offset="0.13" stop-color="#fbfbfd"/><stop offset="0.5" stop-color="#f5f6f9"/><stop offset="1" stop-color="#6e6f70"/></radialGradient><radialGradient id="sgglossyCF4A40" cx="34%" cy="30%" r="70%"><stop offset="0" stop-color="#FFFFFF"/><stop offset="0.13" stop-color="#ecb7b3"/><stop offset="0.5" stop-color="#CF4A40"/><stop offset="1" stop-color="#5d211d"/></radialGradient><radialGradient id="sgglossyF3F5F8" cx="34%" cy="30%" r="70%"><stop offset="0" stop-color="#FFFFFF"/><stop offset="0.13" stop-color="#fafbfc"/><stop offset="0.5" stop-color="#F3F5F8"/><stop offset="1" stop-color="#6d6e70"/></radialGradient><radialGradient id="sgglossyf6f8fa" cx="34%" cy="30%" r="70%"><stop offset="0" stop-color="#FFFFFF"/><stop offset="0.13" stop-color="#fbfcfd"/><stop offset="0.5" stop-color="#f6f8fa"/><stop offset="1" stop-color="#6f7071"/></radialGradient><marker id="mk1596A6" viewBox="0 0 10 10" refX="8.5" refY="5" markerWidth="5.2" markerHeight="5.2" orient="auto"><path d="M0,0 L10,5 L0,10 z" fill="#1596A6"/></marker><marker id="mkC9352B" viewBox="0 0 10 10" refX="8.5" refY="5" markerWidth="5.2" markerHeight="5.2" orient="auto"><path d="M0,0 L10,5 L0,10 z" fill="#C9352B"/></marker><marker id="mk6C4AB6" viewBox="0 0 10 10" refX="8.5" refY="5" markerWidth="5.2" markerHeight="5.2" orient="auto"><path d="M0,0 L10,5 L0,10 z" fill="#6C4AB6"/></marker><filter id="softshadow" x="-20%" y="-20%" width="140%" height="140%"><feDropShadow dx="1.4" dy="2.4" stdDeviation="2.3" flood-color="#1B2230" flood-opacity=".22"/></filter></defs>
<path class="sx-ref" d="M404.4,246.2 L336.5,261.7 L336.5,98.3 L404.4,82.8 Z" fill="#3450A8" stroke="#3450A8"/>
<path class="sx-patch" d="M434.7,231.7 L390.5,241.8 L390.5,188.2 L434.7,178.1 Z" fill="#6C4AB6" stroke="#6C4AB6"/>
<g filter="url(#softshadow)">
<circle class="ball ghost" cx="197.2" cy="362.7" r="10.5" fill="url(#sgglossyf6f8fa)" style="stroke:#3B424C;stroke-width:0.8px"/>
<g class="bond ghost"><line x1="197.5" y1="339.0" x2="197.2" y2="362.7" style="stroke:#3B424C;stroke-width:10.9px;stroke-linecap:round"/><line x1="197.5" y1="339.0" x2="197.4" y2="350.8" style="stroke:#c0c6cf;stroke-width:9.3px;stroke-linecap:round"/><line x1="197.4" y1="350.8" x2="197.2" y2="362.7" style="stroke:#f7f9fb;stroke-width:9.3px;stroke-linecap:round"/></g>
<circle class="ball ghost" cx="182.2" cy="304.9" r="10.5" fill="url(#sgglossyf5f6f9)" style="stroke:#3B424C;stroke-width:0.8px"/>
<circle class="ball ghost" cx="116.5" cy="390.8" r="10.5" fill="url(#sgglossyf5f6f9)" style="stroke:#3B424C;stroke-width:0.8px"/>
<g class="bond ghost"><line x1="197.5" y1="339.0" x2="182.2" y2="304.9" style="stroke:#3B424C;stroke-width:10.9px;stroke-linecap:round"/><line x1="197.5" y1="339.0" x2="189.9" y2="322.0" style="stroke:#c0c6cf;stroke-width:9.3px;stroke-linecap:round"/><line x1="189.9" y1="322.0" x2="182.2" y2="304.9" style="stroke:#f7f7fa;stroke-width:9.3px;stroke-linecap:round"/></g>
<circle class="ball ghost" cx="197.5" cy="339.0" r="15.3" fill="url(#sgglossyb5bcc6)" style="stroke:#3B424C;stroke-width:0.8px"/>
<g class="bond ghost"><line x1="197.5" y1="339.0" x2="234.5" y2="332.5" style="stroke:#3B424C;stroke-width:10.9px;stroke-linecap:round"/><line x1="197.5" y1="339.0" x2="216.0" y2="335.7" style="stroke:#c0c6cf;stroke-width:9.3px;stroke-linecap:round"/><line x1="216.0" y1="335.7" x2="234.5" y2="332.5" style="stroke:#f7f7fa;stroke-width:9.3px;stroke-linecap:round"/></g>
<g class="bond ghost"><line x1="117.6" y1="368.5" x2="116.5" y2="390.8" style="stroke:#3B424C;stroke-width:10.9px;stroke-linecap:round"/><line x1="117.6" y1="368.5" x2="117.0" y2="379.6" style="stroke:#c0c6cf;stroke-width:9.3px;stroke-linecap:round"/><line x1="117.0" y1="379.6" x2="116.5" y2="390.8" style="stroke:#f7f7fa;stroke-width:9.3px;stroke-linecap:round"/></g>
<circle class="ball ghost" cx="234.5" cy="332.5" r="10.5" fill="url(#sgglossyf5f6f9)" style="stroke:#3B424C;stroke-width:0.8px"/>
<circle class="ball ghost" cx="256.3" cy="223.8" r="18.1" fill="url(#sgglossy75ad71)" style="stroke:#3B424C;stroke-width:0.8px"/>
<circle class="ball ghost" cx="101.2" cy="334.3" r="10.5" fill="url(#sgglossyf5f6f9)" style="stroke:#3B424C;stroke-width:0.8px"/>
<g class="bond ghost"><line x1="169.6" y1="361.3" x2="197.5" y2="339.0" style="stroke:#3B424C;stroke-width:10.9px;stroke-linecap:round"/><line x1="169.6" y1="361.3" x2="183.6" y2="350.2" style="stroke:#c0c6cf;stroke-width:9.3px;stroke-linecap:round"/><line x1="183.6" y1="350.2" x2="197.5" y2="339.0" style="stroke:#c0c6cf;stroke-width:9.3px;stroke-linecap:round"/></g>
<g class="bond ghost"><line x1="117.6" y1="368.5" x2="101.2" y2="334.3" style="stroke:#3B424C;stroke-width:10.9px;stroke-linecap:round"/><line x1="117.6" y1="368.5" x2="109.4" y2="351.4" style="stroke:#c0c6cf;stroke-width:9.3px;stroke-linecap:round"/><line x1="109.4" y1="351.4" x2="101.2" y2="334.3" style="stroke:#f7f7fa;stroke-width:9.3px;stroke-linecap:round"/></g>
<circle class="ball ghost" cx="191.1" cy="433.2" r="10.5" fill="url(#sgglossyf5f6f9)" style="stroke:#3B424C;stroke-width:0.8px"/>
<circle class="ball ghost" cx="117.6" cy="368.5" r="15.3" fill="url(#sgglossyb5bcc6)" style="stroke:#3B424C;stroke-width:0.8px"/>
<g class="bond ghost"><line x1="169.6" y1="361.3" x2="117.6" y2="368.5" style="stroke:#3B424C;stroke-width:10.9px;stroke-linecap:round"/><line x1="169.6" y1="361.3" x2="143.6" y2="364.9" style="stroke:#c0c6cf;stroke-width:9.3px;stroke-linecap:round"/><line x1="143.6" y1="364.9" x2="117.6" y2="368.5" style="stroke:#c0c6cf;stroke-width:9.3px;stroke-linecap:round"/></g>
<g class="bond ghost"><line x1="192.3" y1="409.3" x2="191.1" y2="433.2" style="stroke:#3B424C;stroke-width:10.9px;stroke-linecap:round"/><line x1="192.3" y1="409.3" x2="191.7" y2="421.2" style="stroke:#c0c6cf;stroke-width:9.3px;stroke-linecap:round"/><line x1="191.7" y1="421.2" x2="191.1" y2="433.2" style="stroke:#f7f7fa;stroke-width:9.3px;stroke-linecap:round"/></g>
<g class="bond ghost"><line x1="117.6" y1="368.5" x2="96.4" y2="385.7" style="stroke:#3B424C;stroke-width:10.9px;stroke-linecap:round"/><line x1="117.6" y1="368.5" x2="107.0" y2="377.1" style="stroke:#c0c6cf;stroke-width:9.3px;stroke-linecap:round"/><line x1="107.0" y1="377.1" x2="96.4" y2="385.7" style="stroke:#f7f7fa;stroke-width:9.3px;stroke-linecap:round"/></g>
<circle class="ball ghost" cx="169.6" cy="361.3" r="15.3" fill="url(#sgglossyb5bcc6)" style="stroke:#3B424C;stroke-width:0.8px"/>
<g class="bond ghost"><line x1="259.8" y1="266.5" x2="256.3" y2="223.8" style="stroke:#3B424C;stroke-width:10.9px;stroke-linecap:round" stroke-dasharray="8.4 7.0"/><line x1="259.8" y1="266.5" x2="258.0" y2="245.1" style="stroke:#d7a27b;stroke-width:9.3px;stroke-linecap:round" stroke-dasharray="8.4 7.0"/><line x1="258.0" y1="245.1" x2="256.3" y2="223.8" style="stroke:#8ab986;stroke-width:9.3px;stroke-linecap:round" stroke-dasharray="8.4 7.0"/></g>
<g class="bond ghost"><line x1="169.6" y1="361.3" x2="192.3" y2="409.3" style="stroke:#3B424C;stroke-width:10.9px;stroke-linecap:round"/><line x1="169.6" y1="361.3" x2="180.9" y2="385.3" style="stroke:#c0c6cf;stroke-width:9.3px;stroke-linecap:round"/><line x1="180.9" y1="385.3" x2="192.3" y2="409.3" style="stroke:#c0c6cf;stroke-width:9.3px;stroke-linecap:round"/></g>
<circle class="ball ghost" cx="96.4" cy="385.7" r="10.5" fill="url(#sgglossyf5f6f9)" style="stroke:#3B424C;stroke-width:0.8px"/>
<circle class="ball ghost" cx="192.3" cy="409.3" r="15.3" fill="url(#sgglossyb5bcc6)" style="stroke:#3B424C;stroke-width:0.8px"/>
<g class="bond ghost"><line x1="192.3" y1="409.3" x2="229.5" y2="404.2" style="stroke:#3B424C;stroke-width:10.9px;stroke-linecap:round"/><line x1="192.3" y1="409.3" x2="210.9" y2="406.7" style="stroke:#c0c6cf;stroke-width:9.3px;stroke-linecap:round"/><line x1="210.9" y1="406.7" x2="229.5" y2="404.2" style="stroke:#f7f7fa;stroke-width:9.3px;stroke-linecap:round"/></g>
<g class="bond ghost"><line x1="171.0" y1="326.4" x2="169.6" y2="361.3" style="stroke:#3B424C;stroke-width:10.9px;stroke-linecap:round"/><line x1="171.0" y1="326.4" x2="170.3" y2="343.9" style="stroke:#c0c6cf;stroke-width:9.3px;stroke-linecap:round"/><line x1="170.3" y1="343.9" x2="169.6" y2="361.3" style="stroke:#c0c6cf;stroke-width:9.3px;stroke-linecap:round"/></g>
<circle class="ball ghost" cx="229.5" cy="404.2" r="10.5" fill="url(#sgglossyf5f6f9)" style="stroke:#3B424C;stroke-width:0.8px"/>
<g class="bond ghost"><line x1="192.3" y1="409.3" x2="173.7" y2="426.6" style="stroke:#3B424C;stroke-width:10.9px;stroke-linecap:round"/><line x1="192.3" y1="409.3" x2="183.0" y2="418.0" style="stroke:#c0c6cf;stroke-width:9.3px;stroke-linecap:round"/><line x1="183.0" y1="418.0" x2="173.7" y2="426.6" style="stroke:#f7f7fa;stroke-width:9.3px;stroke-linecap:round"/></g>
<circle class="ball ghost" cx="157.5" cy="291.9" r="10.5" fill="url(#sgglossyf5f6f9)" style="stroke:#3B424C;stroke-width:0.8px"/>
<circle class="ball" cx="332.7" cy="169.1" r="10.5" fill="url(#sgglossyf5f6f9)" style="stroke:#3B424C;stroke-width:0.8px"/>
<circle class="ball ghost" cx="259.8" cy="266.5" r="21.3" fill="url(#sgglossyd09264)" style="stroke:#3B424C;stroke-width:0.8px"/>
<g class="bond ghost"><line x1="171.0" y1="326.4" x2="157.5" y2="291.9" style="stroke:#3B424C;stroke-width:10.9px;stroke-linecap:round"/><line x1="171.0" y1="326.4" x2="164.3" y2="309.1" style="stroke:#c0c6cf;stroke-width:9.3px;stroke-linecap:round"/><line x1="164.3" y1="309.1" x2="157.5" y2="291.9" style="stroke:#f7f7fa;stroke-width:9.3px;stroke-linecap:round"/></g>
<circle class="ball ghost" cx="173.7" cy="426.6" r="10.5" fill="url(#sgglossyf5f6f9)" style="stroke:#3B424C;stroke-width:0.8px"/>
<circle class="ball ghost" cx="171.0" cy="326.4" r="15.3" fill="url(#sgglossyb5bcc6)" style="stroke:#3B424C;stroke-width:0.8px"/>
<g class="bond ghost"><line x1="259.8" y1="266.5" x2="219.6" y2="319.6" style="stroke:#3B424C;stroke-width:10.9px;stroke-linecap:round" stroke-dasharray="8.4 7.0"/><line x1="259.8" y1="266.5" x2="239.7" y2="293.0" style="stroke:#d7a27b;stroke-width:9.3px;stroke-linecap:round" stroke-dasharray="8.4 7.0"/><line x1="239.7" y1="293.0" x2="219.6" y2="319.6" style="stroke:#7b91d8;stroke-width:9.3px;stroke-linecap:round" stroke-dasharray="8.4 7.0"/></g>
<circle class="ball ghost" cx="362.8" cy="248.8" r="10.5" fill="url(#sgglossyf5f6f9)" style="stroke:#3B424C;stroke-width:0.8px"/>
<g class="bond"><line x1="319.9" y1="166.6" x2="332.7" y2="169.1" style="stroke:#3B424C;stroke-width:10.9px;stroke-linecap:round"/><line x1="319.9" y1="166.6" x2="326.3" y2="167.8" style="stroke:#c0c6cf;stroke-width:9.3px;stroke-linecap:round"/><line x1="326.3" y1="167.8" x2="332.7" y2="169.1" style="stroke:#f7f7fa;stroke-width:9.3px;stroke-linecap:round"/></g>
<g class="bond ghost"><line x1="219.6" y1="319.6" x2="171.0" y2="326.4" style="stroke:#3B424C;stroke-width:10.9px;stroke-linecap:round"/><line x1="219.6" y1="319.6" x2="195.3" y2="323.0" style="stroke:#7b91d8;stroke-width:9.3px;stroke-linecap:round"/><line x1="195.3" y1="323.0" x2="171.0" y2="326.4" style="stroke:#c0c6cf;stroke-width:9.3px;stroke-linecap:round"/></g>
<circle class="ball ghost" cx="219.6" cy="319.6" r="14.8" fill="url(#sgglossy647dd1)" style="stroke:#3B424C;stroke-width:0.8px"/>
<g class="bond ghost"><line x1="259.8" y1="266.5" x2="304.6" y2="268.8" style="stroke:#3B424C;stroke-width:10.9px;stroke-linecap:round" stroke-dasharray="8.4 7.0"/><line x1="259.8" y1="266.5" x2="282.2" y2="267.7" style="stroke:#d7a27b;stroke-width:9.3px;stroke-linecap:round" stroke-dasharray="8.4 7.0"/><line x1="282.2" y1="267.7" x2="304.6" y2="268.8" style="stroke:#7b91d8;stroke-width:9.3px;stroke-linecap:round" stroke-dasharray="8.4 7.0"/></g>
<circle class="ball" cx="416.9" cy="179.5" r="10.5" fill="url(#sgglossyf5f6f9)" style="stroke:#3B424C;stroke-width:0.8px"/>
<g class="bond ghost"><line x1="144.4" y1="343.2" x2="171.0" y2="326.4" style="stroke:#3B424C;stroke-width:10.9px;stroke-linecap:round"/><line x1="144.4" y1="343.2" x2="157.7" y2="334.8" style="stroke:#c0c6cf;stroke-width:9.3px;stroke-linecap:round"/><line x1="157.7" y1="334.8" x2="171.0" y2="326.4" style="stroke:#c0c6cf;stroke-width:9.3px;stroke-linecap:round"/></g>
<g class="bond ghost"><line x1="352.0" y1="247.9" x2="362.8" y2="248.8" style="stroke:#3B424C;stroke-width:10.9px;stroke-linecap:round"/><line x1="352.0" y1="247.9" x2="357.4" y2="248.3" style="stroke:#c0c6cf;stroke-width:9.3px;stroke-linecap:round"/><line x1="357.4" y1="248.3" x2="362.8" y2="248.8" style="stroke:#f7f7fa;stroke-width:9.3px;stroke-linecap:round"/></g>
<circle class="ball" cx="319.9" cy="166.6" r="15.3" fill="url(#sgglossyb5bcc6)" style="stroke:#3B424C;stroke-width:0.8px"/>
<g class="bond"><line x1="319.9" y1="166.6" x2="283.6" y2="180.5" style="stroke:#3B424C;stroke-width:10.9px;stroke-linecap:round"/><line x1="319.9" y1="166.6" x2="301.8" y2="173.5" style="stroke:#c0c6cf;stroke-width:9.3px;stroke-linecap:round"/><line x1="301.8" y1="173.5" x2="283.6" y2="180.5" style="stroke:#f7f7fa;stroke-width:9.3px;stroke-linecap:round"/></g>
<circle class="ball" cx="283.6" cy="180.5" r="10.5" fill="url(#sgglossyf5f6f9)" style="stroke:#3B424C;stroke-width:0.8px"/>
<g class="bond"><line x1="319.9" y1="166.6" x2="319.2" y2="129.2" style="stroke:#3B424C;stroke-width:10.9px;stroke-linecap:round"/><line x1="319.9" y1="166.6" x2="319.5" y2="147.9" style="stroke:#c0c6cf;stroke-width:9.3px;stroke-linecap:round"/><line x1="319.5" y1="147.9" x2="319.2" y2="129.2" style="stroke:#f7f7fa;stroke-width:9.3px;stroke-linecap:round"/></g>
<circle class="ball" cx="319.2" cy="129.2" r="10.5" fill="url(#sgglossyf5f6f9)" style="stroke:#3B424C;stroke-width:0.8px"/>
<g class="bond"><line x1="403.0" y1="175.3" x2="416.9" y2="179.5" style="stroke:#3B424C;stroke-width:10.9px;stroke-linecap:round"/><line x1="403.0" y1="175.3" x2="409.9" y2="177.4" style="stroke:#c0c6cf;stroke-width:9.3px;stroke-linecap:round"/><line x1="409.9" y1="177.4" x2="416.9" y2="179.5" style="stroke:#f7f7fa;stroke-width:9.3px;stroke-linecap:round"/></g>
<g class="bond ghost"><line x1="219.6" y1="319.6" x2="221.7" y2="331.5" style="stroke:#3B424C;stroke-width:10.9px;stroke-linecap:round"/><line x1="219.6" y1="319.6" x2="220.7" y2="325.5" style="stroke:#7b91d8;stroke-width:9.3px;stroke-linecap:round"/><line x1="220.7" y1="325.5" x2="221.7" y2="331.5" style="stroke:#c0c6cf;stroke-width:9.3px;stroke-linecap:round"/></g>
<circle class="ball ghost" cx="128.1" cy="378.4" r="10.5" fill="url(#sgglossyf5f6f9)" style="stroke:#3B424C;stroke-width:0.8px"/>
<g class="bond"><line x1="352.0" y1="195.0" x2="319.9" y2="166.6" style="stroke:#3B424C;stroke-width:10.9px;stroke-linecap:round"/><line x1="352.0" y1="195.0" x2="336.0" y2="180.8" style="stroke:#c0c6cf;stroke-width:9.3px;stroke-linecap:round"/><line x1="336.0" y1="180.8" x2="319.9" y2="166.6" style="stroke:#c0c6cf;stroke-width:9.3px;stroke-linecap:round"/></g>
<circle class="ball" cx="352.0" cy="247.9" r="15.3" fill="url(#sgglossyb5bcc6)" style="stroke:#3B424C;stroke-width:0.8px"/>
<g class="bond ghost"><line x1="144.4" y1="343.2" x2="128.1" y2="378.4" style="stroke:#3B424C;stroke-width:10.9px;stroke-linecap:round"/><line x1="144.4" y1="343.2" x2="136.3" y2="360.8" style="stroke:#c0c6cf;stroke-width:9.3px;stroke-linecap:round"/><line x1="136.3" y1="360.8" x2="128.1" y2="378.4" style="stroke:#f7f7fa;stroke-width:9.3px;stroke-linecap:round"/></g>
<g class="bond ghost"><line x1="304.6" y1="268.8" x2="352.0" y2="247.9" style="stroke:#3B424C;stroke-width:10.9px;stroke-linecap:round"/><line x1="304.6" y1="268.8" x2="328.3" y2="258.4" style="stroke:#7b91d8;stroke-width:9.3px;stroke-linecap:round"/><line x1="328.3" y1="258.4" x2="352.0" y2="247.9" style="stroke:#c0c6cf;stroke-width:9.3px;stroke-linecap:round"/></g>
<circle class="ball ghost" cx="144.4" cy="343.2" r="15.3" fill="url(#sgglossyb5bcc6)" style="stroke:#3B424C;stroke-width:0.8px"/>
<circle class="ball ghost" cx="304.6" cy="268.8" r="14.8" fill="url(#sgglossy647dd1)" style="stroke:#3B424C;stroke-width:0.8px"/>
<g class="bond"><line x1="352.0" y1="247.9" x2="352.0" y2="195.0" style="stroke:#3B424C;stroke-width:10.9px;stroke-linecap:round"/><line x1="352.0" y1="247.9" x2="352.0" y2="221.4" style="stroke:#c0c6cf;stroke-width:9.3px;stroke-linecap:round"/><line x1="352.0" y1="221.4" x2="352.0" y2="195.0" style="stroke:#c0c6cf;stroke-width:9.3px;stroke-linecap:round"/></g>
<g class="bond ghost"><line x1="144.4" y1="343.2" x2="117.4" y2="317.6" style="stroke:#3B424C;stroke-width:10.9px;stroke-linecap:round"/><line x1="144.4" y1="343.2" x2="130.9" y2="330.4" style="stroke:#c0c6cf;stroke-width:9.3px;stroke-linecap:round"/><line x1="130.9" y1="330.4" x2="117.4" y2="317.6" style="stroke:#f7f7fa;stroke-width:9.3px;stroke-linecap:round"/></g>
<circle class="ball ghost" cx="409.3" cy="301.6" r="10.5" fill="url(#sgglossyf5f6f9)" style="stroke:#3B424C;stroke-width:0.8px"/>
<circle class="ball" cx="403.0" cy="175.3" r="15.3" fill="url(#sgglossyb5bcc6)" style="stroke:#3B424C;stroke-width:0.8px"/>
<circle class="ball ghost" cx="117.4" cy="317.6" r="10.5" fill="url(#sgglossyf5f6f9)" style="stroke:#3B424C;stroke-width:0.8px"/>
<g class="bond"><line x1="352.0" y1="195.0" x2="403.0" y2="175.3" style="stroke:#3B424C;stroke-width:10.9px;stroke-linecap:round"/><line x1="352.0" y1="195.0" x2="377.5" y2="185.2" style="stroke:#c0c6cf;stroke-width:9.3px;stroke-linecap:round"/><line x1="377.5" y1="185.2" x2="403.0" y2="175.3" style="stroke:#c0c6cf;stroke-width:9.3px;stroke-linecap:round"/></g>
<circle class="ball ghost" cx="289.2" cy="400.2" r="10.5" fill="url(#sgglossyf5f6f9)" style="stroke:#3B424C;stroke-width:0.8px"/>
<g class="bond ghost"><line x1="352.0" y1="247.9" x2="382.8" y2="282.4" style="stroke:#3B424C;stroke-width:10.9px;stroke-linecap:round"/><line x1="352.0" y1="247.9" x2="367.4" y2="265.1" style="stroke:#c0c6cf;stroke-width:9.3px;stroke-linecap:round"/><line x1="367.4" y1="265.1" x2="382.8" y2="282.4" style="stroke:#b6bdc6;stroke-width:9.3px;stroke-linecap:round"/></g>
<circle class="ball" cx="352.0" cy="195.0" r="15.3" fill="url(#sgglossyb5bcc6)" style="stroke:#3B424C;stroke-width:0.8px"/>
<g class="bond"><line x1="403.0" y1="175.3" x2="402.9" y2="137.5" style="stroke:#3B424C;stroke-width:10.9px;stroke-linecap:round"/><line x1="403.0" y1="175.3" x2="402.9" y2="156.4" style="stroke:#c0c6cf;stroke-width:9.3px;stroke-linecap:round"/><line x1="402.9" y1="156.4" x2="402.9" y2="137.5" style="stroke:#f7f7fa;stroke-width:9.3px;stroke-linecap:round"/></g>
<g class="bond ghost"><line x1="304.6" y1="268.8" x2="306.4" y2="305.0" style="stroke:#3B424C;stroke-width:10.9px;stroke-linecap:round"/><line x1="304.6" y1="268.8" x2="305.5" y2="286.9" style="stroke:#7b91d8;stroke-width:9.3px;stroke-linecap:round"/><line x1="305.5" y1="286.9" x2="306.4" y2="305.0" style="stroke:#b6bdc6;stroke-width:9.3px;stroke-linecap:round"/></g>
<circle class="ball ghost" cx="221.7" cy="331.5" r="15.3" fill="url(#sgglossyb5bcc6)" style="stroke:#3B424C;stroke-width:0.8px"/>
<g class="bond ghost"><line x1="382.8" y1="282.4" x2="409.3" y2="301.6" style="stroke:#3B424C;stroke-width:10.9px;stroke-linecap:round"/><line x1="382.8" y1="282.4" x2="396.0" y2="292.0" style="stroke:#b6bdc6;stroke-width:9.3px;stroke-linecap:round"/><line x1="396.0" y1="292.0" x2="409.3" y2="301.6" style="stroke:#f7f7fa;stroke-width:9.3px;stroke-linecap:round"/></g>
<g class="bond ghost"><line x1="180.7" y1="346.1" x2="144.4" y2="343.2" style="stroke:#3B424C;stroke-width:10.9px;stroke-linecap:round"/><line x1="180.7" y1="346.1" x2="162.6" y2="344.6" style="stroke:#d6655d;stroke-width:9.3px;stroke-linecap:round"/><line x1="162.6" y1="344.6" x2="144.4" y2="343.2" style="stroke:#c0c6cf;stroke-width:9.3px;stroke-linecap:round"/></g>
<circle class="ball" cx="402.9" cy="137.5" r="10.5" fill="url(#sgglossyf5f6f9)" style="stroke:#3B424C;stroke-width:0.8px"/>
<g class="bond"><line x1="403.0" y1="175.3" x2="427.0" y2="193.4" style="stroke:#3B424C;stroke-width:10.9px;stroke-linecap:round"/><line x1="403.0" y1="175.3" x2="415.0" y2="184.4" style="stroke:#c0c6cf;stroke-width:9.3px;stroke-linecap:round"/><line x1="415.0" y1="184.4" x2="427.0" y2="193.4" style="stroke:#f5f7f9;stroke-width:9.3px;stroke-linecap:round"/></g>
<g class="bond ghost"><line x1="221.7" y1="331.5" x2="180.7" y2="346.1" style="stroke:#3B424C;stroke-width:10.9px;stroke-linecap:round"/><line x1="221.7" y1="331.5" x2="201.2" y2="338.8" style="stroke:#c0c6cf;stroke-width:9.3px;stroke-linecap:round"/><line x1="201.2" y1="338.8" x2="180.7" y2="346.1" style="stroke:#d6655d;stroke-width:9.3px;stroke-linecap:round"/></g>
<circle class="ball ghost" cx="382.8" cy="282.4" r="15.3" fill="url(#sgglossyA9B1BC)" style="stroke:#3B424C;stroke-width:0.8px"/>
<circle class="ball ghost" cx="306.4" cy="305.0" r="15.3" fill="url(#sgglossyA9B1BC)" style="stroke:#3B424C;stroke-width:0.8px"/>
<g class="bond ghost"><line x1="280.3" y1="387.6" x2="289.2" y2="400.2" style="stroke:#3B424C;stroke-width:10.9px;stroke-linecap:round"/><line x1="280.3" y1="387.6" x2="284.7" y2="393.9" style="stroke:#b6bdc6;stroke-width:9.3px;stroke-linecap:round"/><line x1="284.7" y1="393.9" x2="289.2" y2="400.2" style="stroke:#f7f7fa;stroke-width:9.3px;stroke-linecap:round"/></g>
<g class="bond ghost"><line x1="265.4" y1="334.7" x2="221.7" y2="331.5" style="stroke:#3B424C;stroke-width:10.9px;stroke-linecap:round"/><line x1="265.4" y1="334.7" x2="243.6" y2="333.1" style="stroke:#b6bdc6;stroke-width:9.3px;stroke-linecap:round"/><line x1="243.6" y1="333.1" x2="221.7" y2="331.5" style="stroke:#c0c6cf;stroke-width:9.3px;stroke-linecap:round"/></g>
<circle class="ball" cx="427.0" cy="193.4" r="10.5" fill="url(#sgglossyF3F5F8)" style="stroke:#3B424C;stroke-width:0.8px"/>
<circle class="ball ghost" cx="180.7" cy="346.1" r="14.2" fill="url(#sgglossyCF4A40)" style="stroke:#3B424C;stroke-width:0.8px"/>
<g class="bond ghost"><line x1="382.8" y1="282.4" x2="349.5" y2="316.1" style="stroke:#3B424C;stroke-width:10.9px;stroke-linecap:round"/><line x1="382.8" y1="282.4" x2="366.2" y2="299.2" style="stroke:#b6bdc6;stroke-width:9.3px;stroke-linecap:round"/><line x1="366.2" y1="299.2" x2="349.5" y2="316.1" style="stroke:#d6655d;stroke-width:9.3px;stroke-linecap:round"/></g>
<g class="bond ghost"><line x1="265.4" y1="334.7" x2="306.4" y2="305.0" style="stroke:#3B424C;stroke-width:10.9px;stroke-linecap:round"/><line x1="265.4" y1="334.7" x2="285.9" y2="319.8" style="stroke:#b6bdc6;stroke-width:9.3px;stroke-linecap:round"/><line x1="285.9" y1="319.8" x2="306.4" y2="305.0" style="stroke:#b6bdc6;stroke-width:9.3px;stroke-linecap:round"/></g>
<g class="bond ghost"><line x1="306.4" y1="305.0" x2="349.5" y2="316.1" style="stroke:#3B424C;stroke-width:10.9px;stroke-linecap:round"/><line x1="306.4" y1="305.0" x2="328.0" y2="310.5" style="stroke:#b6bdc6;stroke-width:9.3px;stroke-linecap:round"/><line x1="328.0" y1="310.5" x2="349.5" y2="316.1" style="stroke:#d6655d;stroke-width:9.3px;stroke-linecap:round"/></g>
<g class="bond"><line x1="352.0" y1="195.0" x2="332.9" y2="190.2" style="stroke:#3B424C;stroke-width:10.9px;stroke-linecap:round"/><line x1="352.0" y1="195.0" x2="342.5" y2="192.6" style="stroke:#c0c6cf;stroke-width:9.3px;stroke-linecap:round"/><line x1="342.5" y1="192.6" x2="332.9" y2="190.2" style="stroke:#b6bdc6;stroke-width:9.3px;stroke-linecap:round"/></g>
<g class="bond ghost"><line x1="382.8" y1="282.4" x2="400.6" y2="265.0" style="stroke:#3B424C;stroke-width:10.9px;stroke-linecap:round"/><line x1="382.8" y1="282.4" x2="391.7" y2="273.7" style="stroke:#b6bdc6;stroke-width:9.3px;stroke-linecap:round"/><line x1="391.7" y1="273.7" x2="400.6" y2="265.0" style="stroke:#f5f7f9;stroke-width:9.3px;stroke-linecap:round"/></g>
<circle class="ball ghost" cx="265.4" cy="334.7" r="15.3" fill="url(#sgglossyA9B1BC)" style="stroke:#3B424C;stroke-width:0.8px"/>
<circle class="ball ghost" cx="349.5" cy="316.1" r="14.2" fill="url(#sgglossyCF4A40)" style="stroke:#3B424C;stroke-width:0.8px"/>
<g class="bond ghost"><line x1="265.4" y1="334.7" x2="280.3" y2="387.6" style="stroke:#3B424C;stroke-width:10.9px;stroke-linecap:round"/><line x1="265.4" y1="334.7" x2="272.8" y2="361.1" style="stroke:#b6bdc6;stroke-width:9.3px;stroke-linecap:round"/><line x1="272.8" y1="361.1" x2="280.3" y2="387.6" style="stroke:#b6bdc6;stroke-width:9.3px;stroke-linecap:round"/></g>
<circle class="ball ghost" cx="280.3" cy="387.6" r="15.3" fill="url(#sgglossyA9B1BC)" style="stroke:#3B424C;stroke-width:0.8px"/>
<g class="bond ghost"><line x1="280.3" y1="387.6" x2="251.0" y2="408.9" style="stroke:#3B424C;stroke-width:10.9px;stroke-linecap:round"/><line x1="280.3" y1="387.6" x2="265.6" y2="398.3" style="stroke:#b6bdc6;stroke-width:9.3px;stroke-linecap:round"/><line x1="265.6" y1="398.3" x2="251.0" y2="408.9" style="stroke:#f5f7f9;stroke-width:9.3px;stroke-linecap:round"/></g>
<circle class="ball ghost" cx="400.6" cy="265.0" r="10.5" fill="url(#sgglossyF3F5F8)" style="stroke:#3B424C;stroke-width:0.8px"/>
<g class="bond ghost"><line x1="280.3" y1="387.6" x2="311.3" y2="391.8" style="stroke:#3B424C;stroke-width:10.9px;stroke-linecap:round"/><line x1="280.3" y1="387.6" x2="295.8" y2="389.7" style="stroke:#b6bdc6;stroke-width:9.3px;stroke-linecap:round"/><line x1="295.8" y1="389.7" x2="311.3" y2="391.8" style="stroke:#f5f7f9;stroke-width:9.3px;stroke-linecap:round"/></g>
<circle class="ball ghost" cx="251.0" cy="408.9" r="10.5" fill="url(#sgglossyF3F5F8)" style="stroke:#3B424C;stroke-width:0.8px"/>
<circle class="ball" cx="332.9" cy="190.2" r="15.3" fill="url(#sgglossyA9B1BC)" style="stroke:#3B424C;stroke-width:0.8px"/>
<g class="bond"><line x1="332.9" y1="190.2" x2="296.4" y2="203.4" style="stroke:#3B424C;stroke-width:10.9px;stroke-linecap:round"/><line x1="332.9" y1="190.2" x2="314.6" y2="196.8" style="stroke:#b6bdc6;stroke-width:9.3px;stroke-linecap:round"/><line x1="314.6" y1="196.8" x2="296.4" y2="203.4" style="stroke:#f5f7f9;stroke-width:9.3px;stroke-linecap:round"/></g>
<circle class="ball" cx="296.4" cy="203.4" r="10.5" fill="url(#sgglossyF3F5F8)" style="stroke:#3B424C;stroke-width:0.8px"/>
<g class="bond"><line x1="332.9" y1="190.2" x2="332.9" y2="152.8" style="stroke:#3B424C;stroke-width:10.9px;stroke-linecap:round"/><line x1="332.9" y1="190.2" x2="332.9" y2="171.5" style="stroke:#b6bdc6;stroke-width:9.3px;stroke-linecap:round"/><line x1="332.9" y1="171.5" x2="332.9" y2="152.8" style="stroke:#f5f7f9;stroke-width:9.3px;stroke-linecap:round"/></g>
<circle class="ball ghost" cx="311.3" cy="391.8" r="10.5" fill="url(#sgglossyF3F5F8)" style="stroke:#3B424C;stroke-width:0.8px"/>
<g class="bond ghost"><line x1="253.4" y1="316.9" x2="265.4" y2="334.7" style="stroke:#3B424C;stroke-width:10.9px;stroke-linecap:round"/><line x1="253.4" y1="316.9" x2="259.4" y2="325.8" style="stroke:#b6bdc6;stroke-width:9.3px;stroke-linecap:round"/><line x1="259.4" y1="325.8" x2="265.4" y2="334.7" style="stroke:#b6bdc6;stroke-width:9.3px;stroke-linecap:round"/></g>
<circle class="ball" cx="332.9" cy="152.8" r="10.5" fill="url(#sgglossyF3F5F8)" style="stroke:#3B424C;stroke-width:0.8px"/>
<g class="bond"><line x1="332.9" y1="190.2" x2="354.5" y2="209.9" style="stroke:#3B424C;stroke-width:10.9px;stroke-linecap:round"/><line x1="332.9" y1="190.2" x2="343.7" y2="200.1" style="stroke:#b6bdc6;stroke-width:9.3px;stroke-linecap:round"/><line x1="343.7" y1="200.1" x2="354.5" y2="209.9" style="stroke:#f5f7f9;stroke-width:9.3px;stroke-linecap:round"/></g>
<circle class="ball" cx="354.5" cy="209.9" r="10.5" fill="url(#sgglossyF3F5F8)" style="stroke:#3B424C;stroke-width:0.8px"/>
<circle class="ball ghost" cx="242.4" cy="279.6" r="10.5" fill="url(#sgglossyF3F5F8)" style="stroke:#3B424C;stroke-width:0.8px"/>
<g class="bond ghost"><line x1="253.4" y1="316.9" x2="242.4" y2="279.6" style="stroke:#3B424C;stroke-width:10.9px;stroke-linecap:round"/><line x1="253.4" y1="316.9" x2="247.9" y2="298.3" style="stroke:#b6bdc6;stroke-width:9.3px;stroke-linecap:round"/><line x1="247.9" y1="298.3" x2="242.4" y2="279.6" style="stroke:#f5f7f9;stroke-width:9.3px;stroke-linecap:round"/></g>
<circle class="ball ghost" cx="253.4" cy="316.9" r="15.3" fill="url(#sgglossyA9B1BC)" style="stroke:#3B424C;stroke-width:0.8px"/>
<g class="bond ghost"><line x1="253.4" y1="316.9" x2="224.4" y2="338.1" style="stroke:#3B424C;stroke-width:10.9px;stroke-linecap:round"/><line x1="253.4" y1="316.9" x2="238.9" y2="327.5" style="stroke:#b6bdc6;stroke-width:9.3px;stroke-linecap:round"/><line x1="238.9" y1="327.5" x2="224.4" y2="338.1" style="stroke:#f5f7f9;stroke-width:9.3px;stroke-linecap:round"/></g>
<g class="bond ghost"><line x1="253.4" y1="316.9" x2="284.7" y2="320.2" style="stroke:#3B424C;stroke-width:10.9px;stroke-linecap:round"/><line x1="253.4" y1="316.9" x2="269.0" y2="318.6" style="stroke:#b6bdc6;stroke-width:9.3px;stroke-linecap:round"/><line x1="269.0" y1="318.6" x2="284.7" y2="320.2" style="stroke:#f5f7f9;stroke-width:9.3px;stroke-linecap:round"/></g>
<circle class="ball ghost" cx="224.4" cy="338.1" r="10.5" fill="url(#sgglossyF3F5F8)" style="stroke:#3B424C;stroke-width:0.8px"/>
<circle class="ball ghost" cx="284.7" cy="320.2" r="10.5" fill="url(#sgglossyF3F5F8)" style="stroke:#3B424C;stroke-width:0.8px"/>
</g>
<circle class="sx-touch" cx="354.5" cy="209.9" r="13.5" stroke="#6C4AB6"/>
<circle class="sx-touch" cx="427.0" cy="193.4" r="13.5" stroke="#6C4AB6"/>
<line class="sx-axis behind" x1="352.0" y1="247.9" x2="352.0" y2="230.0" stroke="#1596A6"/><line class="sx-axis" x1="352.0" y1="230.0" x2="352.0" y2="216.7" stroke="#1596A6"/><line class="sx-axis behind" x1="352.0" y1="216.7" x2="352.0" y2="176.5" stroke="#1596A6"/><line class="sx-axis" x1="352.0" y1="176.5" x2="352.0" y2="105.0" stroke="#1596A6" marker-end="url(#mk1596A6)"/>
<path class="sx-wedge" d="M352.0,247.9 L379.2,197.1 L380.0,197.4 L380.8,197.7 L381.5,198.0 L382.2,198.4 L382.9,198.8 L383.6,199.2 L384.3,199.7 L385.0,200.1 L385.6,200.6 L386.3,201.1 L386.9,201.6 L387.5,202.2 L388.1,202.7 L388.6,203.3 L389.2,203.9 L389.7,204.6 L390.2,205.2 L390.7,205.9 L391.2,206.6 L391.7,207.3 L392.1,208.0 L392.6,208.8 L393.0,209.5 L393.4,210.3 L393.7,211.1 L394.1,211.9 L394.4,212.8 L394.7,213.6 L395.0,214.5 L395.3,215.4 L395.5,216.3 Z" fill="#3450A8"/>
<path class="sx-arc" d="M379.2,197.1 L380.0,197.4 L380.8,197.7 L381.5,198.0 L382.2,198.4 L382.9,198.8 L383.6,199.2 L384.3,199.7 L385.0,200.1 L385.6,200.6 L386.3,201.1 L386.9,201.6 L387.5,202.2 L388.1,202.7 L388.6,203.3 L389.2,203.9 L389.7,204.6 L390.2,205.2 L390.7,205.9 L391.2,206.6 L391.7,207.3 L392.1,208.0 L392.6,208.8 L393.0,209.5 L393.4,210.3 L393.7,211.1 L394.1,211.9 L394.4,212.8 L394.7,213.6 L395.0,214.5 L395.3,215.4 L395.5,216.3" stroke="#3450A8"/>
<line class="sx-shadow behind" x1="352.0" y1="247.9" x2="360.1" y2="232.8" stroke="#3450A8"/><line class="sx-shadow" x1="360.1" y1="232.8" x2="388.9" y2="179.1" stroke="#3450A8"/>
<line class="sx-perp behind" x1="388.9" y1="179.1" x2="411.5" y2="187.6" stroke="#3450A8"/><line class="sx-perp" x1="411.5" y1="187.6" x2="417.5" y2="189.8" stroke="#3450A8"/><line class="sx-perp behind" x1="417.5" y1="189.8" x2="427.0" y2="193.4" stroke="#3450A8"/>
<path class="sx-right" d="M383.8,188.5 L390.4,190.9 L395.5,181.6" stroke="#434C59"/>
<line class="sx-v dash behind" x1="352.0" y1="247.9" x2="363.7" y2="239.4" stroke="#C9352B"/><line class="sx-v dash" x1="363.7" y1="239.4" x2="420.0" y2="198.5" stroke="#C9352B"/><line class="sx-v dash behind" x1="420.0" y1="198.5" x2="427.0" y2="193.4" stroke="#C9352B" marker-end="url(#mkC9352B)"/>
<circle class="sx-ring" cx="427.0" cy="193.4" r="13.5" stroke="#C9352B"/>
<circle cx="352.0" cy="247.9" r="2.4" fill="#3450A8"/>
<line class="sx-b1 behind" x1="352.0" y1="187.2" x2="359.6" y2="190.1" stroke="#6C4AB6"/><line class="sx-b1" x1="359.6" y1="190.1" x2="412.6" y2="209.9" stroke="#6C4AB6" marker-end="url(#mk6C4AB6)"/>
<line class="sx-locline behind" x1="388.9" y1="179.1" x2="387.7" y2="179.4" stroke="#8A6A00"/><line class="sx-locline" x1="387.7" y1="179.4" x2="362.4" y2="185.1" stroke="#8A6A00"/><line class="sx-locline behind" x1="362.4" y1="185.1" x2="352.0" y2="187.5" stroke="#8A6A00"/>
<line class="sx-tickhalo" x1="344.5" y1="187.5" x2="359.5" y2="187.5" stroke="#FFFFFF"/>
<line class="sx-loctick" x1="344.5" y1="187.5" x2="359.5" y2="187.5" stroke="#C99A00"/>
<line class="sx-b5 behind" x1="352.0" y1="187.5" x2="365.7" y2="188.6" stroke="#C9352B"/><line class="sx-b5" x1="365.7" y1="188.6" x2="417.1" y2="192.6" stroke="#C9352B"/><line class="sx-b5 behind" x1="417.1" y1="192.6" x2="437.6" y2="194.2" stroke="#C9352B"/><line class="sx-b5" x1="437.6" y1="194.2" x2="461.6" y2="196.1" stroke="#C9352B" marker-end="url(#mkC9352B)"/>
<line class="leader" x1="400.7" y1="221.6" x2="389.7" y2="204.6" stroke="#3450A8"/><text class="th" data-lab="th||1" x="404.7" y="234.6" text-anchor="start" font-size="13.0" fill="#3450A8">&#952; 38.3&#176;</text>
<line class="leader" x1="334.0" y1="217.6" x2="352.0" y2="187.5" stroke="#8A6A00"/><text class="lab" data-lab="lab|locB5|1" x="330.0" y="229.6" text-anchor="end" font-size="12.0" fill="#8A6A00">loc B<tspan dy="2.6" font-size="0.75em">5</tspan><tspan dy="-2.6"> 1.77 &#8491;</tspan></text>
<line class="leader" x1="438.6" y1="209.9" x2="412.6" y2="209.9" stroke="#6C4AB6"/><text class="lab" data-lab="lab|B1|1" x="442.6" y="213.9" text-anchor="start" font-size="12.0" fill="#6C4AB6">B<tspan dy="2.6" font-size="0.75em">1</tspan><tspan dy="-2.6"> 2.75 &#8491;</tspan></text>
<text class="lab" data-lab="lab|B5|1" x="487.6" y="182.1" text-anchor="middle" font-size="12.0" fill="#C9352B">B<tspan dy="2.6" font-size="0.75em">5</tspan><tspan dy="-2.6"> 3.17 &#8491;</tspan></text>
<text class="vl" data-lab="vl|v|1" x="391.5" y="208.4" text-anchor="middle" font-size="11.5" fill="#C9352B">v</text>
<text class="lab" data-lab="lab|L|1" x="352.0" y="93.0" text-anchor="middle" font-size="12.0" fill="#1F2937">L 4.18 &#8491;</text>
<text class="mark" data-lab="mark|B1plane|1" x="390.5" y="254.8" text-anchor="middle" font-size="9.0" fill="#6C4AB6">B<tspan dy="2.6" font-size="0.75em">1</tspan><tspan dy="-2.6"> plane</tspan></text>
<text class="mark" data-lab="mark|B1throughtheaxis|1" x="370.4" y="268.9" text-anchor="middle" font-size="9.0" fill="#3450A8">&#8741; B<tspan dy="2.6" font-size="0.75em">1</tspan><tspan dy="-2.6">, through the axis</tspan></text>
<circle cx="626" cy="466.1" r="3.6" fill="#1596A6"/>
<text class="key" x="618" y="469.6" text-anchor="end" font-size="10.5" fill="#374151">8-12  B<tspan dy="2.6" font-size="0.75em">1</tspan><tspan dy="-2.6"> 2.75</tspan> · B<tspan dy="2.6" font-size="0.75em">5</tspan><tspan dy="-2.6"> 3.17</tspan> · L 4.18 · loc B<tspan dy="2.6" font-size="0.75em">5</tspan><tspan dy="-2.6"> 1.77</tspan> · &#952; 38.3&#176;</text>
<rect class="ins-box" x="498.0" y="34.0" width="132" height="132" rx="3"/>
<circle cx="564.0" cy="100.0" r="54.7" fill="none" stroke="#C9352B" stroke-width=".9" stroke-dasharray="3 4" opacity=".75"/>
<circle cx="564.0" cy="100.0" r="25.9" fill="#D9DFE8" fill-opacity=".35" stroke="#8F99A7" stroke-width="0.5"/>
<circle cx="564.0" cy="100.0" r="25.9" fill="#D9DFE8" fill-opacity=".35" stroke="#8F99A7" stroke-width="0.5"/>
<circle cx="588.7" cy="100.0" r="25.9" fill="#D9DFE8" fill-opacity=".35" stroke="#8F99A7" stroke-width="0.5"/>
<circle cx="550.9" cy="121.2" r="25.9" fill="#D9DFE8" fill-opacity=".35" stroke="#8F99A7" stroke-width="0.5"/>
<circle cx="551.6" cy="78.3" r="25.9" fill="#D9DFE8" fill-opacity=".35" stroke="#8F99A7" stroke-width="0.5"/>
<circle cx="588.3" cy="99.9" r="17.2" fill="#D9DFE8" fill-opacity=".35" stroke="#8F99A7" stroke-width="0.5"/>
<circle cx="598.3" cy="115.2" r="17.2" fill="#D9DFE8" fill-opacity=".35" stroke="#8F99A7" stroke-width="0.5"/>
<circle cx="597.8" cy="84.7" r="17.2" fill="#D9DFE8" fill-opacity=".35" stroke="#8F99A7" stroke-width="0.5"/>
<circle cx="549.7" cy="120.7" r="17.2" fill="#D9DFE8" fill-opacity=".35" stroke="#8F99A7" stroke-width="0.5"/>
<circle cx="533.5" cy="121.4" r="17.2" fill="#D9DFE8" fill-opacity=".35" stroke="#8F99A7" stroke-width="0.5"/>
<circle cx="559.4" cy="137.2" r="17.2" fill="#D9DFE8" fill-opacity=".5" stroke="#C9352B" stroke-width="1.2"/>
<circle cx="551.2" cy="77.7" r="17.2" fill="#D9DFE8" fill-opacity=".35" stroke="#8F99A7" stroke-width="0.5"/>
<circle cx="560.2" cy="62.9" r="17.2" fill="#D9DFE8" fill-opacity=".35" stroke="#8F99A7" stroke-width="0.5"/>
<circle cx="533.9" cy="77.8" r="17.2" fill="#D9DFE8" fill-opacity=".35" stroke="#8F99A7" stroke-width="0.5"/>
<line x1="540.4" y1="168.5" x2="635.1" y2="113.8" stroke="#6C4AB6" stroke-width="1.4" stroke-linecap="round"/>
<circle cx="564.0" cy="100.0" r="1.8" fill="#1F2937"/>
<line x1="564.0" y1="100.0" x2="587.7" y2="141.1" stroke="#6C4AB6" stroke-width="1.3" stroke-linecap="round" opacity=".85"/>
<line x1="564.0" y1="100.0" x2="557.3" y2="154.3" stroke="#C9352B" stroke-width="1.3" stroke-linecap="round" opacity=".85"/>
<line x1="552.4" y1="153.7" x2="562.2" y2="154.9" stroke="#C9352B" stroke-width="1.3" stroke-linecap="round"/>
<text class="mark" x="564.0" y="29.0" text-anchor="middle" font-size="9.0" fill="#1F2937">end-on, 8-12</text>
<text class="mark" x="504.0" y="150.0" font-size="9.0" fill="#6C4AB6">B<tspan dy="2.6" font-size="0.75em">1</tspan><tspan dy="-2.6"> 2.75</tspan></text>
<text class="mark" x="504.0" y="161.0" font-size="9.0" fill="#C9352B">B<tspan dy="2.6" font-size="0.75em">5</tspan><tspan dy="-2.6"> 3.17 &#8491;</tspan></text>
</svg>