<svg class="fig scene" xmlns="http://www.w3.org/2000/svg" viewBox="0 0 640 540" role="img" aria-label="Molecule with descriptor constructions">
<defs><radialGradient id="sgglossyd09264" cx="34%" cy="30%" r="70%"><stop offset="0" stop-color="#FFFFFF"/><stop offset="0.13" stop-color="#ecd3c1"/><stop offset="0.5" stop-color="#d09264"/><stop offset="1" stop-color="#5e422d"/></radialGradient><radialGradient id="sgglossy75ad71" cx="34%" cy="30%" r="70%"><stop offset="0" stop-color="#FFFFFF"/><stop offset="0.13" stop-color="#c8dec6"/><stop offset="0.5" stop-color="#75ad71"/><stop offset="1" stop-color="#354e33"/></radialGradient><radialGradient id="sgglossy647dd1" cx="34%" cy="30%" r="70%"><stop offset="0" stop-color="#FFFFFF"/><stop offset="0.13" stop-color="#c1cbed"/><stop offset="0.5" stop-color="#647dd1"/><stop offset="1" stop-color="#2d385e"/></radialGradient><radialGradient id="sgglossyb5bcc6" cx="34%" cy="30%" r="70%"><stop offset="0" stop-color="#FFFFFF"/><stop offset="0.13" stop-color="#e1e4e8"/><stop offset="0.5" stop-color="#b5bcc6"/><stop offset="1" stop-color="#515559"/></radialGradient><radialGradient id="sgglossyA9B1BC" cx="34%" cy="30%" r="70%"><stop offset="0" stop-color="#FFFFFF"/><stop offset="0.13" stop-color="#dde0e4"/><stop offset="0.5" stop-color="#A9B1BC"/><stop offset="1" stop-color="#4c5055"/></radialGradient><radialGradient id="sgglossyF3F5F8" cx="34%" cy="30%" r="70%"><stop offset="0" stop-color="#FFFFFF"/><stop offset="0.13" stop-color="#fafbfc"/><stop offset="0.5" stop-color="#F3F5F8"/><stop offset="1" stop-color="#6d6e70"/></radialGradient><radialGradient id="sgglossyCF4A40" cx="34%" cy="30%" r="70%"><stop offset="0" stop-color="#FFFFFF"/><stop offset="0.13" stop-color="#ecb7b3"/><stop offset="0.5" stop-color="#CF4A40"/><stop offset="1" stop-color="#5d211d"/></radialGradient><radialGradient id="sgglossyd6645c" cx="34%" cy="30%" r="70%"><stop offset="0" stop-color="#FFFFFF"/><stop offset="0.13" stop-color="#efc1be"/><stop offset="0.5" stop-color="#d6645c"/><stop offset="1" stop-color="#602d29"/></radialGradient><radialGradient id="sgglossyf5f6f9" cx="34%" cy="30%" r="70%"><stop offset="0" stop-color="#FFFFFF"/><stop offset="0.13" stop-color="#fbfbfd"/><stop offset="0.5" stop-color="#f5f6f9"/><stop offset="1" stop-color="#6e6f70"/></radialGradient><radialGradient id="sgglossyf6f8fa" cx="34%" cy="30%" r="70%"><stop offset="0" stop-color="#FFFFFF"/><stop offset="0.13" stop-color="#fbfcfd"/><stop offset="0.5" stop-color="#f6f8fa"/><stop offset="1" stop-color="#6f7071"/></radialGradient><marker id="mk1596A6" viewBox="0 0 10 10" refX="8.5" refY="5" markerWidth="5.2" markerHeight="5.2" orient="auto"><path d="M0,0 L10,5 L0,10 z" fill="#1596A6"/></marker><marker id="mkC9352B" viewBox="0 0 10 10" refX="8.5" refY="5" markerWidth="5.2" markerHeight="5.2" orient="auto"><path d="M0,0 L10,5 L0,10 z" fill="#C9352B"/></marker><marker id="mk6C4AB6" viewBox="0 0 10 10" refX="8.5" refY="5" markerWidth="5.2" markerHeight="5.2" orient="auto"><path d="M0,0 L10,5 L0,10 z" fill="#6C4AB6"/></marker><filter id="softshadow" x="-20%" y="-20%" width="140%" height="140%"><feDropShadow dx="1.4" dy="2.4" stdDeviation="2.3" flood-color="#1B2230" flood-opacity=".22"/></filter></defs>
<path class="sx-ref" d="M274.3,303.1 L312.6,294.4 L312.6,90.6 L274.3,99.4 Z" fill="#3450A8" stroke="#3450A8"/>
<path class="sx-patch" d="M227.4,238.2 L279.7,226.3 L279.7,162.8 L227.4,174.7 Z" fill="#6C4AB6" stroke="#6C4AB6"/>
<g filter="url(#softshadow)">
<circle class="ball ghost" cx="223.2" cy="162.1" r="11.8" fill="url(#sgglossyf6f8fa)" style="stroke:#3B424C;stroke-width:0.8px"/>
<circle class="ball ghost" cx="235.0" cy="260.2" r="11.8" fill="url(#sgglossyf5f6f9)" style="stroke:#3B424C;stroke-width:0.8px"/>
<g class="bond ghost"><line x1="230.0" y1="179.9" x2="223.2" y2="162.1" style="stroke:#3B424C;stroke-width:12.1px;stroke-linecap:round"/><line x1="230.0" y1="179.9" x2="226.6" y2="171.0" style="stroke:#c0c6cf;stroke-width:10.5px;stroke-linecap:round"/><line x1="226.6" y1="171.0" x2="223.2" y2="162.1" style="stroke:#f7f9fb;stroke-width:10.5px;stroke-linecap:round"/></g>
<g class="bond ghost"><line x1="236.6" y1="234.9" x2="235.0" y2="260.2" style="stroke:#3B424C;stroke-width:12.1px;stroke-linecap:round"/><line x1="236.6" y1="234.9" x2="235.8" y2="247.5" style="stroke:#c0c6cf;stroke-width:10.5px;stroke-linecap:round"/><line x1="235.8" y1="247.5" x2="235.0" y2="260.2" style="stroke:#f7f7fa;stroke-width:10.5px;stroke-linecap:round"/></g>
<circle class="ball ghost" cx="230.0" cy="179.9" r="17.2" fill="url(#sgglossyb5bcc6)" style="stroke:#3B424C;stroke-width:0.8px"/>
<g class="bond ghost"><line x1="230.0" y1="179.9" x2="236.6" y2="234.9" style="stroke:#3B424C;stroke-width:12.1px;stroke-linecap:round"/><line x1="230.0" y1="179.9" x2="233.3" y2="207.4" style="stroke:#c0c6cf;stroke-width:10.5px;stroke-linecap:round"/><line x1="233.3" y1="207.4" x2="236.6" y2="234.9" style="stroke:#c0c6cf;stroke-width:10.5px;stroke-linecap:round"/></g>
<circle class="ball ghost" cx="236.6" cy="234.9" r="17.2" fill="url(#sgglossyb5bcc6)" style="stroke:#3B424C;stroke-width:0.8px"/>
<g class="bond ghost"><line x1="232.6" y1="147.6" x2="230.0" y2="179.9" style="stroke:#3B424C;stroke-width:12.1px;stroke-linecap:round"/><line x1="232.6" y1="147.6" x2="231.3" y2="163.7" style="stroke:#c0c6cf;stroke-width:10.5px;stroke-linecap:round"/><line x1="231.3" y1="163.7" x2="230.0" y2="179.9" style="stroke:#c0c6cf;stroke-width:10.5px;stroke-linecap:round"/></g>
<g class="bond ghost"><line x1="236.6" y1="234.9" x2="245.3" y2="257.6" style="stroke:#3B424C;stroke-width:12.1px;stroke-linecap:round"/><line x1="236.6" y1="234.9" x2="240.9" y2="246.2" style="stroke:#c0c6cf;stroke-width:10.5px;stroke-linecap:round"/><line x1="240.9" y1="246.2" x2="245.3" y2="257.6" style="stroke:#c0c6cf;stroke-width:10.5px;stroke-linecap:round"/></g>
<circle class="ball ghost" cx="227.9" cy="104.6" r="11.8" fill="url(#sgglossyf5f6f9)" style="stroke:#3B424C;stroke-width:0.8px"/>
<g class="bond ghost"><line x1="232.6" y1="147.6" x2="227.9" y2="104.6" style="stroke:#3B424C;stroke-width:12.1px;stroke-linecap:round"/><line x1="232.6" y1="147.6" x2="230.3" y2="126.1" style="stroke:#c0c6cf;stroke-width:10.5px;stroke-linecap:round"/><line x1="230.3" y1="126.1" x2="227.9" y2="104.6" style="stroke:#f7f7fa;stroke-width:10.5px;stroke-linecap:round"/></g>
<circle class="ball ghost" cx="232.6" cy="147.6" r="17.2" fill="url(#sgglossyb5bcc6)" style="stroke:#3B424C;stroke-width:0.8px"/>
<circle class="ball ghost" cx="245.3" cy="257.6" r="17.2" fill="url(#sgglossyb5bcc6)" style="stroke:#3B424C;stroke-width:0.8px"/>
<g class="bond ghost"><line x1="245.3" y1="257.6" x2="251.0" y2="300.6" style="stroke:#3B424C;stroke-width:12.1px;stroke-linecap:round"/><line x1="245.3" y1="257.6" x2="248.2" y2="279.1" style="stroke:#c0c6cf;stroke-width:10.5px;stroke-linecap:round"/><line x1="248.2" y1="279.1" x2="251.0" y2="300.6" style="stroke:#f7f7fa;stroke-width:10.5px;stroke-linecap:round"/></g>
<circle class="ball ghost" cx="251.0" cy="300.6" r="11.8" fill="url(#sgglossyf5f6f9)" style="stroke:#3B424C;stroke-width:0.8px"/>
<g class="bond ghost"><line x1="241.4" y1="170.4" x2="232.6" y2="147.6" style="stroke:#3B424C;stroke-width:12.1px;stroke-linecap:round"/><line x1="241.4" y1="170.4" x2="237.0" y2="159.0" style="stroke:#c0c6cf;stroke-width:10.5px;stroke-linecap:round"/><line x1="237.0" y1="159.0" x2="232.6" y2="147.6" style="stroke:#c0c6cf;stroke-width:10.5px;stroke-linecap:round"/></g>
<g class="bond ghost"><line x1="247.7" y1="225.7" x2="245.3" y2="257.6" style="stroke:#3B424C;stroke-width:12.1px;stroke-linecap:round"/><line x1="247.7" y1="225.7" x2="246.5" y2="241.6" style="stroke:#c0c6cf;stroke-width:10.5px;stroke-linecap:round"/><line x1="246.5" y1="241.6" x2="245.3" y2="257.6" style="stroke:#c0c6cf;stroke-width:10.5px;stroke-linecap:round"/></g>
<circle class="ball ghost" cx="241.4" cy="170.4" r="17.2" fill="url(#sgglossyb5bcc6)" style="stroke:#3B424C;stroke-width:0.8px"/>
<g class="bond ghost"><line x1="247.7" y1="225.7" x2="241.4" y2="170.4" style="stroke:#3B424C;stroke-width:12.1px;stroke-linecap:round"/><line x1="247.7" y1="225.7" x2="244.6" y2="198.0" style="stroke:#c0c6cf;stroke-width:10.5px;stroke-linecap:round"/><line x1="244.6" y1="198.0" x2="241.4" y2="170.4" style="stroke:#c0c6cf;stroke-width:10.5px;stroke-linecap:round"/></g>
<circle class="ball ghost" cx="247.7" cy="225.7" r="17.2" fill="url(#sgglossyb5bcc6)" style="stroke:#3B424C;stroke-width:0.8px"/>
<g class="bond ghost"><line x1="241.4" y1="170.4" x2="244.1" y2="145.2" style="stroke:#3B424C;stroke-width:12.1px;stroke-linecap:round"/><line x1="241.4" y1="170.4" x2="242.8" y2="157.8" style="stroke:#c0c6cf;stroke-width:10.5px;stroke-linecap:round"/><line x1="242.8" y1="157.8" x2="244.1" y2="145.2" style="stroke:#f7f7fa;stroke-width:10.5px;stroke-linecap:round"/></g>
<g class="bond ghost"><line x1="256.1" y1="249.7" x2="247.7" y2="225.7" style="stroke:#3B424C;stroke-width:12.1px;stroke-linecap:round"/><line x1="256.1" y1="249.7" x2="251.9" y2="237.7" style="stroke:#c0c6cf;stroke-width:10.5px;stroke-linecap:round"/><line x1="251.9" y1="237.7" x2="247.7" y2="225.7" style="stroke:#c0c6cf;stroke-width:10.5px;stroke-linecap:round"/></g>
<circle class="ball ghost" cx="244.1" cy="145.2" r="11.8" fill="url(#sgglossyf5f6f9)" style="stroke:#3B424C;stroke-width:0.8px"/>
<circle class="ball ghost" cx="181.5" cy="320.2" r="11.8" fill="url(#sgglossyf5f6f9)" style="stroke:#3B424C;stroke-width:0.8px"/>
<g class="bond ghost"><line x1="164.8" y1="298.2" x2="181.5" y2="320.2" style="stroke:#3B424C;stroke-width:12.1px;stroke-linecap:round"/><line x1="164.8" y1="298.2" x2="173.2" y2="309.2" style="stroke:#c0c6cf;stroke-width:10.5px;stroke-linecap:round"/><line x1="173.2" y1="309.2" x2="181.5" y2="320.2" style="stroke:#f7f7fa;stroke-width:10.5px;stroke-linecap:round"/></g>
<circle class="ball ghost" cx="273.6" cy="289.8" r="11.8" fill="url(#sgglossyf5f6f9)" style="stroke:#3B424C;stroke-width:0.8px"/>
<g class="bond ghost"><line x1="256.1" y1="249.7" x2="273.6" y2="289.8" style="stroke:#3B424C;stroke-width:12.1px;stroke-linecap:round"/><line x1="256.1" y1="249.7" x2="264.8" y2="269.8" style="stroke:#c0c6cf;stroke-width:10.5px;stroke-linecap:round"/><line x1="264.8" y1="269.8" x2="273.6" y2="289.8" style="stroke:#f7f7fa;stroke-width:10.5px;stroke-linecap:round"/></g>
<circle class="ball ghost" cx="256.1" cy="249.7" r="17.2" fill="url(#sgglossyb5bcc6)" style="stroke:#3B424C;stroke-width:0.8px"/>
<circle class="ball ghost" cx="124.7" cy="283.6" r="11.8" fill="url(#sgglossyf5f6f9)" style="stroke:#3B424C;stroke-width:0.8px"/>
<g class="bond ghost"><line x1="164.8" y1="298.2" x2="124.7" y2="283.6" style="stroke:#3B424C;stroke-width:12.1px;stroke-linecap:round"/><line x1="164.8" y1="298.2" x2="144.8" y2="290.9" style="stroke:#c0c6cf;stroke-width:10.5px;stroke-linecap:round"/><line x1="144.8" y1="290.9" x2="124.7" y2="283.6" style="stroke:#f7f7fa;stroke-width:10.5px;stroke-linecap:round"/></g>
<circle class="ball ghost" cx="164.8" cy="298.2" r="17.2" fill="url(#sgglossyb5bcc6)" style="stroke:#3B424C;stroke-width:0.8px"/>
<g class="bond ghost"><line x1="256.1" y1="249.7" x2="283.2" y2="224.4" style="stroke:#3B424C;stroke-width:12.1px;stroke-linecap:round"/><line x1="256.1" y1="249.7" x2="269.6" y2="237.1" style="stroke:#c0c6cf;stroke-width:10.5px;stroke-linecap:round"/><line x1="269.6" y1="237.1" x2="283.2" y2="224.4" style="stroke:#f7f7fa;stroke-width:10.5px;stroke-linecap:round"/></g>
<g class="bond ghost"><line x1="202.7" y1="253.2" x2="256.1" y2="249.7" style="stroke:#3B424C;stroke-width:12.1px;stroke-linecap:round"/><line x1="202.7" y1="253.2" x2="229.4" y2="251.4" style="stroke:#c0c6cf;stroke-width:10.5px;stroke-linecap:round"/><line x1="229.4" y1="251.4" x2="256.1" y2="249.7" style="stroke:#c0c6cf;stroke-width:10.5px;stroke-linecap:round"/></g>
<g class="bond ghost"><line x1="164.8" y1="298.2" x2="202.7" y2="253.2" style="stroke:#3B424C;stroke-width:12.1px;stroke-linecap:round"/><line x1="164.8" y1="298.2" x2="183.7" y2="275.7" style="stroke:#c0c6cf;stroke-width:10.5px;stroke-linecap:round"/><line x1="183.7" y1="275.7" x2="202.7" y2="253.2" style="stroke:#c0c6cf;stroke-width:10.5px;stroke-linecap:round"/></g>
<circle class="ball ghost" cx="283.2" cy="224.4" r="11.8" fill="url(#sgglossyf5f6f9)" style="stroke:#3B424C;stroke-width:0.8px"/>
<circle class="ball ghost" cx="183.3" cy="213.7" r="11.8" fill="url(#sgglossyf5f6f9)" style="stroke:#3B424C;stroke-width:0.8px"/>
<g class="bond ghost"><line x1="202.7" y1="253.2" x2="183.3" y2="213.7" style="stroke:#3B424C;stroke-width:12.1px;stroke-linecap:round"/><line x1="202.7" y1="253.2" x2="193.0" y2="233.4" style="stroke:#c0c6cf;stroke-width:10.5px;stroke-linecap:round"/><line x1="193.0" y1="233.4" x2="183.3" y2="213.7" style="stroke:#f7f7fa;stroke-width:10.5px;stroke-linecap:round"/></g>
<circle class="ball ghost" cx="202.7" cy="253.2" r="17.2" fill="url(#sgglossyb5bcc6)" style="stroke:#3B424C;stroke-width:0.8px"/>
<g class="bond ghost"><line x1="160.2" y1="334.0" x2="164.8" y2="298.2" style="stroke:#3B424C;stroke-width:12.1px;stroke-linecap:round"/><line x1="160.2" y1="334.0" x2="162.5" y2="316.1" style="stroke:#dc7b74;stroke-width:10.5px;stroke-linecap:round"/><line x1="162.5" y1="316.1" x2="164.8" y2="298.2" style="stroke:#c0c6cf;stroke-width:10.5px;stroke-linecap:round"/></g>
<circle class="ball ghost" cx="160.2" cy="334.0" r="16.0" fill="url(#sgglossyd6645c)" style="stroke:#3B424C;stroke-width:0.8px"/>
<g class="bond ghost"><line x1="211.7" y1="268.1" x2="202.7" y2="253.2" style="stroke:#3B424C;stroke-width:12.1px;stroke-linecap:round"/><line x1="211.7" y1="268.1" x2="207.2" y2="260.6" style="stroke:#7b91d8;stroke-width:10.5px;stroke-linecap:round"/><line x1="207.2" y1="260.6" x2="202.7" y2="253.2" style="stroke:#c0c6cf;stroke-width:10.5px;stroke-linecap:round"/></g>
<g class="bond ghost"><line x1="188.3" y1="312.5" x2="160.2" y2="334.0" style="stroke:#3B424C;stroke-width:12.1px;stroke-linecap:round"/><line x1="188.3" y1="312.5" x2="174.3" y2="323.3" style="stroke:#c0c6cf;stroke-width:10.5px;stroke-linecap:round"/><line x1="174.3" y1="323.3" x2="160.2" y2="334.0" style="stroke:#dc7b74;stroke-width:10.5px;stroke-linecap:round"/></g>
<circle class="ball ghost" cx="211.7" cy="268.1" r="16.6" fill="url(#sgglossy647dd1)" style="stroke:#3B424C;stroke-width:0.8px"/>
<g class="bond ghost"><line x1="211.7" y1="268.1" x2="188.3" y2="312.5" style="stroke:#3B424C;stroke-width:12.1px;stroke-linecap:round"/><line x1="211.7" y1="268.1" x2="200.0" y2="290.3" style="stroke:#7b91d8;stroke-width:10.5px;stroke-linecap:round"/><line x1="200.0" y1="290.3" x2="188.3" y2="312.5" style="stroke:#c0c6cf;stroke-width:10.5px;stroke-linecap:round"/></g>
<circle class="ball ghost" cx="188.3" cy="312.5" r="17.2" fill="url(#sgglossyb5bcc6)" style="stroke:#3B424C;stroke-width:0.8px"/>
<g class="bond ghost"><line x1="275.0" y1="237.9" x2="211.7" y2="268.1" style="stroke:#3B424C;stroke-width:12.1px;stroke-linecap:round" stroke-dasharray="9.4 7.8"/><line x1="275.0" y1="237.9" x2="243.3" y2="253.0" style="stroke:#d7a27b;stroke-width:10.5px;stroke-linecap:round" stroke-dasharray="9.4 7.8"/><line x1="243.3" y1="253.0" x2="211.7" y2="268.1" style="stroke:#7b91d8;stroke-width:10.5px;stroke-linecap:round" stroke-dasharray="9.4 7.8"/></g>
<circle class="ball ghost" cx="169.4" cy="418.2" r="11.8" fill="url(#sgglossyf5f6f9)" style="stroke:#3B424C;stroke-width:0.8px"/>
<circle class="ball ghost" cx="330.4" cy="173.0" r="20.3" fill="url(#sgglossy75ad71)" style="stroke:#3B424C;stroke-width:0.8px"/>
<g class="bond ghost"><line x1="275.0" y1="237.9" x2="330.4" y2="173.0" style="stroke:#3B424C;stroke-width:12.1px;stroke-linecap:round" stroke-dasharray="9.4 7.8"/><line x1="275.0" y1="237.9" x2="302.7" y2="205.5" style="stroke:#d7a27b;stroke-width:10.5px;stroke-linecap:round" stroke-dasharray="9.4 7.8"/><line x1="302.7" y1="205.5" x2="330.4" y2="173.0" style="stroke:#8ab986;stroke-width:10.5px;stroke-linecap:round" stroke-dasharray="9.4 7.8"/></g>
<g class="bond ghost"><line x1="185.2" y1="342.9" x2="188.3" y2="312.5" style="stroke:#3B424C;stroke-width:12.1px;stroke-linecap:round"/><line x1="185.2" y1="342.9" x2="186.8" y2="327.7" style="stroke:#c0c6cf;stroke-width:10.5px;stroke-linecap:round"/><line x1="186.8" y1="327.7" x2="188.3" y2="312.5" style="stroke:#c0c6cf;stroke-width:10.5px;stroke-linecap:round"/></g>
<g class="bond ghost"><line x1="197.3" y1="402.6" x2="169.4" y2="418.2" style="stroke:#3B424C;stroke-width:12.1px;stroke-linecap:round"/><line x1="197.3" y1="402.6" x2="183.4" y2="410.4" style="stroke:#c0c6cf;stroke-width:10.5px;stroke-linecap:round"/><line x1="183.4" y1="410.4" x2="169.4" y2="418.2" style="stroke:#f7f7fa;stroke-width:10.5px;stroke-linecap:round"/></g>
<circle class="ball ghost" cx="238.2" cy="407.3" r="11.8" fill="url(#sgglossyf5f6f9)" style="stroke:#3B424C;stroke-width:0.8px"/>
<circle class="ball ghost" cx="275.0" cy="237.9" r="24.0" fill="url(#sgglossyd09264)" style="stroke:#3B424C;stroke-width:0.8px"/>
<g class="bond ghost"><line x1="197.3" y1="402.6" x2="238.2" y2="407.3" style="stroke:#3B424C;stroke-width:12.1px;stroke-linecap:round"/><line x1="197.3" y1="402.6" x2="217.7" y2="405.0" style="stroke:#c0c6cf;stroke-width:10.5px;stroke-linecap:round"/><line x1="217.7" y1="405.0" x2="238.2" y2="407.3" style="stroke:#f7f7fa;stroke-width:10.5px;stroke-linecap:round"/></g>
<circle class="ball ghost" cx="197.3" cy="402.6" r="17.2" fill="url(#sgglossyb5bcc6)" style="stroke:#3B424C;stroke-width:0.8px"/>
<circle class="ball ghost" cx="99.1" cy="352.1" r="11.8" fill="url(#sgglossyf5f6f9)" style="stroke:#3B424C;stroke-width:0.8px"/>
<g class="bond ghost"><line x1="185.2" y1="342.9" x2="197.3" y2="402.6" style="stroke:#3B424C;stroke-width:12.1px;stroke-linecap:round"/><line x1="185.2" y1="342.9" x2="191.3" y2="372.8" style="stroke:#c0c6cf;stroke-width:10.5px;stroke-linecap:round"/><line x1="191.3" y1="372.8" x2="197.3" y2="402.6" style="stroke:#c0c6cf;stroke-width:10.5px;stroke-linecap:round"/></g>
<circle class="ball ghost" cx="185.2" cy="342.9" r="17.2" fill="url(#sgglossyb5bcc6)" style="stroke:#3B424C;stroke-width:0.8px"/>
<g class="bond ghost"><line x1="127.6" y1="336.5" x2="99.1" y2="352.1" style="stroke:#3B424C;stroke-width:12.1px;stroke-linecap:round"/><line x1="127.6" y1="336.5" x2="113.3" y2="344.3" style="stroke:#c0c6cf;stroke-width:10.5px;stroke-linecap:round"/><line x1="113.3" y1="344.3" x2="99.1" y2="352.1" style="stroke:#f7f7fa;stroke-width:10.5px;stroke-linecap:round"/></g>
<g class="bond ghost"><line x1="275.0" y1="237.9" x2="264.8" y2="293.6" style="stroke:#3B424C;stroke-width:12.1px;stroke-linecap:round" stroke-dasharray="9.4 7.8"/><line x1="275.0" y1="237.9" x2="269.9" y2="265.7" style="stroke:#d7a27b;stroke-width:10.5px;stroke-linecap:round" stroke-dasharray="9.4 7.8"/><line x1="269.9" y1="265.7" x2="264.8" y2="293.6" style="stroke:#7b91d8;stroke-width:10.5px;stroke-linecap:round" stroke-dasharray="9.4 7.8"/></g>
<g class="bond ghost"><line x1="197.3" y1="402.6" x2="193.0" y2="425.4" style="stroke:#3B424C;stroke-width:12.1px;stroke-linecap:round"/><line x1="197.3" y1="402.6" x2="195.2" y2="414.0" style="stroke:#c0c6cf;stroke-width:10.5px;stroke-linecap:round"/><line x1="195.2" y1="414.0" x2="193.0" y2="425.4" style="stroke:#f7f7fa;stroke-width:10.5px;stroke-linecap:round"/></g>
<g class="bond ghost"><line x1="127.6" y1="336.5" x2="185.2" y2="342.9" style="stroke:#3B424C;stroke-width:12.1px;stroke-linecap:round"/><line x1="127.6" y1="336.5" x2="156.4" y2="339.7" style="stroke:#c0c6cf;stroke-width:10.5px;stroke-linecap:round"/><line x1="156.4" y1="339.7" x2="185.2" y2="342.9" style="stroke:#c0c6cf;stroke-width:10.5px;stroke-linecap:round"/></g>
<g class="bond ghost"><line x1="185.2" y1="342.9" x2="224.2" y2="324.0" style="stroke:#3B424C;stroke-width:12.1px;stroke-linecap:round"/><line x1="185.2" y1="342.9" x2="204.7" y2="333.5" style="stroke:#c0c6cf;stroke-width:10.5px;stroke-linecap:round"/><line x1="204.7" y1="333.5" x2="224.2" y2="324.0" style="stroke:#c0c6cf;stroke-width:10.5px;stroke-linecap:round"/></g>
<circle class="ball ghost" cx="127.6" cy="336.5" r="17.2" fill="url(#sgglossyb5bcc6)" style="stroke:#3B424C;stroke-width:0.8px"/>
<g class="bond ghost"><line x1="127.6" y1="336.5" x2="118.8" y2="294.3" style="stroke:#3B424C;stroke-width:12.1px;stroke-linecap:round"/><line x1="127.6" y1="336.5" x2="123.2" y2="315.4" style="stroke:#c0c6cf;stroke-width:10.5px;stroke-linecap:round"/><line x1="123.2" y1="315.4" x2="118.8" y2="294.3" style="stroke:#f7f7fa;stroke-width:10.5px;stroke-linecap:round"/></g>
<circle class="ball ghost" cx="193.0" cy="425.4" r="11.8" fill="url(#sgglossyf5f6f9)" style="stroke:#3B424C;stroke-width:0.8px"/>
<circle class="ball ghost" cx="118.8" cy="294.3" r="11.8" fill="url(#sgglossyf5f6f9)" style="stroke:#3B424C;stroke-width:0.8px"/>
<circle class="ball ghost" cx="264.8" cy="293.6" r="16.6" fill="url(#sgglossy647dd1)" style="stroke:#3B424C;stroke-width:0.8px"/>
<g class="bond ghost"><line x1="264.8" y1="293.6" x2="224.2" y2="324.0" style="stroke:#3B424C;stroke-width:12.1px;stroke-linecap:round"/><line x1="264.8" y1="293.6" x2="244.5" y2="308.8" style="stroke:#7b91d8;stroke-width:10.5px;stroke-linecap:round"/><line x1="244.5" y1="308.8" x2="224.2" y2="324.0" style="stroke:#c0c6cf;stroke-width:10.5px;stroke-linecap:round"/></g>
<g class="bond ghost"><line x1="127.6" y1="336.5" x2="123.3" y2="358.6" style="stroke:#3B424C;stroke-width:12.1px;stroke-linecap:round"/><line x1="127.6" y1="336.5" x2="125.4" y2="347.5" style="stroke:#c0c6cf;stroke-width:10.5px;stroke-linecap:round"/><line x1="125.4" y1="347.5" x2="123.3" y2="358.6" style="stroke:#f7f7fa;stroke-width:10.5px;stroke-linecap:round"/></g>
<circle class="ball ghost" cx="224.2" cy="324.0" r="17.2" fill="url(#sgglossyb5bcc6)" style="stroke:#3B424C;stroke-width:0.8px"/>
<circle class="ball ghost" cx="123.3" cy="358.6" r="11.8" fill="url(#sgglossyf5f6f9)" style="stroke:#3B424C;stroke-width:0.8px"/>
<g class="bond ghost"><line x1="264.8" y1="293.6" x2="291.7" y2="287.6" style="stroke:#3B424C;stroke-width:12.1px;stroke-linecap:round"/><line x1="264.8" y1="293.6" x2="278.3" y2="290.6" style="stroke:#7b91d8;stroke-width:10.5px;stroke-linecap:round"/><line x1="278.3" y1="290.6" x2="291.7" y2="287.6" style="stroke:#b6bdc6;stroke-width:10.5px;stroke-linecap:round"/></g>
<g class="bond ghost"><line x1="224.2" y1="324.0" x2="216.4" y2="344.6" style="stroke:#3B424C;stroke-width:12.1px;stroke-linecap:round"/><line x1="224.2" y1="324.0" x2="220.3" y2="334.3" style="stroke:#c0c6cf;stroke-width:10.5px;stroke-linecap:round"/><line x1="220.3" y1="334.3" x2="216.4" y2="344.6" style="stroke:#d6655d;stroke-width:10.5px;stroke-linecap:round"/></g>
<circle class="ball" cx="306.8" cy="204.5" r="11.8" fill="url(#sgglossyf5f6f9)" style="stroke:#3B424C;stroke-width:0.8px"/>
<circle class="ball ghost" cx="333.4" cy="301.0" r="11.8" fill="url(#sgglossyF3F5F8)" style="stroke:#3B424C;stroke-width:0.8px"/>
<g class="bond ghost"><line x1="291.7" y1="287.6" x2="333.4" y2="301.0" style="stroke:#3B424C;stroke-width:12.1px;stroke-linecap:round"/><line x1="291.7" y1="287.6" x2="312.6" y2="294.3" style="stroke:#b6bdc6;stroke-width:10.5px;stroke-linecap:round"/><line x1="312.6" y1="294.3" x2="333.4" y2="301.0" style="stroke:#f5f7f9;stroke-width:10.5px;stroke-linecap:round"/></g>
<circle class="ball" cx="291.7" cy="287.6" r="17.2" fill="url(#sgglossyA9B1BC)" style="stroke:#3B424C;stroke-width:0.8px"/>
<g class="bond"><line x1="291.7" y1="228.6" x2="306.8" y2="204.5" style="stroke:#3B424C;stroke-width:12.1px;stroke-linecap:round"/><line x1="291.7" y1="228.6" x2="299.2" y2="216.6" style="stroke:#b6bdc6;stroke-width:10.5px;stroke-linecap:round"/><line x1="299.2" y1="216.6" x2="306.8" y2="204.5" style="stroke:#f7f7fa;stroke-width:10.5px;stroke-linecap:round"/></g>
<circle class="ball ghost" cx="216.4" cy="344.6" r="16.0" fill="url(#sgglossyCF4A40)" style="stroke:#3B424C;stroke-width:0.8px"/>
<g class="bond"><line x1="291.7" y1="287.6" x2="291.7" y2="228.6" style="stroke:#3B424C;stroke-width:12.1px;stroke-linecap:round"/><line x1="291.7" y1="287.6" x2="291.7" y2="258.1" style="stroke:#b6bdc6;stroke-width:10.5px;stroke-linecap:round"/><line x1="291.7" y1="258.1" x2="291.7" y2="228.6" style="stroke:#b6bdc6;stroke-width:10.5px;stroke-linecap:round"/></g>
<circle class="ball" cx="291.7" cy="228.6" r="17.2" fill="url(#sgglossyA9B1BC)" style="stroke:#3B424C;stroke-width:0.8px"/>
<g class="bond ghost"><line x1="291.7" y1="287.6" x2="258.9" y2="325.3" style="stroke:#3B424C;stroke-width:12.1px;stroke-linecap:round"/><line x1="291.7" y1="287.6" x2="275.3" y2="306.4" style="stroke:#b6bdc6;stroke-width:10.5px;stroke-linecap:round"/><line x1="275.3" y1="306.4" x2="258.9" y2="325.3" style="stroke:#b6bdc6;stroke-width:10.5px;stroke-linecap:round"/></g>
<circle class="ball" cx="399.5" cy="221.0" r="11.8" fill="url(#sgglossyF3F5F8)" style="stroke:#3B424C;stroke-width:0.8px"/>
<g class="bond ghost"><line x1="258.9" y1="325.3" x2="216.4" y2="344.6" style="stroke:#3B424C;stroke-width:12.1px;stroke-linecap:round"/><line x1="258.9" y1="325.3" x2="237.6" y2="334.9" style="stroke:#b6bdc6;stroke-width:10.5px;stroke-linecap:round"/><line x1="237.6" y1="334.9" x2="216.4" y2="344.6" style="stroke:#d6655d;stroke-width:10.5px;stroke-linecap:round"/></g>
<g class="bond"><line x1="291.7" y1="228.6" x2="250.5" y2="216.1" style="stroke:#3B424C;stroke-width:12.1px;stroke-linecap:round"/><line x1="291.7" y1="228.6" x2="271.1" y2="222.4" style="stroke:#b6bdc6;stroke-width:10.5px;stroke-linecap:round"/><line x1="271.1" y1="222.4" x2="250.5" y2="216.1" style="stroke:#f5f7f9;stroke-width:10.5px;stroke-linecap:round"/></g>
<circle class="ball" cx="250.5" cy="216.1" r="11.8" fill="url(#sgglossyF3F5F8)" style="stroke:#3B424C;stroke-width:0.8px"/>
<circle class="ball ghost" cx="258.9" cy="325.3" r="17.2" fill="url(#sgglossyA9B1BC)" style="stroke:#3B424C;stroke-width:0.8px"/>
<g class="bond"><line x1="382.6" y1="218.8" x2="399.5" y2="221.0" style="stroke:#3B424C;stroke-width:12.1px;stroke-linecap:round"/><line x1="382.6" y1="218.8" x2="391.0" y2="219.9" style="stroke:#b6bdc6;stroke-width:10.5px;stroke-linecap:round"/><line x1="391.0" y1="219.9" x2="399.5" y2="221.0" style="stroke:#f5f7f9;stroke-width:10.5px;stroke-linecap:round"/></g>
<g class="bond"><line x1="291.7" y1="228.6" x2="327.1" y2="221.0" style="stroke:#3B424C;stroke-width:12.1px;stroke-linecap:round"/><line x1="291.7" y1="228.6" x2="309.4" y2="224.8" style="stroke:#b6bdc6;stroke-width:10.5px;stroke-linecap:round"/><line x1="309.4" y1="224.8" x2="327.1" y2="221.0" style="stroke:#b6bdc6;stroke-width:10.5px;stroke-linecap:round"/></g>
<g class="bond ghost"><line x1="258.9" y1="325.3" x2="282.0" y2="359.7" style="stroke:#3B424C;stroke-width:12.1px;stroke-linecap:round"/><line x1="258.9" y1="325.3" x2="270.4" y2="342.5" style="stroke:#b6bdc6;stroke-width:10.5px;stroke-linecap:round"/><line x1="270.4" y1="342.5" x2="282.0" y2="359.7" style="stroke:#f5f7f9;stroke-width:10.5px;stroke-linecap:round"/></g>
<circle class="ball ghost" cx="282.0" cy="359.7" r="11.8" fill="url(#sgglossyF3F5F8)" style="stroke:#3B424C;stroke-width:0.8px"/>
<g class="bond ghost"><line x1="258.9" y1="325.3" x2="241.3" y2="304.2" style="stroke:#3B424C;stroke-width:12.1px;stroke-linecap:round"/><line x1="258.9" y1="325.3" x2="250.1" y2="314.7" style="stroke:#b6bdc6;stroke-width:10.5px;stroke-linecap:round"/><line x1="250.1" y1="314.7" x2="241.3" y2="304.2" style="stroke:#f5f7f9;stroke-width:10.5px;stroke-linecap:round"/></g>
<circle class="ball" cx="382.6" cy="218.8" r="17.2" fill="url(#sgglossyA9B1BC)" style="stroke:#3B424C;stroke-width:0.8px"/>
<g class="bond"><line x1="327.1" y1="221.0" x2="382.6" y2="218.8" style="stroke:#3B424C;stroke-width:12.1px;stroke-linecap:round"/><line x1="327.1" y1="221.0" x2="354.8" y2="219.9" style="stroke:#b6bdc6;stroke-width:10.5px;stroke-linecap:round"/><line x1="354.8" y1="219.9" x2="382.6" y2="218.8" style="stroke:#b6bdc6;stroke-width:10.5px;stroke-linecap:round"/></g>
<circle class="ball" cx="327.1" cy="221.0" r="17.2" fill="url(#sgglossyA9B1BC)" style="stroke:#3B424C;stroke-width:0.8px"/>
<circle class="ball ghost" cx="241.3" cy="304.2" r="11.8" fill="url(#sgglossyF3F5F8)" style="stroke:#3B424C;stroke-width:0.8px"/>
<g class="bond"><line x1="382.6" y1="218.8" x2="415.8" y2="212.9" style="stroke:#3B424C;stroke-width:12.1px;stroke-linecap:round"/><line x1="382.6" y1="218.8" x2="399.2" y2="215.8" style="stroke:#b6bdc6;stroke-width:10.5px;stroke-linecap:round"/><line x1="399.2" y1="215.8" x2="415.8" y2="212.9" style="stroke:#b6bdc6;stroke-width:10.5px;stroke-linecap:round"/></g>
<g class="bond"><line x1="327.1" y1="221.0" x2="305.6" y2="216.9" style="stroke:#3B424C;stroke-width:12.1px;stroke-linecap:round"/><line x1="327.1" y1="221.0" x2="316.4" y2="219.0" style="stroke:#b6bdc6;stroke-width:10.5px;stroke-linecap:round"/><line x1="316.4" y1="219.0" x2="305.6" y2="216.9" style="stroke:#b6bdc6;stroke-width:10.5px;stroke-linecap:round"/></g>
<circle class="ball" cx="458.9" cy="211.0" r="11.8" fill="url(#sgglossyF3F5F8)" style="stroke:#3B424C;stroke-width:0.8px"/>
<g class="bond"><line x1="415.8" y1="212.9" x2="458.9" y2="211.0" style="stroke:#3B424C;stroke-width:12.1px;stroke-linecap:round"/><line x1="415.8" y1="212.9" x2="437.4" y2="212.0" style="stroke:#b6bdc6;stroke-width:10.5px;stroke-linecap:round"/><line x1="437.4" y1="212.0" x2="458.9" y2="211.0" style="stroke:#f5f7f9;stroke-width:10.5px;stroke-linecap:round"/></g>
<circle class="ball" cx="415.8" cy="212.9" r="17.2" fill="url(#sgglossyA9B1BC)" style="stroke:#3B424C;stroke-width:0.8px"/>
<circle class="ball" cx="305.6" cy="216.9" r="17.2" fill="url(#sgglossyA9B1BC)" style="stroke:#3B424C;stroke-width:0.8px"/>
<g class="bond"><line x1="305.6" y1="216.9" x2="262.5" y2="217.7" style="stroke:#3B424C;stroke-width:12.1px;stroke-linecap:round"/><line x1="305.6" y1="216.9" x2="284.1" y2="217.3" style="stroke:#b6bdc6;stroke-width:10.5px;stroke-linecap:round"/><line x1="284.1" y1="217.3" x2="262.5" y2="217.7" style="stroke:#f5f7f9;stroke-width:10.5px;stroke-linecap:round"/></g>
<circle class="ball" cx="262.5" cy="217.7" r="11.8" fill="url(#sgglossyF3F5F8)" style="stroke:#3B424C;stroke-width:0.8px"/>
<g class="bond"><line x1="415.8" y1="212.9" x2="394.1" y2="209.1" style="stroke:#3B424C;stroke-width:12.1px;stroke-linecap:round"/><line x1="415.8" y1="212.9" x2="405.0" y2="211.0" style="stroke:#b6bdc6;stroke-width:10.5px;stroke-linecap:round"/><line x1="405.0" y1="211.0" x2="394.1" y2="209.1" style="stroke:#b6bdc6;stroke-width:10.5px;stroke-linecap:round"/></g>
<g class="bond"><line x1="338.9" y1="211.0" x2="305.6" y2="216.9" style="stroke:#3B424C;stroke-width:12.1px;stroke-linecap:round"/><line x1="338.9" y1="211.0" x2="322.3" y2="214.0" style="stroke:#b6bdc6;stroke-width:10.5px;stroke-linecap:round"/><line x1="322.3" y1="214.0" x2="305.6" y2="216.9" style="stroke:#b6bdc6;stroke-width:10.5px;stroke-linecap:round"/></g>
<circle class="ball" cx="394.1" cy="209.1" r="17.2" fill="url(#sgglossyA9B1BC)" style="stroke:#3B424C;stroke-width:0.8px"/>
<g class="bond"><line x1="394.1" y1="209.1" x2="338.9" y2="211.0" style="stroke:#3B424C;stroke-width:12.1px;stroke-linecap:round"/><line x1="394.1" y1="209.1" x2="366.5" y2="210.1" style="stroke:#b6bdc6;stroke-width:10.5px;stroke-linecap:round"/><line x1="366.5" y1="210.1" x2="338.9" y2="211.0" style="stroke:#b6bdc6;stroke-width:10.5px;stroke-linecap:round"/></g>
<circle class="ball" cx="338.9" cy="211.0" r="17.2" fill="url(#sgglossyA9B1BC)" style="stroke:#3B424C;stroke-width:0.8px"/>
<g class="bond"><line x1="394.1" y1="209.1" x2="420.0" y2="204.5" style="stroke:#3B424C;stroke-width:12.1px;stroke-linecap:round"/><line x1="394.1" y1="209.1" x2="407.1" y2="206.8" style="stroke:#b6bdc6;stroke-width:10.5px;stroke-linecap:round"/><line x1="407.1" y1="206.8" x2="420.0" y2="204.5" style="stroke:#f5f7f9;stroke-width:10.5px;stroke-linecap:round"/></g>
<g class="bond"><line x1="338.9" y1="211.0" x2="321.6" y2="207.7" style="stroke:#3B424C;stroke-width:12.1px;stroke-linecap:round"/><line x1="338.9" y1="211.0" x2="330.3" y2="209.3" style="stroke:#b6bdc6;stroke-width:10.5px;stroke-linecap:round"/><line x1="330.3" y1="209.3" x2="321.6" y2="207.7" style="stroke:#f5f7f9;stroke-width:10.5px;stroke-linecap:round"/></g>
<circle class="ball" cx="420.0" cy="204.5" r="11.8" fill="url(#sgglossyF3F5F8)" style="stroke:#3B424C;stroke-width:0.8px"/>
<circle class="ball" cx="321.6" cy="207.7" r="11.8" fill="url(#sgglossyF3F5F8)" style="stroke:#3B424C;stroke-width:0.8px"/>
</g>
<circle class="sx-touch" cx="306.8" cy="204.5" r="14.8" stroke="#6C4AB6"/>
<circle class="sx-touch" cx="250.5" cy="216.1" r="14.8" stroke="#6C4AB6"/>
<line class="sx-axis behind" x1="291.7" y1="287.6" x2="291.7" y2="270.7" stroke="#1596A6"/><line class="sx-axis" x1="291.7" y1="270.7" x2="291.7" y2="242.4" stroke="#1596A6"/><line class="sx-axis behind" x1="291.7" y1="242.4" x2="291.7" y2="202.9" stroke="#1596A6"/><line class="sx-axis" x1="291.7" y1="202.9" x2="291.7" y2="106.9" stroke="#1596A6" marker-end="url(#mk1596A6)"/>
<path class="sx-wedge" d="M291.7,287.6 L295.3,151.7 L298.1,152.8 L300.9,154.0 L303.6,155.4 L306.3,156.9 L309.0,158.6 L311.7,160.3 L314.4,162.2 L317.1,164.2 L319.7,166.4 L322.3,168.6 L324.9,171.0 L327.4,173.5 L329.9,176.1 L332.4,178.9 L334.8,181.7 L337.2,184.7 L339.5,187.7 L341.8,190.9 L344.0,194.1 L346.2,197.4 L348.3,200.9 L350.4,204.4 L352.4,208.0 L354.4,211.7 L356.2,215.4 L358.1,219.3 L359.8,223.2 L361.5,227.1 L363.1,231.2 L364.7,235.2 L366.1,239.4 Z" fill="#3450A8"/>
<path class="sx-arc" d="M295.3,151.7 L298.1,152.8 L300.9,154.0 L303.6,155.4 L306.3,156.9 L309.0,158.6 L311.7,160.3 L314.4,162.2 L317.1,164.2 L319.7,166.4 L322.3,168.6 L324.9,171.0 L327.4,173.5 L329.9,176.1 L332.4,178.9 L334.8,181.7 L337.2,184.7 L339.5,187.7 L341.8,190.9 L344.0,194.1 L346.2,197.4 L348.3,200.9 L350.4,204.4 L352.4,208.0 L354.4,211.7 L356.2,215.4 L358.1,219.3 L359.8,223.2 L361.5,227.1 L363.1,231.2 L364.7,235.2 L366.1,239.4" stroke="#3450A8"/>
<line class="sx-shadow behind" x1="291.7" y1="287.6" x2="292.3" y2="267.3" stroke="#3450A8"/><line class="sx-shadow" x1="292.3" y1="267.3" x2="292.9" y2="243.0" stroke="#3450A8"/><line class="sx-shadow behind" x1="292.9" y1="243.0" x2="294.0" y2="202.4" stroke="#3450A8"/><line class="sx-shadow" x1="294.0" y1="202.4" x2="295.2" y2="157.7" stroke="#3450A8"/>
<line class="sx-perp" x1="295.2" y1="157.7" x2="388.8" y2="192.8" stroke="#3450A8"/><line class="sx-perp behind" x1="388.8" y1="192.8" x2="400.5" y2="197.1" stroke="#3450A8"/><line class="sx-perp" x1="400.5" y1="197.1" x2="412.2" y2="201.5" stroke="#3450A8"/><line class="sx-perp behind" x1="412.2" y1="201.5" x2="420.0" y2="204.4" stroke="#3450A8"/>
<path class="sx-right" d="M294.9,169.3 L302.3,172.1 L302.6,160.5" stroke="#434C59"/>
<line class="sx-v dash behind" x1="291.7" y1="287.6" x2="303.8" y2="279.8" stroke="#C9352B"/><line class="sx-v dash" x1="303.8" y1="279.8" x2="392.0" y2="222.6" stroke="#C9352B"/><line class="sx-v dash behind" x1="392.0" y1="222.6" x2="408.0" y2="212.2" stroke="#C9352B"/><line class="sx-v dash" x1="408.0" y1="212.2" x2="412.0" y2="209.6" stroke="#C9352B"/><line class="sx-v dash behind" x1="412.0" y1="209.6" x2="420.0" y2="204.4" stroke="#C9352B" marker-end="url(#mkC9352B)"/>
<circle class="sx-ring" cx="420.0" cy="204.4" r="14.8" stroke="#C9352B"/>
<circle cx="291.7" cy="287.6" r="2.4" fill="#3450A8"/>
<line class="sx-b1 behind" x1="291.7" y1="214.8" x2="284.6" y2="212.1" stroke="#6C4AB6"/><line class="sx-b1" x1="284.6" y1="212.1" x2="253.6" y2="200.5" stroke="#6C4AB6" marker-end="url(#mk6C4AB6)"/>
<line class="sx-locline" x1="295.2" y1="157.7" x2="291.7" y2="158.5" stroke="#8A6A00"/>
<line class="sx-tickhalo" x1="284.2" y1="158.5" x2="299.2" y2="158.5" stroke="#FFFFFF"/>
<line class="sx-loctick" x1="284.2" y1="158.5" x2="299.2" y2="158.5" stroke="#C99A00"/>
<line class="sx-b5" x1="291.7" y1="158.5" x2="392.6" y2="194.6" stroke="#C9352B"/><line class="sx-b5 behind" x1="392.6" y1="194.6" x2="402.2" y2="198.1" stroke="#C9352B"/><line class="sx-b5" x1="402.2" y1="198.1" x2="411.8" y2="201.5" stroke="#C9352B"/><line class="sx-b5 behind" x1="411.8" y1="201.5" x2="431.1" y2="208.4" stroke="#C9352B"/><line class="sx-b5" x1="431.1" y1="208.4" x2="445.5" y2="213.6" stroke="#C9352B" marker-end="url(#mkC9352B)"/>
<line class="leader" x1="284.6" y1="184.7" x2="337.2" y2="184.7" stroke="#3450A8"/><text class="th" data-lab="th||1" x="280.6" y="182.5" text-anchor="end" font-size="13.0" fill="#3450A8">&#952; 56.3&#176;</text>
<text class="lab" data-lab="lab|locB5|1" x="277.7" y="150.5" text-anchor="end" font-size="12.0" fill="#8A6A00">loc B<tspan dy="2.6" font-size="0.75em">5</tspan><tspan dy="-2.6"> 3.36 &#8491;</tspan></text>
<text class="lab" data-lab="lab|B1|1" x="239.6" y="216.5" text-anchor="end" font-size="12.0" fill="#6C4AB6">B<tspan dy="2.6" font-size="0.75em">1</tspan><tspan dy="-2.6"> 1.54 &#8491;</tspan></text>
<text class="lab" data-lab="lab|B5|1" x="471.5" y="233.6" text-anchor="middle" font-size="12.0" fill="#C9352B">B<tspan dy="2.6" font-size="0.75em">5</tspan><tspan dy="-2.6"> 6.05 &#8491;</tspan></text>
<text class="vl" data-lab="vl|v|1" x="382.4" y="257.2" text-anchor="middle" font-size="11.5" fill="#C9352B">v</text>
<text class="lab" data-lab="lab|L|1" x="291.7" y="94.9" text-anchor="middle" font-size="12.0" fill="#1F2937">L 4.70 &#8491;</text>
<text class="mark" data-lab="mark|B1plane|1" x="227.4" y="251.2" text-anchor="middle" font-size="9.0" fill="#6C4AB6">B<tspan dy="2.6" font-size="0.75em">1</tspan><tspan dy="-2.6"> plane</tspan></text>
<text class="mark" data-lab="mark|B1throughtheaxis|1" x="293.5" y="313.7" text-anchor="middle" font-size="9.0" fill="#3450A8">&#8741; B<tspan dy="2.6" font-size="0.75em">1</tspan><tspan dy="-2.6">, through the axis</tspan></text>
<circle cx="626" cy="459.7" r="3.6" fill="#1596A6"/>
<text class="key" x="618" y="463.2" text-anchor="end" font-size="10.5" fill="#374151">8-12  B<tspan dy="2.6" font-size="0.75em">1</tspan><tspan dy="-2.6"> 1.54</tspan> · B<tspan dy="2.6" font-size="0.75em">5</tspan><tspan dy="-2.6"> 6.05</tspan> · L 4.70 · loc B<tspan dy="2.6" font-size="0.75em">5</tspan><tspan dy="-2.6"> 3.36</tspan> · &#952; 56.3&#176;</text>
<rect class="ins-box" x="498.0" y="34.0" width="132" height="132" rx="3"/>
<circle cx="564.0" cy="100.0" r="54.7" fill="none" stroke="#C9352B" stroke-width=".9" stroke-dasharray="3 4" opacity=".75"/>
<circle cx="564.0" cy="100.0" r="13.6" fill="#D9DFE8" fill-opacity=".35" stroke="#8F99A7" stroke-width="0.5"/>
<circle cx="564.0" cy="100.0" r="13.6" fill="#D9DFE8" fill-opacity=".35" stroke="#8F99A7" stroke-width="0.5"/>
<circle cx="557.6" cy="89.0" r="15.4" fill="#D9DFE8" fill-opacity=".35" stroke="#8F99A7" stroke-width="0.5"/>
<circle cx="563.5" cy="77.9" r="15.4" fill="#D9DFE8" fill-opacity=".35" stroke="#8F99A7" stroke-width="0.5"/>
<circle cx="557.7" cy="67.6" r="15.4" fill="#D9DFE8" fill-opacity=".35" stroke="#8F99A7" stroke-width="0.5"/>
<circle cx="545.9" cy="68.4" r="15.4" fill="#D9DFE8" fill-opacity=".35" stroke="#8F99A7" stroke-width="0.5"/>
<circle cx="540.0" cy="79.4" r="15.4" fill="#D9DFE8" fill-opacity=".35" stroke="#8F99A7" stroke-width="0.5"/>
<circle cx="545.8" cy="89.7" r="15.4" fill="#D9DFE8" fill-opacity=".35" stroke="#8F99A7" stroke-width="0.5"/>
<circle cx="573.5" cy="100.0" r="9.1" fill="#D9DFE8" fill-opacity=".35" stroke="#8F99A7" stroke-width="0.5"/>
<circle cx="559.7" cy="108.3" r="9.1" fill="#D9DFE8" fill-opacity=".35" stroke="#8F99A7" stroke-width="0.5"/>
<circle cx="572.8" cy="77.4" r="9.1" fill="#D9DFE8" fill-opacity=".35" stroke="#8F99A7" stroke-width="0.5"/>
<circle cx="562.4" cy="59.1" r="9.1" fill="#D9DFE8" fill-opacity=".35" stroke="#8F99A7" stroke-width="0.5"/>
<circle cx="541.3" cy="60.4" r="9.1" fill="#D9DFE8" fill-opacity=".5" stroke="#C9352B" stroke-width="1.2"/>
<circle cx="530.8" cy="80.0" r="9.1" fill="#D9DFE8" fill-opacity=".35" stroke="#8F99A7" stroke-width="0.5"/>
<circle cx="541.2" cy="98.3" r="9.1" fill="#D9DFE8" fill-opacity=".35" stroke="#8F99A7" stroke-width="0.5"/>
<line x1="524.3" y1="140.1" x2="618.1" y2="83.8" stroke="#6C4AB6" stroke-width="1.4" stroke-linecap="round"/>
<circle cx="564.0" cy="100.0" r="1.8" fill="#1F2937"/>
<line x1="564.0" y1="100.0" x2="571.2" y2="112.0" stroke="#6C4AB6" stroke-width="1.3" stroke-linecap="round" opacity=".85"/>
<line x1="564.0" y1="100.0" x2="536.8" y2="52.5" stroke="#C9352B" stroke-width="1.3" stroke-linecap="round" opacity=".85"/>
<line x1="541.1" y1="50.1" x2="532.6" y2="54.9" stroke="#C9352B" stroke-width="1.3" stroke-linecap="round"/>
<text class="mark" x="564.0" y="29.0" text-anchor="middle" font-size="9.0" fill="#1F2937">end-on, 8-12</text>
<text class="mark" x="504.0" y="150.0" font-size="9.0" fill="#6C4AB6">B<tspan dy="2.6" font-size="0.75em">1</tspan><tspan dy="-2.6"> 1.54</tspan></text>
<text class="mark" x="504.0" y="161.0" font-size="9.0" fill="#C9352B">B<tspan dy="2.6" font-size="0.75em">5</tspan><tspan dy="-2.6"> 6.05 &#8491;</tspan></text>
</svg>