<svg class="fig scene" xmlns="http://www.w3.org/2000/svg" viewBox="0 0 640 540" role="img" aria-label="Molecule with descriptor constructions">
<defs><radialGradient id="sgglossyC98A4B" cx="34%" cy="30%" r="70%"><stop offset="0" stop-color="#FFFFFF"/><stop offset="0.13" stop-color="#e9d0b7"/><stop offset="0.5" stop-color="#C98A4B"/><stop offset="1" stop-color="#5a3e22"/></radialGradient><radialGradient id="sgglossy36C24A" cx="34%" cy="30%" r="70%"><stop offset="0" stop-color="#FFFFFF"/><stop offset="0.13" stop-color="#afe7b7"/><stop offset="0.5" stop-color="#36C24A"/><stop offset="1" stop-color="#185721"/></radialGradient><radialGradient id="sgglossy4F5BEA" cx="34%" cy="30%" r="70%"><stop offset="0" stop-color="#FFFFFF"/><stop offset="0.13" stop-color="#b9bdf7"/><stop offset="0.5" stop-color="#4F5BEA"/><stop offset="1" stop-color="#242969"/></radialGradient><radialGradient id="sgglossyBFC3C8" cx="34%" cy="30%" r="70%"><stop offset="0" stop-color="#FFFFFF"/><stop offset="0.13" stop-color="#e5e7e9"/><stop offset="0.5" stop-color="#BFC3C8"/><stop offset="1" stop-color="#56585a"/></radialGradient><radialGradient id="sgglossyF7F7F7" cx="34%" cy="30%" r="70%"><stop offset="0" stop-color="#FFFFFF"/><stop offset="0.13" stop-color="#fcfcfc"/><stop offset="0.5" stop-color="#F7F7F7"/><stop offset="1" stop-color="#6f6f6f"/></radialGradient><radialGradient id="sgglossyE3241B" cx="34%" cy="30%" r="70%"><stop offset="0" stop-color="#FFFFFF"/><stop offset="0.13" stop-color="#f4a7a4"/><stop offset="0.5" stop-color="#E3241B"/><stop offset="1" stop-color="#66100c"/></radialGradient></defs>
<g>
<circle class="ball" cx="438.0" cy="287.3" r="6.1" fill="url(#sgglossyF7F7F7)" style="stroke:#3B424C;stroke-width:1.3px"/>
<g class="bond"><line x1="437.7" y1="293.4" x2="438.0" y2="287.3" style="stroke:#3B424C;stroke-width:7.0px;stroke-linecap:round"/><line x1="437.7" y1="293.4" x2="438.0" y2="287.3" style="stroke:#1D2025;stroke-width:4.4px;stroke-linecap:round"/></g>
<circle class="ball" cx="141.0" cy="255.2" r="6.1" fill="url(#sgglossyF7F7F7)" style="stroke:#3B424C;stroke-width:1.3px"/>
<circle class="ball" cx="284.0" cy="345.9" r="6.1" fill="url(#sgglossyF7F7F7)" style="stroke:#3B424C;stroke-width:1.3px"/>
<circle class="ball" cx="205.0" cy="276.1" r="6.1" fill="url(#sgglossyF7F7F7)" style="stroke:#3B424C;stroke-width:1.3px"/>
<g class="bond"><line x1="168.8" y1="268.3" x2="141.0" y2="255.2" style="stroke:#3B424C;stroke-width:7.0px;stroke-linecap:round"/><line x1="168.8" y1="268.3" x2="141.0" y2="255.2" style="stroke:#1D2025;stroke-width:4.4px;stroke-linecap:round"/></g>
<circle class="ball" cx="169.5" cy="164.4" r="6.1" fill="url(#sgglossyF7F7F7)" style="stroke:#3B424C;stroke-width:1.3px"/>
<circle class="ball" cx="437.7" cy="293.4" r="8.9" fill="url(#sgglossyBFC3C8)" style="stroke:#3B424C;stroke-width:1.3px"/>
<g class="bond"><line x1="168.8" y1="268.3" x2="205.0" y2="276.1" style="stroke:#3B424C;stroke-width:7.0px;stroke-linecap:round"/><line x1="168.8" y1="268.3" x2="205.0" y2="276.1" style="stroke:#1D2025;stroke-width:4.4px;stroke-linecap:round"/></g>
<g class="bond"><line x1="298.7" y1="369.7" x2="284.0" y2="345.9" style="stroke:#3B424C;stroke-width:7.0px;stroke-linecap:round"/><line x1="298.7" y1="369.7" x2="284.0" y2="345.9" style="stroke:#1D2025;stroke-width:4.4px;stroke-linecap:round"/></g>
<circle class="ball" cx="329.0" cy="394.2" r="6.1" fill="url(#sgglossyF7F7F7)" style="stroke:#3B424C;stroke-width:1.3px"/>
<circle class="ball" cx="417.2" cy="211.5" r="6.1" fill="url(#sgglossyF7F7F7)" style="stroke:#3B424C;stroke-width:1.3px"/>
<g class="bond"><line x1="437.7" y1="293.4" x2="474.2" y2="310.6" style="stroke:#3B424C;stroke-width:7.0px;stroke-linecap:round"/><line x1="437.7" y1="293.4" x2="474.2" y2="310.6" style="stroke:#1D2025;stroke-width:4.4px;stroke-linecap:round"/></g>
<g class="bond"><line x1="437.7" y1="293.4" x2="397.5" y2="328.8" style="stroke:#3B424C;stroke-width:7.0px;stroke-linecap:round"/><line x1="437.7" y1="293.4" x2="397.5" y2="328.8" style="stroke:#1D2025;stroke-width:4.4px;stroke-linecap:round"/></g>
<circle class="ball" cx="233.5" cy="184.8" r="6.1" fill="url(#sgglossyF7F7F7)" style="stroke:#3B424C;stroke-width:1.3px"/>
<g class="bond"><line x1="298.7" y1="369.7" x2="329.0" y2="394.2" style="stroke:#3B424C;stroke-width:7.0px;stroke-linecap:round"/><line x1="298.7" y1="369.7" x2="329.0" y2="394.2" style="stroke:#1D2025;stroke-width:4.4px;stroke-linecap:round"/></g>
<circle class="ball" cx="474.2" cy="310.6" r="6.1" fill="url(#sgglossyF7F7F7)" style="stroke:#3B424C;stroke-width:1.3px"/>
<circle class="ball" cx="397.5" cy="328.8" r="8.3" fill="url(#sgglossyE3241B)" style="stroke:#3B424C;stroke-width:1.3px"/>
<circle class="ball" cx="168.8" cy="268.3" r="8.9" fill="url(#sgglossyBFC3C8)" style="stroke:#3B424C;stroke-width:1.3px"/>
<g class="bond"><line x1="196.6" y1="177.7" x2="169.5" y2="164.4" style="stroke:#3B424C;stroke-width:7.0px;stroke-linecap:round"/><line x1="196.6" y1="177.7" x2="169.5" y2="164.4" style="stroke:#1D2025;stroke-width:4.4px;stroke-linecap:round"/></g>
<circle class="ball" cx="509.0" cy="185.5" r="6.1" fill="url(#sgglossyF7F7F7)" style="stroke:#3B424C;stroke-width:1.3px"/>
<g class="bond"><line x1="423.8" y1="244.0" x2="437.7" y2="293.4" style="stroke:#3B424C;stroke-width:7.0px;stroke-linecap:round"/><line x1="423.8" y1="244.0" x2="437.7" y2="293.4" style="stroke:#1D2025;stroke-width:4.4px;stroke-linecap:round"/></g>
<g class="bond"><line x1="423.8" y1="244.0" x2="417.2" y2="211.5" style="stroke:#3B424C;stroke-width:7.0px;stroke-linecap:round"/><line x1="423.8" y1="244.0" x2="417.2" y2="211.5" style="stroke:#1D2025;stroke-width:4.4px;stroke-linecap:round"/></g>
<g class="bond"><line x1="196.6" y1="177.7" x2="233.5" y2="184.8" style="stroke:#3B424C;stroke-width:7.0px;stroke-linecap:round"/><line x1="196.6" y1="177.7" x2="233.5" y2="184.8" style="stroke:#1D2025;stroke-width:4.4px;stroke-linecap:round"/></g>
<circle class="ball" cx="298.7" cy="369.7" r="8.9" fill="url(#sgglossyBFC3C8)" style="stroke:#3B424C;stroke-width:1.3px"/>
<g class="bond"><line x1="168.8" y1="268.3" x2="154.6" y2="304.0" style="stroke:#3B424C;stroke-width:7.0px;stroke-linecap:round"/><line x1="168.8" y1="268.3" x2="154.6" y2="304.0" style="stroke:#1D2025;stroke-width:4.4px;stroke-linecap:round"/></g>
<g class="bond"><line x1="298.7" y1="369.7" x2="267.6" y2="393.6" style="stroke:#3B424C;stroke-width:7.0px;stroke-linecap:round"/><line x1="298.7" y1="369.7" x2="267.6" y2="393.6" style="stroke:#1D2025;stroke-width:4.4px;stroke-linecap:round"/></g>
<circle class="ball" cx="531.4" cy="248.5" r="6.1" fill="url(#sgglossyF7F7F7)" style="stroke:#3B424C;stroke-width:1.3px"/>
<g class="bond"><line x1="364.0" y1="304.0" x2="397.5" y2="328.8" style="stroke:#3B424C;stroke-width:7.0px;stroke-linecap:round"/><line x1="364.0" y1="304.0" x2="397.5" y2="328.8" style="stroke:#1D2025;stroke-width:4.4px;stroke-linecap:round"/></g>
<circle class="ball" cx="196.6" cy="177.7" r="8.9" fill="url(#sgglossyBFC3C8)" style="stroke:#3B424C;stroke-width:1.3px"/>
<g class="bond"><line x1="514.6" y1="214.5" x2="509.0" y2="185.5" style="stroke:#3B424C;stroke-width:7.0px;stroke-linecap:round"/><line x1="514.6" y1="214.5" x2="509.0" y2="185.5" style="stroke:#1D2025;stroke-width:4.4px;stroke-linecap:round"/></g>
<circle class="ball" cx="154.6" cy="304.0" r="6.1" fill="url(#sgglossyF7F7F7)" style="stroke:#3B424C;stroke-width:1.3px"/>
<circle class="ball" cx="423.8" cy="244.0" r="8.9" fill="url(#sgglossyBFC3C8)" style="stroke:#3B424C;stroke-width:1.3px"/>
<g class="bond"><line x1="176.4" y1="226.6" x2="168.8" y2="268.3" style="stroke:#3B424C;stroke-width:7.0px;stroke-linecap:round"/><line x1="176.4" y1="226.6" x2="168.8" y2="268.3" style="stroke:#1D2025;stroke-width:4.4px;stroke-linecap:round"/></g>
<circle class="ball" cx="267.6" cy="393.6" r="6.1" fill="url(#sgglossyF7F7F7)" style="stroke:#3B424C;stroke-width:1.3px"/>
<g class="bond"><line x1="514.6" y1="214.5" x2="531.4" y2="248.5" style="stroke:#3B424C;stroke-width:7.0px;stroke-linecap:round"/><line x1="514.6" y1="214.5" x2="531.4" y2="248.5" style="stroke:#1D2025;stroke-width:4.4px;stroke-linecap:round"/></g>
<g class="bond"><line x1="320.0" y1="335.7" x2="298.7" y2="369.7" style="stroke:#3B424C;stroke-width:7.0px;stroke-linecap:round"/><line x1="320.0" y1="335.7" x2="298.7" y2="369.7" style="stroke:#1D2025;stroke-width:4.4px;stroke-linecap:round"/></g>
<g class="bond"><line x1="176.4" y1="226.6" x2="196.6" y2="177.7" style="stroke:#3B424C;stroke-width:7.0px;stroke-linecap:round"/><line x1="176.4" y1="226.6" x2="196.6" y2="177.7" style="stroke:#1D2025;stroke-width:4.4px;stroke-linecap:round"/></g>
<g class="bond"><line x1="374.9" y1="257.6" x2="423.8" y2="244.0" style="stroke:#3B424C;stroke-width:7.0px;stroke-linecap:round"/><line x1="374.9" y1="257.6" x2="423.8" y2="244.0" style="stroke:#1D2025;stroke-width:4.4px;stroke-linecap:round"/></g>
<g class="bond"><line x1="196.6" y1="177.7" x2="202.2" y2="147.1" style="stroke:#3B424C;stroke-width:7.0px;stroke-linecap:round"/><line x1="196.6" y1="177.7" x2="202.2" y2="147.1" style="stroke:#1D2025;stroke-width:4.4px;stroke-linecap:round"/></g>
<circle class="ball" cx="364.0" cy="304.0" r="8.9" fill="url(#sgglossyBFC3C8)" style="stroke:#3B424C;stroke-width:1.3px"/>
<circle class="ball" cx="514.6" cy="214.5" r="8.9" fill="url(#sgglossyBFC3C8)" style="stroke:#3B424C;stroke-width:1.3px"/>
<g class="bond"><line x1="374.9" y1="257.6" x2="364.0" y2="304.0" style="stroke:#3B424C;stroke-width:7.0px;stroke-linecap:round"/><line x1="374.9" y1="257.6" x2="364.0" y2="304.0" style="stroke:#1D2025;stroke-width:4.4px;stroke-linecap:round"/></g>
<g class="bond"><line x1="423.8" y1="244.0" x2="463.6" y2="226.6" style="stroke:#3B424C;stroke-width:7.0px;stroke-linecap:round"/><line x1="423.8" y1="244.0" x2="463.6" y2="226.6" style="stroke:#1D2025;stroke-width:4.4px;stroke-linecap:round"/></g>
<g class="bond"><line x1="320.0" y1="335.7" x2="364.0" y2="304.0" style="stroke:#3B424C;stroke-width:7.0px;stroke-linecap:round"/><line x1="320.0" y1="335.7" x2="364.0" y2="304.0" style="stroke:#1D2025;stroke-width:4.4px;stroke-linecap:round"/></g>
<circle class="ball" cx="98.1" cy="199.6" r="6.1" fill="url(#sgglossyF7F7F7)" style="stroke:#3B424C;stroke-width:1.3px"/>
<circle class="ball" cx="176.4" cy="226.6" r="8.9" fill="url(#sgglossyBFC3C8)" style="stroke:#3B424C;stroke-width:1.3px"/>
<circle class="ball" cx="374.9" cy="257.6" r="8.6" fill="url(#sgglossy4F5BEA)" style="stroke:#3B424C;stroke-width:1.3px"/>
<circle class="ball" cx="202.2" cy="147.1" r="6.1" fill="url(#sgglossyF7F7F7)" style="stroke:#3B424C;stroke-width:1.3px"/>
<g class="bond"><line x1="463.6" y1="226.6" x2="514.6" y2="214.5" style="stroke:#3B424C;stroke-width:7.0px;stroke-linecap:round"/><line x1="463.6" y1="226.6" x2="514.6" y2="214.5" style="stroke:#1D2025;stroke-width:4.4px;stroke-linecap:round"/></g>
<g class="bond"><line x1="320.0" y1="204.1" x2="374.9" y2="257.6" style="stroke:#3B424C;stroke-width:7.0px;stroke-linecap:round" stroke-dasharray="4.0 3.3"/><line x1="320.0" y1="204.1" x2="374.9" y2="257.6" style="stroke:#1D2025;stroke-width:4.4px;stroke-linecap:round" stroke-dasharray="4.0 3.3"/></g>
<g class="bond"><line x1="514.6" y1="214.5" x2="541.9" y2="199.6" style="stroke:#3B424C;stroke-width:7.0px;stroke-linecap:round"/><line x1="514.6" y1="214.5" x2="541.9" y2="199.6" style="stroke:#1D2025;stroke-width:4.4px;stroke-linecap:round"/></g>
<circle class="ball" cx="320.0" cy="335.7" r="8.9" fill="url(#sgglossyBFC3C8)" style="stroke:#3B424C;stroke-width:1.3px"/>
<circle class="ball" cx="320.0" cy="204.1" r="12.4" fill="url(#sgglossyC98A4B)" style="stroke:#3B424C;stroke-width:1.3px"/>
<g class="bond"><line x1="320.0" y1="204.1" x2="320.0" y2="121.8" style="stroke:#3B424C;stroke-width:7.0px;stroke-linecap:round" stroke-dasharray="4.0 3.3"/><line x1="320.0" y1="204.1" x2="320.0" y2="121.8" style="stroke:#1D2025;stroke-width:4.4px;stroke-linecap:round" stroke-dasharray="4.0 3.3"/></g>
<circle class="ball" cx="320.0" cy="121.8" r="10.5" fill="url(#sgglossy36C24A)" style="stroke:#3B424C;stroke-width:1.3px"/>
<g class="bond"><line x1="125.4" y1="214.5" x2="98.1" y2="199.6" style="stroke:#3B424C;stroke-width:7.0px;stroke-linecap:round"/><line x1="125.4" y1="214.5" x2="98.1" y2="199.6" style="stroke:#1D2025;stroke-width:4.4px;stroke-linecap:round"/></g>
<g class="bond"><line x1="320.0" y1="204.1" x2="265.1" y2="257.6" style="stroke:#3B424C;stroke-width:7.0px;stroke-linecap:round" stroke-dasharray="4.0 3.3"/><line x1="320.0" y1="204.1" x2="265.1" y2="257.6" style="stroke:#1D2025;stroke-width:4.4px;stroke-linecap:round" stroke-dasharray="4.0 3.3"/></g>
<g class="bond"><line x1="176.4" y1="226.6" x2="125.4" y2="214.5" style="stroke:#3B424C;stroke-width:7.0px;stroke-linecap:round"/><line x1="176.4" y1="226.6" x2="125.4" y2="214.5" style="stroke:#1D2025;stroke-width:4.4px;stroke-linecap:round"/></g>
<circle class="ball" cx="437.8" cy="147.1" r="6.1" fill="url(#sgglossyF7F7F7)" style="stroke:#3B424C;stroke-width:1.3px"/>
<circle class="ball" cx="463.6" cy="226.6" r="8.9" fill="url(#sgglossyBFC3C8)" style="stroke:#3B424C;stroke-width:1.3px"/>
<circle class="ball" cx="265.1" cy="257.6" r="8.6" fill="url(#sgglossy4F5BEA)" style="stroke:#3B424C;stroke-width:1.3px"/>
<circle class="ball" cx="541.9" cy="199.6" r="6.1" fill="url(#sgglossyF7F7F7)" style="stroke:#3B424C;stroke-width:1.3px"/>
<g class="bond"><line x1="320.0" y1="335.7" x2="276.0" y2="304.0" style="stroke:#3B424C;stroke-width:7.0px;stroke-linecap:round"/><line x1="320.0" y1="335.7" x2="276.0" y2="304.0" style="stroke:#1D2025;stroke-width:4.4px;stroke-linecap:round"/></g>
<g class="bond"><line x1="216.2" y1="244.0" x2="176.4" y2="226.6" style="stroke:#3B424C;stroke-width:7.0px;stroke-linecap:round"/><line x1="216.2" y1="244.0" x2="176.4" y2="226.6" style="stroke:#1D2025;stroke-width:4.4px;stroke-linecap:round"/></g>
<g class="bond"><line x1="265.1" y1="257.6" x2="276.0" y2="304.0" style="stroke:#3B424C;stroke-width:7.0px;stroke-linecap:round"/><line x1="265.1" y1="257.6" x2="276.0" y2="304.0" style="stroke:#1D2025;stroke-width:4.4px;stroke-linecap:round"/></g>
<circle class="ball" cx="125.4" cy="214.5" r="8.9" fill="url(#sgglossyBFC3C8)" style="stroke:#3B424C;stroke-width:1.3px"/>
<circle class="ball" cx="276.0" cy="304.0" r="8.9" fill="url(#sgglossyBFC3C8)" style="stroke:#3B424C;stroke-width:1.3px"/>
<g class="bond"><line x1="265.1" y1="257.6" x2="216.2" y2="244.0" style="stroke:#3B424C;stroke-width:7.0px;stroke-linecap:round"/><line x1="265.1" y1="257.6" x2="216.2" y2="244.0" style="stroke:#1D2025;stroke-width:4.4px;stroke-linecap:round"/></g>
<g class="bond"><line x1="443.4" y1="177.7" x2="437.8" y2="147.1" style="stroke:#3B424C;stroke-width:7.0px;stroke-linecap:round"/><line x1="443.4" y1="177.7" x2="437.8" y2="147.1" style="stroke:#1D2025;stroke-width:4.4px;stroke-linecap:round"/></g>
<g class="bond"><line x1="463.6" y1="226.6" x2="443.4" y2="177.7" style="stroke:#3B424C;stroke-width:7.0px;stroke-linecap:round"/><line x1="463.6" y1="226.6" x2="443.4" y2="177.7" style="stroke:#1D2025;stroke-width:4.4px;stroke-linecap:round"/></g>
<g class="bond"><line x1="341.3" y1="369.7" x2="320.0" y2="335.7" style="stroke:#3B424C;stroke-width:7.0px;stroke-linecap:round"/><line x1="341.3" y1="369.7" x2="320.0" y2="335.7" style="stroke:#1D2025;stroke-width:4.4px;stroke-linecap:round"/></g>
<g class="bond"><line x1="125.4" y1="214.5" x2="108.5" y2="248.5" style="stroke:#3B424C;stroke-width:7.0px;stroke-linecap:round"/><line x1="125.4" y1="214.5" x2="108.5" y2="248.5" style="stroke:#1D2025;stroke-width:4.4px;stroke-linecap:round"/></g>
<circle class="ball" cx="372.4" cy="393.5" r="6.1" fill="url(#sgglossyF7F7F7)" style="stroke:#3B424C;stroke-width:1.3px"/>
<g class="bond"><line x1="463.6" y1="226.6" x2="471.2" y2="268.3" style="stroke:#3B424C;stroke-width:7.0px;stroke-linecap:round"/><line x1="463.6" y1="226.6" x2="471.2" y2="268.3" style="stroke:#1D2025;stroke-width:4.4px;stroke-linecap:round"/></g>
<circle class="ball" cx="216.2" cy="244.0" r="8.9" fill="url(#sgglossyBFC3C8)" style="stroke:#3B424C;stroke-width:1.3px"/>
<circle class="ball" cx="485.5" cy="304.1" r="6.1" fill="url(#sgglossyF7F7F7)" style="stroke:#3B424C;stroke-width:1.3px"/>
<g class="bond"><line x1="125.4" y1="214.5" x2="130.9" y2="185.6" style="stroke:#3B424C;stroke-width:7.0px;stroke-linecap:round"/><line x1="125.4" y1="214.5" x2="130.9" y2="185.6" style="stroke:#1D2025;stroke-width:4.4px;stroke-linecap:round"/></g>
<circle class="ball" cx="443.4" cy="177.7" r="8.9" fill="url(#sgglossyBFC3C8)" style="stroke:#3B424C;stroke-width:1.3px"/>
<g class="bond"><line x1="276.0" y1="304.0" x2="242.4" y2="328.8" style="stroke:#3B424C;stroke-width:7.0px;stroke-linecap:round"/><line x1="276.0" y1="304.0" x2="242.4" y2="328.8" style="stroke:#1D2025;stroke-width:4.4px;stroke-linecap:round"/></g>
<circle class="ball" cx="108.5" cy="248.5" r="6.1" fill="url(#sgglossyF7F7F7)" style="stroke:#3B424C;stroke-width:1.3px"/>
<g class="bond"><line x1="341.3" y1="369.7" x2="372.4" y2="393.5" style="stroke:#3B424C;stroke-width:7.0px;stroke-linecap:round"/><line x1="341.3" y1="369.7" x2="372.4" y2="393.5" style="stroke:#1D2025;stroke-width:4.4px;stroke-linecap:round"/></g>
<g class="bond"><line x1="471.2" y1="268.3" x2="485.5" y2="304.1" style="stroke:#3B424C;stroke-width:7.0px;stroke-linecap:round"/><line x1="471.2" y1="268.3" x2="485.5" y2="304.1" style="stroke:#1D2025;stroke-width:4.4px;stroke-linecap:round"/></g>
<circle class="ball" cx="341.3" cy="369.7" r="8.9" fill="url(#sgglossyBFC3C8)" style="stroke:#3B424C;stroke-width:1.3px"/>
<g class="bond"><line x1="443.4" y1="177.7" x2="406.5" y2="184.8" style="stroke:#3B424C;stroke-width:7.0px;stroke-linecap:round"/><line x1="443.4" y1="177.7" x2="406.5" y2="184.8" style="stroke:#1D2025;stroke-width:4.4px;stroke-linecap:round"/></g>
<g class="bond"><line x1="216.2" y1="244.0" x2="222.8" y2="211.5" style="stroke:#3B424C;stroke-width:7.0px;stroke-linecap:round"/><line x1="216.2" y1="244.0" x2="222.8" y2="211.5" style="stroke:#1D2025;stroke-width:4.4px;stroke-linecap:round"/></g>
<g class="bond"><line x1="202.3" y1="293.4" x2="216.2" y2="244.0" style="stroke:#3B424C;stroke-width:7.0px;stroke-linecap:round"/><line x1="202.3" y1="293.4" x2="216.2" y2="244.0" style="stroke:#1D2025;stroke-width:4.4px;stroke-linecap:round"/></g>
<circle class="ball" cx="130.9" cy="185.6" r="6.1" fill="url(#sgglossyF7F7F7)" style="stroke:#3B424C;stroke-width:1.3px"/>
<g class="bond"><line x1="443.4" y1="177.7" x2="470.6" y2="164.4" style="stroke:#3B424C;stroke-width:7.0px;stroke-linecap:round"/><line x1="443.4" y1="177.7" x2="470.6" y2="164.4" style="stroke:#1D2025;stroke-width:4.4px;stroke-linecap:round"/></g>
<circle class="ball" cx="471.2" cy="268.3" r="8.9" fill="url(#sgglossyBFC3C8)" style="stroke:#3B424C;stroke-width:1.3px"/>
<circle class="ball" cx="242.4" cy="328.8" r="8.3" fill="url(#sgglossyE3241B)" style="stroke:#3B424C;stroke-width:1.3px"/>
<circle class="ball" cx="165.8" cy="310.6" r="6.1" fill="url(#sgglossyF7F7F7)" style="stroke:#3B424C;stroke-width:1.3px"/>
<g class="bond"><line x1="341.3" y1="369.7" x2="311.0" y2="394.2" style="stroke:#3B424C;stroke-width:7.0px;stroke-linecap:round"/><line x1="341.3" y1="369.7" x2="311.0" y2="394.2" style="stroke:#1D2025;stroke-width:4.4px;stroke-linecap:round"/></g>
<circle class="ball" cx="406.5" cy="184.8" r="6.1" fill="url(#sgglossyF7F7F7)" style="stroke:#3B424C;stroke-width:1.3px"/>
<g class="bond"><line x1="242.4" y1="328.8" x2="202.3" y2="293.4" style="stroke:#3B424C;stroke-width:7.0px;stroke-linecap:round"/><line x1="242.4" y1="328.8" x2="202.3" y2="293.4" style="stroke:#1D2025;stroke-width:4.4px;stroke-linecap:round"/></g>
<g class="bond"><line x1="202.3" y1="293.4" x2="165.8" y2="310.6" style="stroke:#3B424C;stroke-width:7.0px;stroke-linecap:round"/><line x1="202.3" y1="293.4" x2="165.8" y2="310.6" style="stroke:#1D2025;stroke-width:4.4px;stroke-linecap:round"/></g>
<circle class="ball" cx="222.8" cy="211.5" r="6.1" fill="url(#sgglossyF7F7F7)" style="stroke:#3B424C;stroke-width:1.3px"/>
<circle class="ball" cx="311.0" cy="394.2" r="6.1" fill="url(#sgglossyF7F7F7)" style="stroke:#3B424C;stroke-width:1.3px"/>
<g class="bond"><line x1="341.3" y1="369.7" x2="356.0" y2="345.8" style="stroke:#3B424C;stroke-width:7.0px;stroke-linecap:round"/><line x1="341.3" y1="369.7" x2="356.0" y2="345.8" style="stroke:#1D2025;stroke-width:4.4px;stroke-linecap:round"/></g>
<g class="bond"><line x1="471.2" y1="268.3" x2="435.1" y2="276.1" style="stroke:#3B424C;stroke-width:7.0px;stroke-linecap:round"/><line x1="471.2" y1="268.3" x2="435.1" y2="276.1" style="stroke:#1D2025;stroke-width:4.4px;stroke-linecap:round"/></g>
<circle class="ball" cx="202.3" cy="293.4" r="8.9" fill="url(#sgglossyBFC3C8)" style="stroke:#3B424C;stroke-width:1.3px"/>
<circle class="ball" cx="470.6" cy="164.4" r="6.1" fill="url(#sgglossyF7F7F7)" style="stroke:#3B424C;stroke-width:1.3px"/>
<g class="bond"><line x1="471.2" y1="268.3" x2="499.0" y2="255.3" style="stroke:#3B424C;stroke-width:7.0px;stroke-linecap:round"/><line x1="471.2" y1="268.3" x2="499.0" y2="255.3" style="stroke:#1D2025;stroke-width:4.4px;stroke-linecap:round"/></g>
<circle class="ball" cx="435.1" cy="276.1" r="6.1" fill="url(#sgglossyF7F7F7)" style="stroke:#3B424C;stroke-width:1.3px"/>
<circle class="ball" cx="356.0" cy="345.8" r="6.1" fill="url(#sgglossyF7F7F7)" style="stroke:#3B424C;stroke-width:1.3px"/>
<circle class="ball" cx="499.0" cy="255.3" r="6.1" fill="url(#sgglossyF7F7F7)" style="stroke:#3B424C;stroke-width:1.3px"/>
<g class="bond"><line x1="202.3" y1="293.4" x2="201.9" y2="287.4" style="stroke:#3B424C;stroke-width:7.0px;stroke-linecap:round"/><line x1="202.3" y1="293.4" x2="201.9" y2="287.4" style="stroke:#1D2025;stroke-width:4.4px;stroke-linecap:round"/></g>
<circle class="ball" cx="201.9" cy="287.4" r="6.1" fill="url(#sgglossyF7F7F7)" style="stroke:#3B424C;stroke-width:1.3px"/>
</g>
</svg>