<svg class="fig scene" xmlns="http://www.w3.org/2000/svg" viewBox="0 0 640 540" role="img" aria-label="Molecule with descriptor constructions">
<defs><radialGradient id="sgglossyBFC3C8" cx="34%" cy="30%" r="70%"><stop offset="0" stop-color="#FFFFFF"/><stop offset="0.13" stop-color="#e5e7e9"/><stop offset="0.5" stop-color="#BFC3C8"/><stop offset="1" stop-color="#56585a"/></radialGradient><radialGradient id="sgglossyF7F7F7" cx="34%" cy="30%" r="70%"><stop offset="0" stop-color="#FFFFFF"/><stop offset="0.13" stop-color="#fcfcfc"/><stop offset="0.5" stop-color="#F7F7F7"/><stop offset="1" stop-color="#6f6f6f"/></radialGradient><radialGradient id="sgglossyE3241B" cx="34%" cy="30%" r="70%"><stop offset="0" stop-color="#FFFFFF"/><stop offset="0.13" stop-color="#f4a7a4"/><stop offset="0.5" stop-color="#E3241B"/><stop offset="1" stop-color="#66100c"/></radialGradient><radialGradient id="sgglossy4F5BEA" cx="34%" cy="30%" r="70%"><stop offset="0" stop-color="#FFFFFF"/><stop offset="0.13" stop-color="#b9bdf7"/><stop offset="0.5" stop-color="#4F5BEA"/><stop offset="1" stop-color="#242969"/></radialGradient><marker id="mk151A21" viewBox="0 0 10 10" refX="8.5" refY="5" markerWidth="5.2" markerHeight="5.2" orient="auto"><path d="M0,0 L10,5 L0,10 z" fill="#151A21"/></marker><marker id="mk6C4AB6" viewBox="0 0 10 10" refX="8.5" refY="5" markerWidth="5.2" markerHeight="5.2" orient="auto"><path d="M0,0 L10,5 L0,10 z" fill="#6C4AB6"/></marker><marker id="mkC9352B" viewBox="0 0 10 10" refX="8.5" refY="5" markerWidth="5.2" markerHeight="5.2" orient="auto"><path d="M0,0 L10,5 L0,10 z" fill="#C9352B"/></marker></defs>
<g>
<circle class="ball ghost" cx="364.0" cy="368.0" r="5.8" fill="url(#sgglossyF7F7F7)" style="stroke:#3B424C;stroke-width:1.1px"/>
<circle class="ball" cx="98.7" cy="215.0" r="5.8" fill="url(#sgglossyF7F7F7)" style="stroke:#3B424C;stroke-width:1.1px"/>
<circle class="ball ghost" cx="160.0" cy="387.1" r="5.8" fill="url(#sgglossyF7F7F7)" style="stroke:#3B424C;stroke-width:1.1px"/>
<g class="bond ghost"><line x1="365.7" y1="349.2" x2="364.0" y2="368.0" style="stroke:#3B424C;stroke-width:6.3px;stroke-linecap:round"/><line x1="365.7" y1="349.2" x2="364.0" y2="368.0" style="stroke:#1D2025;stroke-width:4.1px;stroke-linecap:round"/></g>
<circle class="ball" cx="128.9" cy="306.3" r="5.8" fill="url(#sgglossyF7F7F7)" style="stroke:#3B424C;stroke-width:1.1px"/>
<g class="bond"><line x1="138.4" y1="223.1" x2="98.7" y2="215.0" style="stroke:#3B424C;stroke-width:6.3px;stroke-linecap:round"/><line x1="138.4" y1="223.1" x2="98.7" y2="215.0" style="stroke:#1D2025;stroke-width:4.1px;stroke-linecap:round"/></g>
<circle class="ball ghost" cx="357.3" cy="242.4" r="5.8" fill="url(#sgglossyF7F7F7)" style="stroke:#3B424C;stroke-width:1.1px"/>
<g class="bond"><line x1="155.8" y1="274.9" x2="128.9" y2="306.3" style="stroke:#3B424C;stroke-width:6.3px;stroke-linecap:round"/><line x1="155.8" y1="274.9" x2="128.9" y2="306.3" style="stroke:#1D2025;stroke-width:4.1px;stroke-linecap:round"/></g>
<circle class="ball ghost" cx="429.0" cy="176.7" r="5.8" fill="url(#sgglossyF7F7F7)" style="stroke:#3B424C;stroke-width:1.1px"/>
<circle class="ball" cx="138.4" cy="223.1" r="8.4" fill="url(#sgglossyBFC3C8)" style="stroke:#3B424C;stroke-width:1.1px"/>
<g class="bond ghost"><line x1="397.6" y1="255.0" x2="357.3" y2="242.4" style="stroke:#3B424C;stroke-width:6.3px;stroke-linecap:round"/><line x1="397.6" y1="255.0" x2="357.3" y2="242.4" style="stroke:#1D2025;stroke-width:4.1px;stroke-linecap:round"/></g>
<g class="bond ghost"><line x1="438.1" y1="218.1" x2="429.0" y2="176.7" style="stroke:#3B424C;stroke-width:6.3px;stroke-linecap:round"/><line x1="438.1" y1="218.1" x2="429.0" y2="176.7" style="stroke:#1D2025;stroke-width:4.1px;stroke-linecap:round"/></g>
<g class="bond"><line x1="138.4" y1="223.1" x2="155.8" y2="274.9" style="stroke:#3B424C;stroke-width:6.3px;stroke-linecap:round"/><line x1="138.4" y1="223.1" x2="155.8" y2="274.9" style="stroke:#1D2025;stroke-width:4.1px;stroke-linecap:round"/></g>
<circle class="ball ghost" cx="397.6" cy="255.0" r="8.4" fill="url(#sgglossyBFC3C8)" style="stroke:#3B424C;stroke-width:1.1px"/>
<g class="bond ghost"><line x1="397.6" y1="255.0" x2="438.1" y2="218.1" style="stroke:#3B424C;stroke-width:6.3px;stroke-linecap:round"/><line x1="397.6" y1="255.0" x2="438.1" y2="218.1" style="stroke:#1D2025;stroke-width:4.1px;stroke-linecap:round"/></g>
<circle class="ball" cx="155.8" cy="274.9" r="8.4" fill="url(#sgglossyBFC3C8)" style="stroke:#3B424C;stroke-width:1.1px"/>
<circle class="ball ghost" cx="438.1" cy="218.1" r="8.4" fill="url(#sgglossyBFC3C8)" style="stroke:#3B424C;stroke-width:1.1px"/>
<g class="bond"><line x1="171.5" y1="181.7" x2="138.4" y2="223.1" style="stroke:#3B424C;stroke-width:6.3px;stroke-linecap:round"/><line x1="171.5" y1="181.7" x2="138.4" y2="223.1" style="stroke:#1D2025;stroke-width:4.1px;stroke-linecap:round"/></g>
<g class="bond ghost"><line x1="182.2" y1="384.9" x2="160.0" y2="387.1" style="stroke:#3B424C;stroke-width:6.3px;stroke-linecap:round"/><line x1="182.2" y1="384.9" x2="160.0" y2="387.1" style="stroke:#1D2025;stroke-width:4.1px;stroke-linecap:round"/></g>
<g class="bond ghost"><line x1="408.6" y1="308.2" x2="397.6" y2="255.0" style="stroke:#3B424C;stroke-width:6.3px;stroke-linecap:round"/><line x1="408.6" y1="308.2" x2="397.6" y2="255.0" style="stroke:#1D2025;stroke-width:4.1px;stroke-linecap:round"/></g>
<g class="bond ghost"><line x1="438.1" y1="218.1" x2="489.9" y2="234.1" style="stroke:#3B424C;stroke-width:6.3px;stroke-linecap:round"/><line x1="438.1" y1="218.1" x2="489.9" y2="234.1" style="stroke:#1D2025;stroke-width:4.1px;stroke-linecap:round"/></g>
<circle class="ball ghost" cx="365.7" cy="349.2" r="8.4" fill="url(#sgglossyBFC3C8)" style="stroke:#3B424C;stroke-width:1.1px"/>
<circle class="ball" cx="158.7" cy="141.1" r="5.8" fill="url(#sgglossyF7F7F7)" style="stroke:#3B424C;stroke-width:1.1px"/>
<g class="bond ghost"><line x1="365.7" y1="349.2" x2="408.6" y2="308.2" style="stroke:#3B424C;stroke-width:6.3px;stroke-linecap:round"/><line x1="365.7" y1="349.2" x2="408.6" y2="308.2" style="stroke:#1D2025;stroke-width:4.1px;stroke-linecap:round"/></g>
<circle class="ball ghost" cx="408.6" cy="308.2" r="8.4" fill="url(#sgglossyBFC3C8)" style="stroke:#3B424C;stroke-width:1.1px"/>
<g class="bond"><line x1="171.5" y1="181.7" x2="158.7" y2="141.1" style="stroke:#3B424C;stroke-width:6.3px;stroke-linecap:round"/><line x1="171.5" y1="181.7" x2="158.7" y2="141.1" style="stroke:#1D2025;stroke-width:4.1px;stroke-linecap:round"/></g>
<circle class="ball ghost" cx="489.9" cy="234.1" r="8.4" fill="url(#sgglossyBFC3C8)" style="stroke:#3B424C;stroke-width:1.1px"/>
<g class="bond"><line x1="206.9" y1="287.1" x2="155.8" y2="274.9" style="stroke:#3B424C;stroke-width:6.3px;stroke-linecap:round"/><line x1="206.9" y1="287.1" x2="155.8" y2="274.9" style="stroke:#1D2025;stroke-width:4.1px;stroke-linecap:round"/></g>
<g class="bond ghost"><line x1="489.9" y1="234.1" x2="521.4" y2="205.3" style="stroke:#3B424C;stroke-width:6.3px;stroke-linecap:round"/><line x1="489.9" y1="234.1" x2="521.4" y2="205.3" style="stroke:#1D2025;stroke-width:4.1px;stroke-linecap:round"/></g>
<circle class="ball ghost" cx="521.4" cy="205.3" r="5.8" fill="url(#sgglossyF7F7F7)" style="stroke:#3B424C;stroke-width:1.1px"/>
<circle class="ball" cx="171.5" cy="181.7" r="8.4" fill="url(#sgglossyBFC3C8)" style="stroke:#3B424C;stroke-width:1.1px"/>
<g class="bond ghost"><line x1="316.3" y1="325.1" x2="365.7" y2="349.2" style="stroke:#3B424C;stroke-width:6.3px;stroke-linecap:round"/><line x1="316.3" y1="325.1" x2="365.7" y2="349.2" style="stroke:#1D2025;stroke-width:4.1px;stroke-linecap:round"/></g>
<g class="bond ghost"><line x1="408.6" y1="308.2" x2="460.5" y2="324.0" style="stroke:#3B424C;stroke-width:6.3px;stroke-linecap:round"/><line x1="408.6" y1="308.2" x2="460.5" y2="324.0" style="stroke:#1D2025;stroke-width:4.1px;stroke-linecap:round"/></g>
<g class="bond ghost"><line x1="501.1" y1="287.2" x2="489.9" y2="234.1" style="stroke:#3B424C;stroke-width:6.3px;stroke-linecap:round"/><line x1="501.1" y1="287.2" x2="489.9" y2="234.1" style="stroke:#1D2025;stroke-width:4.1px;stroke-linecap:round"/></g>
<circle class="ball ghost" cx="460.5" cy="324.0" r="8.4" fill="url(#sgglossyBFC3C8)" style="stroke:#3B424C;stroke-width:1.1px"/>
<g class="bond ghost"><line x1="460.5" y1="324.0" x2="501.1" y2="287.2" style="stroke:#3B424C;stroke-width:6.3px;stroke-linecap:round"/><line x1="460.5" y1="324.0" x2="501.1" y2="287.2" style="stroke:#1D2025;stroke-width:4.1px;stroke-linecap:round"/></g>
<circle class="ball ghost" cx="501.1" cy="287.2" r="8.4" fill="url(#sgglossyBFC3C8)" style="stroke:#3B424C;stroke-width:1.1px"/>
<circle class="ball" cx="206.9" cy="287.1" r="8.4" fill="url(#sgglossyBFC3C8)" style="stroke:#3B424C;stroke-width:1.1px"/>
<circle class="ball ghost" cx="316.3" cy="325.1" r="7.9" fill="url(#sgglossyE3241B)" style="stroke:#3B424C;stroke-width:1.1px"/>
<g class="bond ghost"><line x1="274.6" y1="358.2" x2="316.3" y2="325.1" style="stroke:#3B424C;stroke-width:6.3px;stroke-linecap:round"/><line x1="274.6" y1="358.2" x2="316.3" y2="325.1" style="stroke:#1D2025;stroke-width:4.1px;stroke-linecap:round"/></g>
<g class="bond"><line x1="222.3" y1="193.3" x2="171.5" y2="181.7" style="stroke:#3B424C;stroke-width:6.3px;stroke-linecap:round"/><line x1="222.3" y1="193.3" x2="171.5" y2="181.7" style="stroke:#1D2025;stroke-width:4.1px;stroke-linecap:round"/></g>
<g class="bond"><line x1="224.1" y1="342.8" x2="206.9" y2="287.1" style="stroke:#3B424C;stroke-width:6.3px;stroke-linecap:round"/><line x1="224.1" y1="342.8" x2="206.9" y2="287.1" style="stroke:#1D2025;stroke-width:4.1px;stroke-linecap:round"/></g>
<g class="bond ghost"><line x1="460.5" y1="324.0" x2="469.3" y2="365.4" style="stroke:#3B424C;stroke-width:6.3px;stroke-linecap:round"/><line x1="460.5" y1="324.0" x2="469.3" y2="365.4" style="stroke:#1D2025;stroke-width:4.1px;stroke-linecap:round"/></g>
<g class="bond ghost"><line x1="501.1" y1="287.2" x2="541.3" y2="300.0" style="stroke:#3B424C;stroke-width:6.3px;stroke-linecap:round"/><line x1="501.1" y1="287.2" x2="541.3" y2="300.0" style="stroke:#1D2025;stroke-width:4.1px;stroke-linecap:round"/></g>
<circle class="ball ghost" cx="274.6" cy="358.2" r="8.4" fill="url(#sgglossyBFC3C8)" style="stroke:#3B424C;stroke-width:1.1px"/>
<g class="bond ghost"><line x1="224.1" y1="342.8" x2="274.6" y2="358.2" style="stroke:#3B424C;stroke-width:6.3px;stroke-linecap:round"/><line x1="224.1" y1="342.8" x2="274.6" y2="358.2" style="stroke:#1D2025;stroke-width:4.1px;stroke-linecap:round"/></g>
<circle class="ball" cx="224.1" cy="342.8" r="8.4" fill="url(#sgglossyBFC3C8)" style="stroke:#3B424C;stroke-width:1.1px"/>
<g class="bond ghost"><line x1="274.6" y1="358.2" x2="284.5" y2="399.9" style="stroke:#3B424C;stroke-width:6.3px;stroke-linecap:round"/><line x1="274.6" y1="358.2" x2="284.5" y2="399.9" style="stroke:#1D2025;stroke-width:4.1px;stroke-linecap:round"/></g>
<g class="bond ghost"><line x1="224.1" y1="342.8" x2="182.2" y2="384.9" style="stroke:#3B424C;stroke-width:6.3px;stroke-linecap:round"/><line x1="224.1" y1="342.8" x2="182.2" y2="384.9" style="stroke:#1D2025;stroke-width:4.1px;stroke-linecap:round"/></g>
<g class="bond ghost"><line x1="365.7" y1="349.2" x2="373.6" y2="379.9" style="stroke:#3B424C;stroke-width:6.3px;stroke-linecap:round"/><line x1="365.7" y1="349.2" x2="373.6" y2="379.9" style="stroke:#1D2025;stroke-width:4.1px;stroke-linecap:round"/></g>
<circle class="ball ghost" cx="284.5" cy="399.9" r="5.8" fill="url(#sgglossyF7F7F7)" style="stroke:#3B424C;stroke-width:1.1px"/>
<circle class="ball ghost" cx="182.2" cy="384.9" r="8.4" fill="url(#sgglossyBFC3C8)" style="stroke:#3B424C;stroke-width:1.1px"/>
<circle class="ball ghost" cx="469.3" cy="365.4" r="5.8" fill="url(#sgglossyF7F7F7)" style="stroke:#3B424C;stroke-width:1.1px"/>
<circle class="ball ghost" cx="541.3" cy="300.0" r="5.8" fill="url(#sgglossyF7F7F7)" style="stroke:#3B424C;stroke-width:1.1px"/>
<g class="bond"><line x1="206.9" y1="287.1" x2="239.8" y2="245.2" style="stroke:#3B424C;stroke-width:6.3px;stroke-linecap:round"/><line x1="206.9" y1="287.1" x2="239.8" y2="245.2" style="stroke:#1D2025;stroke-width:4.1px;stroke-linecap:round"/></g>
<g class="bond ghost"><line x1="182.2" y1="384.9" x2="199.8" y2="423.6" style="stroke:#3B424C;stroke-width:6.3px;stroke-linecap:round"/><line x1="182.2" y1="384.9" x2="199.8" y2="423.6" style="stroke:#1D2025;stroke-width:4.1px;stroke-linecap:round"/></g>
<circle class="ball" cx="222.3" cy="193.3" r="8.4" fill="url(#sgglossyBFC3C8)" style="stroke:#3B424C;stroke-width:1.1px"/>
<circle class="ball ghost" cx="199.8" cy="423.6" r="5.8" fill="url(#sgglossyF7F7F7)" style="stroke:#3B424C;stroke-width:1.1px"/>
<g class="bond"><line x1="239.8" y1="245.2" x2="222.3" y2="193.3" style="stroke:#3B424C;stroke-width:6.3px;stroke-linecap:round"/><line x1="239.8" y1="245.2" x2="222.3" y2="193.3" style="stroke:#1D2025;stroke-width:4.1px;stroke-linecap:round"/></g>
<circle class="ball" cx="239.8" cy="245.2" r="8.4" fill="url(#sgglossyBFC3C8)" style="stroke:#3B424C;stroke-width:1.1px"/>
<g class="bond"><line x1="222.3" y1="193.3" x2="257.6" y2="151.2" style="stroke:#3B424C;stroke-width:6.3px;stroke-linecap:round"/><line x1="222.3" y1="193.3" x2="257.6" y2="151.2" style="stroke:#1D2025;stroke-width:4.1px;stroke-linecap:round"/></g>
<circle class="ball ghost" cx="373.6" cy="379.9" r="5.8" fill="url(#sgglossyF7F7F7)" style="stroke:#3B424C;stroke-width:1.1px"/>
<g class="bond ghost"><line x1="182.2" y1="384.9" x2="153.9" y2="377.3" style="stroke:#3B424C;stroke-width:6.3px;stroke-linecap:round"/><line x1="182.2" y1="384.9" x2="153.9" y2="377.3" style="stroke:#1D2025;stroke-width:4.1px;stroke-linecap:round"/></g>
<g class="bond"><line x1="239.8" y1="245.2" x2="279.0" y2="252.6" style="stroke:#3B424C;stroke-width:6.3px;stroke-linecap:round"/><line x1="239.8" y1="245.2" x2="279.0" y2="252.6" style="stroke:#1D2025;stroke-width:4.1px;stroke-linecap:round"/></g>
<circle class="ball" cx="257.6" cy="151.2" r="8.4" fill="url(#sgglossyBFC3C8)" style="stroke:#3B424C;stroke-width:1.1px"/>
<circle class="ball" cx="279.0" cy="252.6" r="5.8" fill="url(#sgglossyF7F7F7)" style="stroke:#3B424C;stroke-width:1.1px"/>
<g class="bond"><line x1="257.6" y1="151.2" x2="286.0" y2="117.6" style="stroke:#3B424C;stroke-width:6.3px;stroke-linecap:round"/><line x1="257.6" y1="151.2" x2="286.0" y2="117.6" style="stroke:#1D2025;stroke-width:4.1px;stroke-linecap:round"/></g>
<circle class="ball" cx="286.0" cy="117.6" r="8.2" fill="url(#sgglossy4F5BEA)" style="stroke:#3B424C;stroke-width:1.1px"/>
<circle class="ball ghost" cx="153.9" cy="377.3" r="5.8" fill="url(#sgglossyF7F7F7)" style="stroke:#3B424C;stroke-width:1.1px"/>
</g>
<line class="sx-axis behind" x1="224.1" y1="342.8" x2="219.3" y2="327.1" stroke="#151A21"/><line class="sx-axis" x1="219.3" y1="327.1" x2="207.2" y2="288.0" stroke="#151A21"/><line class="sx-axis behind" x1="207.2" y1="288.0" x2="202.4" y2="272.4" stroke="#151A21"/><line class="sx-axis" x1="202.4" y1="272.4" x2="175.9" y2="186.3" stroke="#151A21"/><line class="sx-axis behind" x1="175.9" y1="186.3" x2="171.1" y2="170.7" stroke="#151A21"/><line class="sx-axis" x1="171.1" y1="170.7" x2="161.4" y2="139.4" stroke="#151A21"/><line class="sx-axis behind" x1="161.4" y1="139.4" x2="159.0" y2="131.6" stroke="#151A21"/><line class="sx-axis" x1="159.0" y1="131.6" x2="147.0" y2="92.4" stroke="#151A21" marker-end="url(#mk151A21)"/>
<line class="sx-b1" x1="198.8" y1="260.8" x2="175.9" y2="264.6" stroke="#6C4AB6" marker-end="url(#mk6C4AB6)"/>
<line class="sx-trace" x1="195.3" y1="258.2" x2="156.5" y2="270.9" stroke="#6C4AB6"/>
<line class="sx-tickhalo" x1="173.9" y1="154.3" x2="159.5" y2="158.7" stroke="#FFFFFF"/>
<line class="sx-loctick" x1="173.9" y1="154.3" x2="159.5" y2="158.7" stroke="#C99A00"/>
<line class="sx-b5" x1="166.7" y1="156.5" x2="279.1" y2="119.9" stroke="#C9352B"/><line class="sx-b5 behind" x1="279.1" y1="119.9" x2="295.9" y2="114.4" stroke="#C9352B"/><line class="sx-b5" x1="295.9" y1="114.4" x2="346.5" y2="97.9" stroke="#C9352B" marker-end="url(#mkC9352B)"/>
<text class="lab" data-lab="lab|locB5|1" x="166.7" y="80.5" text-anchor="middle" font-size="24.0" fill="#8A6A00">loc B<tspan dy="2.6" font-size="0.75em">5</tspan><tspan dy="-2.6"> 4.94 &#8491;</tspan></text>
<text class="lab" data-lab="lab|B1|1" x="131.9" y="268.6" text-anchor="end" font-size="24.0" fill="#6C4AB6">B<tspan dy="2.6" font-size="0.75em">1</tspan><tspan dy="-2.6"> 1.72 &#8491;</tspan></text>
<text class="lab" data-lab="lab|B5|1" x="356.0" y="98.8" text-anchor="start" font-size="24.0" fill="#C9352B">B<tspan dy="2.6" font-size="0.75em">5</tspan><tspan dy="-2.6"> 5.05 &#8491;</tspan></text>
<text class="lab" data-lab="lab|L|1" x="132.0" y="122.4" text-anchor="end" font-size="24.0" fill="#1F2937">L 6.64 &#8491;</text>
</svg>