<svg class="fig scene" xmlns="http://www.w3.org/2000/svg" viewBox="0 0 640 540" role="img" aria-label="Molecule with descriptor constructions">
<defs><radialGradient id="sgglossy6FB9A2" cx="34%" cy="30%" r="70%"><stop offset="0" stop-color="#FFFFFF"/><stop offset="0.13" stop-color="#c5e3da"/><stop offset="0.5" stop-color="#6FB9A2"/><stop offset="1" stop-color="#325349"/></radialGradient><radialGradient id="sgglossyF7F7F7" cx="34%" cy="30%" r="70%"><stop offset="0" stop-color="#FFFFFF"/><stop offset="0.13" stop-color="#fcfcfc"/><stop offset="0.5" stop-color="#F7F7F7"/><stop offset="1" stop-color="#6f6f6f"/></radialGradient><radialGradient id="sgglossy4F5BEA" cx="34%" cy="30%" r="70%"><stop offset="0" stop-color="#FFFFFF"/><stop offset="0.13" stop-color="#b9bdf7"/><stop offset="0.5" stop-color="#4F5BEA"/><stop offset="1" stop-color="#242969"/></radialGradient><radialGradient id="sgglossyBFC3C8" cx="34%" cy="30%" r="70%"><stop offset="0" stop-color="#FFFFFF"/><stop offset="0.13" stop-color="#e5e7e9"/><stop offset="0.5" stop-color="#BFC3C8"/><stop offset="1" stop-color="#56585a"/></radialGradient><radialGradient id="sgglossyE3241B" cx="34%" cy="30%" r="70%"><stop offset="0" stop-color="#FFFFFF"/><stop offset="0.13" stop-color="#f4a7a4"/><stop offset="0.5" stop-color="#E3241B"/><stop offset="1" stop-color="#66100c"/></radialGradient></defs>
<g>
<circle class="ball" cx="163.7" cy="266.3" r="7.4" fill="url(#sgglossyF7F7F7)" style="stroke:#3B424C;stroke-width:1.3px"/>
<circle class="ball" cx="465.5" cy="367.8" r="7.4" fill="url(#sgglossyF7F7F7)" style="stroke:#3B424C;stroke-width:1.3px"/>
<circle class="ball" cx="460.9" cy="255.6" r="7.4" fill="url(#sgglossyF7F7F7)" style="stroke:#3B424C;stroke-width:1.3px"/>
<g class="bond"><line x1="152.8" y1="245.6" x2="163.7" y2="266.3" style="stroke:#3B424C;stroke-width:7.9px;stroke-linecap:round"/><line x1="152.8" y1="245.6" x2="163.7" y2="266.3" style="stroke:#1D2025;stroke-width:5.4px;stroke-linecap:round"/></g>
<g class="bond"><line x1="450.5" y1="348.5" x2="465.5" y2="367.8" style="stroke:#3B424C;stroke-width:7.9px;stroke-linecap:round"/><line x1="450.5" y1="348.5" x2="465.5" y2="367.8" style="stroke:#1D2025;stroke-width:5.4px;stroke-linecap:round"/></g>
<g class="bond"><line x1="447.6" y1="275.7" x2="460.9" y2="255.6" style="stroke:#3B424C;stroke-width:7.9px;stroke-linecap:round"/><line x1="447.6" y1="275.7" x2="460.9" y2="255.6" style="stroke:#1D2025;stroke-width:5.4px;stroke-linecap:round"/></g>
<circle class="ball" cx="163.3" cy="195.7" r="7.4" fill="url(#sgglossyF7F7F7)" style="stroke:#3B424C;stroke-width:1.3px"/>
<g class="bond"><line x1="152.8" y1="245.6" x2="163.3" y2="195.7" style="stroke:#3B424C;stroke-width:7.9px;stroke-linecap:round"/><line x1="152.8" y1="245.6" x2="163.3" y2="195.7" style="stroke:#1D2025;stroke-width:5.4px;stroke-linecap:round"/></g>
<circle class="ball" cx="152.8" cy="245.6" r="10.8" fill="url(#sgglossyBFC3C8)" style="stroke:#3B424C;stroke-width:1.3px"/>
<g class="bond"><line x1="152.8" y1="245.6" x2="103.2" y2="252.0" style="stroke:#3B424C;stroke-width:7.9px;stroke-linecap:round"/><line x1="152.8" y1="245.6" x2="103.2" y2="252.0" style="stroke:#1D2025;stroke-width:5.4px;stroke-linecap:round"/></g>
<circle class="ball" cx="450.5" cy="348.5" r="10.8" fill="url(#sgglossyBFC3C8)" style="stroke:#3B424C;stroke-width:1.3px"/>
<g class="bond"><line x1="450.5" y1="348.5" x2="447.6" y2="275.7" style="stroke:#3B424C;stroke-width:7.9px;stroke-linecap:round"/><line x1="450.5" y1="348.5" x2="447.6" y2="275.7" style="stroke:#1D2025;stroke-width:5.4px;stroke-linecap:round"/></g>
<circle class="ball" cx="447.6" cy="275.7" r="10.8" fill="url(#sgglossyBFC3C8)" style="stroke:#3B424C;stroke-width:1.3px"/>
<circle class="ball" cx="103.2" cy="252.0" r="7.4" fill="url(#sgglossyF7F7F7)" style="stroke:#3B424C;stroke-width:1.3px"/>
<g class="bond"><line x1="381.6" y1="263.5" x2="447.6" y2="275.7" style="stroke:#3B424C;stroke-width:7.9px;stroke-linecap:round"/><line x1="381.6" y1="263.5" x2="447.6" y2="275.7" style="stroke:#1D2025;stroke-width:5.4px;stroke-linecap:round"/></g>
<g class="bond"><line x1="450.5" y1="348.5" x2="387.5" y2="368.5" style="stroke:#3B424C;stroke-width:7.9px;stroke-linecap:round"/><line x1="450.5" y1="348.5" x2="387.5" y2="368.5" style="stroke:#1D2025;stroke-width:5.4px;stroke-linecap:round"/></g>
<circle class="ball" cx="159.5" cy="367.2" r="7.4" fill="url(#sgglossyF7F7F7)" style="stroke:#3B424C;stroke-width:1.3px"/>
<circle class="ball" cx="381.6" cy="263.5" r="10.5" fill="url(#sgglossy4F5BEA)" style="stroke:#3B424C;stroke-width:1.3px"/>
<circle class="ball" cx="387.5" cy="368.5" r="10.1" fill="url(#sgglossyE3241B)" style="stroke:#3B424C;stroke-width:1.3px"/>
<g class="bond"><line x1="381.6" y1="263.5" x2="353.5" y2="316.1" style="stroke:#3B424C;stroke-width:7.9px;stroke-linecap:round"/><line x1="381.6" y1="263.5" x2="353.5" y2="316.1" style="stroke:#1D2025;stroke-width:5.4px;stroke-linecap:round"/></g>
<circle class="ball" cx="362.2" cy="147.5" r="7.4" fill="url(#sgglossyF7F7F7)" style="stroke:#3B424C;stroke-width:1.3px"/>
<g class="bond"><line x1="353.5" y1="316.1" x2="387.5" y2="368.5" style="stroke:#3B424C;stroke-width:7.9px;stroke-linecap:round"/><line x1="353.5" y1="316.1" x2="387.5" y2="368.5" style="stroke:#1D2025;stroke-width:5.4px;stroke-linecap:round"/></g>
<circle class="ball" cx="353.5" cy="316.1" r="10.8" fill="url(#sgglossyBFC3C8)" style="stroke:#3B424C;stroke-width:1.3px"/>
<g class="bond"><line x1="320.0" y1="197.8" x2="381.6" y2="263.5" style="stroke:#3B424C;stroke-width:7.9px;stroke-linecap:round" stroke-dasharray="4.8 4.0"/><line x1="320.0" y1="197.8" x2="381.6" y2="263.5" style="stroke:#1D2025;stroke-width:5.4px;stroke-linecap:round" stroke-dasharray="4.8 4.0"/></g>
<g class="bond"><line x1="450.5" y1="348.5" x2="480.5" y2="367.2" style="stroke:#3B424C;stroke-width:7.9px;stroke-linecap:round"/><line x1="450.5" y1="348.5" x2="480.5" y2="367.2" style="stroke:#1D2025;stroke-width:5.4px;stroke-linecap:round"/></g>
<g class="bond"><line x1="320.0" y1="197.8" x2="362.2" y2="147.5" style="stroke:#3B424C;stroke-width:7.9px;stroke-linecap:round" stroke-dasharray="4.8 4.0"/><line x1="320.0" y1="197.8" x2="362.2" y2="147.5" style="stroke:#1D2025;stroke-width:5.4px;stroke-linecap:round" stroke-dasharray="4.8 4.0"/></g>
<g class="bond"><line x1="192.4" y1="275.7" x2="152.8" y2="245.6" style="stroke:#3B424C;stroke-width:7.9px;stroke-linecap:round"/><line x1="192.4" y1="275.7" x2="152.8" y2="245.6" style="stroke:#1D2025;stroke-width:5.4px;stroke-linecap:round"/></g>
<g class="bond"><line x1="320.0" y1="197.8" x2="353.5" y2="316.1" style="stroke:#3B424C;stroke-width:7.9px;stroke-linecap:round" stroke-dasharray="4.8 4.0"/><line x1="320.0" y1="197.8" x2="353.5" y2="316.1" style="stroke:#1D2025;stroke-width:5.4px;stroke-linecap:round" stroke-dasharray="4.8 4.0"/></g>
<g class="bond"><line x1="353.5" y1="316.1" x2="286.5" y2="316.1" style="stroke:#3B424C;stroke-width:7.9px;stroke-linecap:round"/><line x1="353.5" y1="316.1" x2="286.5" y2="316.1" style="stroke:#1D2025;stroke-width:5.4px;stroke-linecap:round"/></g>
<circle class="ball" cx="320.0" cy="197.8" r="14.5" fill="url(#sgglossy6FB9A2)" style="stroke:#3B424C;stroke-width:1.3px"/>
<g class="bond"><line x1="447.6" y1="275.7" x2="487.2" y2="245.6" style="stroke:#3B424C;stroke-width:7.9px;stroke-linecap:round"/><line x1="447.6" y1="275.7" x2="487.2" y2="245.6" style="stroke:#1D2025;stroke-width:5.4px;stroke-linecap:round"/></g>
<g class="bond"><line x1="320.0" y1="197.8" x2="286.5" y2="316.1" style="stroke:#3B424C;stroke-width:7.9px;stroke-linecap:round" stroke-dasharray="4.8 4.0"/><line x1="320.0" y1="197.8" x2="286.5" y2="316.1" style="stroke:#1D2025;stroke-width:5.4px;stroke-linecap:round" stroke-dasharray="4.8 4.0"/></g>
<g class="bond"><line x1="320.0" y1="197.8" x2="277.8" y2="147.5" style="stroke:#3B424C;stroke-width:7.9px;stroke-linecap:round" stroke-dasharray="4.8 4.0"/><line x1="320.0" y1="197.8" x2="277.8" y2="147.5" style="stroke:#1D2025;stroke-width:5.4px;stroke-linecap:round" stroke-dasharray="4.8 4.0"/></g>
<g class="bond"><line x1="189.5" y1="348.5" x2="159.5" y2="367.2" style="stroke:#3B424C;stroke-width:7.9px;stroke-linecap:round"/><line x1="189.5" y1="348.5" x2="159.5" y2="367.2" style="stroke:#1D2025;stroke-width:5.4px;stroke-linecap:round"/></g>
<g class="bond"><line x1="320.0" y1="197.8" x2="258.4" y2="263.5" style="stroke:#3B424C;stroke-width:7.9px;stroke-linecap:round" stroke-dasharray="4.8 4.0"/><line x1="320.0" y1="197.8" x2="258.4" y2="263.5" style="stroke:#1D2025;stroke-width:5.4px;stroke-linecap:round" stroke-dasharray="4.8 4.0"/></g>
<circle class="ball" cx="286.5" cy="316.1" r="10.8" fill="url(#sgglossyBFC3C8)" style="stroke:#3B424C;stroke-width:1.3px"/>
<g class="bond"><line x1="286.5" y1="316.1" x2="252.5" y2="368.5" style="stroke:#3B424C;stroke-width:7.9px;stroke-linecap:round"/><line x1="286.5" y1="316.1" x2="252.5" y2="368.5" style="stroke:#1D2025;stroke-width:5.4px;stroke-linecap:round"/></g>
<circle class="ball" cx="277.8" cy="147.5" r="7.4" fill="url(#sgglossyF7F7F7)" style="stroke:#3B424C;stroke-width:1.3px"/>
<g class="bond"><line x1="258.4" y1="263.5" x2="286.5" y2="316.1" style="stroke:#3B424C;stroke-width:7.9px;stroke-linecap:round"/><line x1="258.4" y1="263.5" x2="286.5" y2="316.1" style="stroke:#1D2025;stroke-width:5.4px;stroke-linecap:round"/></g>
<circle class="ball" cx="252.5" cy="368.5" r="10.1" fill="url(#sgglossyE3241B)" style="stroke:#3B424C;stroke-width:1.3px"/>
<circle class="ball" cx="258.4" cy="263.5" r="10.5" fill="url(#sgglossy4F5BEA)" style="stroke:#3B424C;stroke-width:1.3px"/>
<circle class="ball" cx="480.5" cy="367.2" r="7.4" fill="url(#sgglossyF7F7F7)" style="stroke:#3B424C;stroke-width:1.3px"/>
<g class="bond"><line x1="189.5" y1="348.5" x2="252.5" y2="368.5" style="stroke:#3B424C;stroke-width:7.9px;stroke-linecap:round"/><line x1="189.5" y1="348.5" x2="252.5" y2="368.5" style="stroke:#1D2025;stroke-width:5.4px;stroke-linecap:round"/></g>
<g class="bond"><line x1="258.4" y1="263.5" x2="192.4" y2="275.7" style="stroke:#3B424C;stroke-width:7.9px;stroke-linecap:round"/><line x1="258.4" y1="263.5" x2="192.4" y2="275.7" style="stroke:#1D2025;stroke-width:5.4px;stroke-linecap:round"/></g>
<circle class="ball" cx="536.8" cy="252.0" r="7.4" fill="url(#sgglossyF7F7F7)" style="stroke:#3B424C;stroke-width:1.3px"/>
<circle class="ball" cx="192.4" cy="275.7" r="10.8" fill="url(#sgglossyBFC3C8)" style="stroke:#3B424C;stroke-width:1.3px"/>
<g class="bond"><line x1="192.4" y1="275.7" x2="189.5" y2="348.5" style="stroke:#3B424C;stroke-width:7.9px;stroke-linecap:round"/><line x1="192.4" y1="275.7" x2="189.5" y2="348.5" style="stroke:#1D2025;stroke-width:5.4px;stroke-linecap:round"/></g>
<circle class="ball" cx="189.5" cy="348.5" r="10.8" fill="url(#sgglossyBFC3C8)" style="stroke:#3B424C;stroke-width:1.3px"/>
<g class="bond"><line x1="487.2" y1="245.6" x2="536.8" y2="252.0" style="stroke:#3B424C;stroke-width:7.9px;stroke-linecap:round"/><line x1="487.2" y1="245.6" x2="536.8" y2="252.0" style="stroke:#1D2025;stroke-width:5.4px;stroke-linecap:round"/></g>
<circle class="ball" cx="487.2" cy="245.6" r="10.8" fill="url(#sgglossyBFC3C8)" style="stroke:#3B424C;stroke-width:1.3px"/>
<g class="bond"><line x1="487.2" y1="245.6" x2="476.7" y2="195.7" style="stroke:#3B424C;stroke-width:7.9px;stroke-linecap:round"/><line x1="487.2" y1="245.6" x2="476.7" y2="195.7" style="stroke:#1D2025;stroke-width:5.4px;stroke-linecap:round"/></g>
<circle class="ball" cx="476.7" cy="195.7" r="7.4" fill="url(#sgglossyF7F7F7)" style="stroke:#3B424C;stroke-width:1.3px"/>
<g class="bond"><line x1="192.4" y1="275.7" x2="179.1" y2="255.6" style="stroke:#3B424C;stroke-width:7.9px;stroke-linecap:round"/><line x1="192.4" y1="275.7" x2="179.1" y2="255.6" style="stroke:#1D2025;stroke-width:5.4px;stroke-linecap:round"/></g>
<g class="bond"><line x1="189.5" y1="348.5" x2="174.5" y2="367.8" style="stroke:#3B424C;stroke-width:7.9px;stroke-linecap:round"/><line x1="189.5" y1="348.5" x2="174.5" y2="367.8" style="stroke:#1D2025;stroke-width:5.4px;stroke-linecap:round"/></g>
<g class="bond"><line x1="487.2" y1="245.6" x2="476.3" y2="266.3" style="stroke:#3B424C;stroke-width:7.9px;stroke-linecap:round"/><line x1="487.2" y1="245.6" x2="476.3" y2="266.3" style="stroke:#1D2025;stroke-width:5.4px;stroke-linecap:round"/></g>
<circle class="ball" cx="179.1" cy="255.6" r="7.4" fill="url(#sgglossyF7F7F7)" style="stroke:#3B424C;stroke-width:1.3px"/>
<circle class="ball" cx="174.5" cy="367.8" r="7.4" fill="url(#sgglossyF7F7F7)" style="stroke:#3B424C;stroke-width:1.3px"/>
<circle class="ball" cx="476.3" cy="266.3" r="7.4" fill="url(#sgglossyF7F7F7)" style="stroke:#3B424C;stroke-width:1.3px"/>
</g>
</svg>