<svg class="fig scene" xmlns="http://www.w3.org/2000/svg" viewBox="0 0 640 540" role="img" aria-label="Molecule with descriptor constructions">
<defs><radialGradient id="sgglossyb5bcc6" cx="34%" cy="30%" r="70%"><stop offset="0" stop-color="#FFFFFF"/><stop offset="0.13" stop-color="#e1e4e8"/><stop offset="0.5" stop-color="#b5bcc6"/><stop offset="1" stop-color="#515559"/></radialGradient><radialGradient id="sgglossyf5f6f9" cx="34%" cy="30%" r="70%"><stop offset="0" stop-color="#FFFFFF"/><stop offset="0.13" stop-color="#fbfbfd"/><stop offset="0.5" stop-color="#f5f6f9"/><stop offset="1" stop-color="#6e6f70"/></radialGradient><radialGradient id="sgglossyF3F5F8" cx="34%" cy="30%" r="70%"><stop offset="0" stop-color="#FFFFFF"/><stop offset="0.13" stop-color="#fafbfc"/><stop offset="0.5" stop-color="#F3F5F8"/><stop offset="1" stop-color="#6d6e70"/></radialGradient><radialGradient id="sgglossyd6645c" cx="34%" cy="30%" r="70%"><stop offset="0" stop-color="#FFFFFF"/><stop offset="0.13" stop-color="#efc1be"/><stop offset="0.5" stop-color="#d6645c"/><stop offset="1" stop-color="#602d29"/></radialGradient><radialGradient id="sgglossyA9B1BC" cx="34%" cy="30%" r="70%"><stop offset="0" stop-color="#FFFFFF"/><stop offset="0.13" stop-color="#dde0e4"/><stop offset="0.5" stop-color="#A9B1BC"/><stop offset="1" stop-color="#4c5055"/></radialGradient><radialGradient id="sgglossyCF4A40" cx="34%" cy="30%" r="70%"><stop offset="0" stop-color="#FFFFFF"/><stop offset="0.13" stop-color="#ecb7b3"/><stop offset="0.5" stop-color="#CF4A40"/><stop offset="1" stop-color="#5d211d"/></radialGradient><radialGradient id="sgglossye2bb52" cx="34%" cy="30%" r="70%"><stop offset="0" stop-color="#FFFFFF"/><stop offset="0.13" stop-color="#f3e4ba"/><stop offset="0.5" stop-color="#e2bb52"/><stop offset="1" stop-color="#665425"/></radialGradient><radialGradient id="sgglossydd7e77" cx="34%" cy="30%" r="70%"><stop offset="0" stop-color="#FFFFFF"/><stop offset="0.13" stop-color="#f1cbc9"/><stop offset="0.5" stop-color="#dd7e77"/><stop offset="1" stop-color="#633936"/></radialGradient><radialGradient id="sgglossy79AE63" cx="34%" cy="30%" r="70%"><stop offset="0" stop-color="#FFFFFF"/><stop offset="0.13" stop-color="#c9dfc1"/><stop offset="0.5" stop-color="#79AE63"/><stop offset="1" stop-color="#364e2d"/></radialGradient><radialGradient id="sgglossy8cba79" cx="34%" cy="30%" r="70%"><stop offset="0" stop-color="#FFFFFF"/><stop offset="0.13" stop-color="#d1e3c9"/><stop offset="0.5" stop-color="#8cba79"/><stop offset="1" stop-color="#3f5436"/></radialGradient><marker id="mkD1453B" viewBox="0 0 10 10" refX="8.5" refY="5" markerWidth="5.2" markerHeight="5.2" orient="auto"><path d="M0,0 L10,5 L0,10 z" fill="#D1453B"/></marker><marker id="mk2F5BD3" viewBox="0 0 10 10" refX="8.5" refY="5" markerWidth="5.2" markerHeight="5.2" orient="auto"><path d="M0,0 L10,5 L0,10 z" fill="#2F5BD3"/></marker><marker id="mk2E9E5B" viewBox="0 0 10 10" refX="8.5" refY="5" markerWidth="5.2" markerHeight="5.2" orient="auto"><path d="M0,0 L10,5 L0,10 z" fill="#2E9E5B"/></marker><marker id="mk7A3E9D" viewBox="0 0 10 10" refX="8.5" refY="5" markerWidth="5.2" markerHeight="5.2" orient="auto"><path d="M0,0 L10,5 L0,10 z" fill="#7A3E9D"/></marker><filter id="softshadow" x="-20%" y="-20%" width="140%" height="140%"><feDropShadow dx="1.4" dy="2.4" stdDeviation="2.3" flood-color="#1B2230" flood-opacity=".22"/></filter></defs>
<g filter="url(#softshadow)">
<circle class="ball" cx="457.2" cy="330.7" r="13.3" fill="url(#sgglossydd7e77)" style="stroke:#3B424C;stroke-width:0.8px"/>
<g class="bond"><line x1="478.4" y1="310.3" x2="457.2" y2="330.7" style="stroke:#3B424C;stroke-width:10.3px;stroke-linecap:round"/><line x1="478.4" y1="310.3" x2="467.8" y2="320.5" style="stroke:#e6c56c;stroke-width:8.7px;stroke-linecap:round"/><line x1="467.8" y1="320.5" x2="457.2" y2="330.7" style="stroke:#e2918b;stroke-width:8.7px;stroke-linecap:round"/></g>
<circle class="ball" cx="182.9" cy="219.2" r="9.8" fill="url(#sgglossyf5f6f9)" style="stroke:#3B424C;stroke-width:0.8px"/>
<circle class="ball" cx="504.7" cy="271.4" r="13.3" fill="url(#sgglossyd6645c)" style="stroke:#3B424C;stroke-width:0.8px"/>
<g class="bond"><line x1="478.4" y1="310.3" x2="504.7" y2="271.4" style="stroke:#3B424C;stroke-width:10.3px;stroke-linecap:round"/><line x1="478.4" y1="310.3" x2="491.6" y2="290.8" style="stroke:#e6c56c;stroke-width:8.7px;stroke-linecap:round"/><line x1="491.6" y1="290.8" x2="504.7" y2="271.4" style="stroke:#dc7b74;stroke-width:8.7px;stroke-linecap:round"/></g>
<circle class="ball" cx="119.8" cy="270.7" r="9.8" fill="url(#sgglossyf5f6f9)" style="stroke:#3B424C;stroke-width:0.8px"/>
<circle class="ball" cx="342.8" cy="124.6" r="9.8" fill="url(#sgglossyf5f6f9)" style="stroke:#3B424C;stroke-width:0.8px"/>
<circle class="ball" cx="304.5" cy="268.3" r="9.8" fill="url(#sgglossyf5f6f9)" style="stroke:#3B424C;stroke-width:0.8px"/>
<circle class="ball" cx="545.0" cy="364.0" r="12.4" fill="url(#sgglossy8cba79)" style="stroke:#3B424C;stroke-width:0.8px"/>
<circle class="ball" cx="478.4" cy="310.3" r="17.2" fill="url(#sgglossye2bb52)" style="stroke:#3B424C;stroke-width:0.8px"/>
<circle class="ball" cx="95.0" cy="348.6" r="9.8" fill="url(#sgglossyf5f6f9)" style="stroke:#3B424C;stroke-width:0.8px"/>
<g class="bond"><line x1="141.8" y1="295.4" x2="119.8" y2="270.7" style="stroke:#3B424C;stroke-width:10.3px;stroke-linecap:round"/><line x1="141.8" y1="295.4" x2="130.8" y2="283.0" style="stroke:#c0c6cf;stroke-width:8.7px;stroke-linecap:round"/><line x1="130.8" y1="283.0" x2="119.8" y2="270.7" style="stroke:#f7f7fa;stroke-width:8.7px;stroke-linecap:round"/></g>
<circle class="ball" cx="366.6" cy="321.9" r="9.8" fill="url(#sgglossyf5f6f9)" style="stroke:#3B424C;stroke-width:0.8px"/>
<g class="bond"><line x1="335.6" y1="257.5" x2="304.5" y2="268.3" style="stroke:#3B424C;stroke-width:10.3px;stroke-linecap:round"/><line x1="335.6" y1="257.5" x2="320.1" y2="262.9" style="stroke:#c0c6cf;stroke-width:8.7px;stroke-linecap:round"/><line x1="320.1" y1="262.9" x2="304.5" y2="268.3" style="stroke:#f7f7fa;stroke-width:8.7px;stroke-linecap:round"/></g>
<g class="bond"><line x1="197.6" y1="234.7" x2="182.9" y2="219.2" style="stroke:#3B424C;stroke-width:10.3px;stroke-linecap:round"/><line x1="197.6" y1="234.7" x2="190.3" y2="227.0" style="stroke:#c0c6cf;stroke-width:8.7px;stroke-linecap:round"/><line x1="190.3" y1="227.0" x2="182.9" y2="219.2" style="stroke:#f7f7fa;stroke-width:8.7px;stroke-linecap:round"/></g>
<g class="bond"><line x1="127.8" y1="339.2" x2="95.0" y2="348.6" style="stroke:#3B424C;stroke-width:10.3px;stroke-linecap:round"/><line x1="127.8" y1="339.2" x2="111.4" y2="343.9" style="stroke:#c0c6cf;stroke-width:8.7px;stroke-linecap:round"/><line x1="111.4" y1="343.9" x2="95.0" y2="348.6" style="stroke:#f7f7fa;stroke-width:8.7px;stroke-linecap:round"/></g>
<g class="bond"><line x1="317.3" y1="131.4" x2="342.8" y2="124.6" style="stroke:#3B424C;stroke-width:10.3px;stroke-linecap:round"/><line x1="317.3" y1="131.4" x2="330.1" y2="128.0" style="stroke:#c0c6cf;stroke-width:8.7px;stroke-linecap:round"/><line x1="330.1" y1="128.0" x2="342.8" y2="124.6" style="stroke:#f7f7fa;stroke-width:8.7px;stroke-linecap:round"/></g>
<g class="bond"><line x1="370.2" y1="287.8" x2="366.6" y2="321.9" style="stroke:#3B424C;stroke-width:10.3px;stroke-linecap:round"/><line x1="370.2" y1="287.8" x2="368.4" y2="304.8" style="stroke:#c0c6cf;stroke-width:8.7px;stroke-linecap:round"/><line x1="368.4" y1="304.8" x2="366.6" y2="321.9" style="stroke:#f7f7fa;stroke-width:8.7px;stroke-linecap:round"/></g>
<circle class="ball" cx="141.8" cy="295.4" r="14.3" fill="url(#sgglossyb5bcc6)" style="stroke:#3B424C;stroke-width:0.8px"/>
<circle class="ball" cx="335.6" cy="257.5" r="14.3" fill="url(#sgglossyb5bcc6)" style="stroke:#3B424C;stroke-width:0.8px"/>
<g class="bond"><line x1="512.8" y1="352.8" x2="545.0" y2="364.0" style="stroke:#3B424C;stroke-width:10.3px;stroke-linecap:round"/><line x1="512.8" y1="352.8" x2="528.9" y2="358.4" style="stroke:#c0c6cf;stroke-width:8.7px;stroke-linecap:round"/><line x1="528.9" y1="358.4" x2="545.0" y2="364.0" style="stroke:#9dc48d;stroke-width:8.7px;stroke-linecap:round"/></g>
<g class="bond"><line x1="478.4" y1="310.3" x2="512.8" y2="352.8" style="stroke:#3B424C;stroke-width:10.3px;stroke-linecap:round"/><line x1="478.4" y1="310.3" x2="495.6" y2="331.6" style="stroke:#e6c56c;stroke-width:8.7px;stroke-linecap:round"/><line x1="495.6" y1="331.6" x2="512.8" y2="352.8" style="stroke:#c0c6cf;stroke-width:8.7px;stroke-linecap:round"/></g>
<g class="bond"><line x1="141.8" y1="295.4" x2="127.8" y2="339.2" style="stroke:#3B424C;stroke-width:10.3px;stroke-linecap:round"/><line x1="141.8" y1="295.4" x2="134.8" y2="317.3" style="stroke:#c0c6cf;stroke-width:8.7px;stroke-linecap:round"/><line x1="134.8" y1="317.3" x2="127.8" y2="339.2" style="stroke:#c0c6cf;stroke-width:8.7px;stroke-linecap:round"/></g>
<g class="bond"><line x1="335.6" y1="257.5" x2="370.2" y2="287.8" style="stroke:#3B424C;stroke-width:10.3px;stroke-linecap:round"/><line x1="335.6" y1="257.5" x2="352.9" y2="272.7" style="stroke:#c0c6cf;stroke-width:8.7px;stroke-linecap:round"/><line x1="352.9" y1="272.7" x2="370.2" y2="287.8" style="stroke:#c0c6cf;stroke-width:8.7px;stroke-linecap:round"/></g>
<circle class="ball" cx="127.8" cy="339.2" r="14.3" fill="url(#sgglossyb5bcc6)" style="stroke:#3B424C;stroke-width:0.8px"/>
<circle class="ball" cx="288.5" cy="110.6" r="9.8" fill="url(#sgglossyf5f6f9)" style="stroke:#3B424C;stroke-width:0.8px"/>
<circle class="ball" cx="370.2" cy="287.8" r="14.3" fill="url(#sgglossyb5bcc6)" style="stroke:#3B424C;stroke-width:0.8px"/>
<circle class="ball" cx="236.7" cy="163.7" r="9.8" fill="url(#sgglossyf5f6f9)" style="stroke:#3B424C;stroke-width:0.8px"/>
<g class="bond"><line x1="183.9" y1="282.8" x2="141.8" y2="295.4" style="stroke:#3B424C;stroke-width:10.3px;stroke-linecap:round"/><line x1="183.9" y1="282.8" x2="162.8" y2="289.1" style="stroke:#c0c6cf;stroke-width:8.7px;stroke-linecap:round"/><line x1="162.8" y1="289.1" x2="141.8" y2="295.4" style="stroke:#c0c6cf;stroke-width:8.7px;stroke-linecap:round"/></g>
<g class="bond"><line x1="261.4" y1="190.0" x2="236.7" y2="163.7" style="stroke:#3B424C;stroke-width:10.3px;stroke-linecap:round"/><line x1="261.4" y1="190.0" x2="249.0" y2="176.9" style="stroke:#c0c6cf;stroke-width:8.7px;stroke-linecap:round"/><line x1="249.0" y1="176.9" x2="236.7" y2="163.7" style="stroke:#f7f7fa;stroke-width:8.7px;stroke-linecap:round"/></g>
<g class="bond"><line x1="317.3" y1="131.4" x2="288.5" y2="110.6" style="stroke:#3B424C;stroke-width:10.3px;stroke-linecap:round"/><line x1="317.3" y1="131.4" x2="302.9" y2="121.0" style="stroke:#c0c6cf;stroke-width:8.7px;stroke-linecap:round"/><line x1="302.9" y1="121.0" x2="288.5" y2="110.6" style="stroke:#f7f7fa;stroke-width:8.7px;stroke-linecap:round"/></g>
<g class="bond"><line x1="444.9" y1="305.0" x2="478.4" y2="310.3" style="stroke:#3B424C;stroke-width:10.3px;stroke-linecap:round"/><line x1="444.9" y1="305.0" x2="461.7" y2="307.7" style="stroke:#d6655d;stroke-width:8.7px;stroke-linecap:round"/><line x1="461.7" y1="307.7" x2="478.4" y2="310.3" style="stroke:#e6c56c;stroke-width:8.7px;stroke-linecap:round"/></g>
<g class="bond"><line x1="340.7" y1="213.3" x2="335.6" y2="257.5" style="stroke:#3B424C;stroke-width:10.3px;stroke-linecap:round"/><line x1="340.7" y1="213.3" x2="338.1" y2="235.4" style="stroke:#c0c6cf;stroke-width:8.7px;stroke-linecap:round"/><line x1="338.1" y1="235.4" x2="335.6" y2="257.5" style="stroke:#c0c6cf;stroke-width:8.7px;stroke-linecap:round"/></g>
<circle class="ball" cx="261.4" cy="190.0" r="14.3" fill="url(#sgglossyb5bcc6)" style="stroke:#3B424C;stroke-width:0.8px"/>
<g class="bond"><line x1="261.4" y1="190.0" x2="244.7" y2="231.9" style="stroke:#3B424C;stroke-width:10.3px;stroke-linecap:round"/><line x1="261.4" y1="190.0" x2="253.0" y2="210.9" style="stroke:#c0c6cf;stroke-width:8.7px;stroke-linecap:round"/><line x1="253.0" y1="210.9" x2="244.7" y2="231.9" style="stroke:#dc7b74;stroke-width:8.7px;stroke-linecap:round"/></g>
<circle class="ball" cx="244.7" cy="231.9" r="13.3" fill="url(#sgglossyd6645c)" style="stroke:#3B424C;stroke-width:0.8px"/>
<g class="bond"><line x1="304.7" y1="180.0" x2="261.4" y2="190.0" style="stroke:#3B424C;stroke-width:10.3px;stroke-linecap:round"/><line x1="304.7" y1="180.0" x2="283.0" y2="185.0" style="stroke:#c0c6cf;stroke-width:8.7px;stroke-linecap:round"/><line x1="283.0" y1="185.0" x2="261.4" y2="190.0" style="stroke:#c0c6cf;stroke-width:8.7px;stroke-linecap:round"/></g>
<g class="bond"><line x1="244.7" y1="231.9" x2="197.6" y2="234.7" style="stroke:#3B424C;stroke-width:10.3px;stroke-linecap:round"/><line x1="244.7" y1="231.9" x2="221.1" y2="233.3" style="stroke:#dc7b74;stroke-width:8.7px;stroke-linecap:round"/><line x1="221.1" y1="233.3" x2="197.6" y2="234.7" style="stroke:#c0c6cf;stroke-width:8.7px;stroke-linecap:round"/></g>
<g class="bond"><line x1="304.7" y1="180.0" x2="317.3" y2="131.4" style="stroke:#3B424C;stroke-width:10.3px;stroke-linecap:round"/><line x1="304.7" y1="180.0" x2="311.0" y2="155.7" style="stroke:#c0c6cf;stroke-width:8.7px;stroke-linecap:round"/><line x1="311.0" y1="155.7" x2="317.3" y2="131.4" style="stroke:#c0c6cf;stroke-width:8.7px;stroke-linecap:round"/></g>
<circle class="ball" cx="317.3" cy="131.4" r="14.3" fill="url(#sgglossyb5bcc6)" style="stroke:#3B424C;stroke-width:0.8px"/>
<circle class="ball" cx="304.7" cy="180.0" r="14.3" fill="url(#sgglossyb5bcc6)" style="stroke:#3B424C;stroke-width:0.8px"/>
<circle class="ball" cx="197.6" cy="234.7" r="14.3" fill="url(#sgglossyb5bcc6)" style="stroke:#3B424C;stroke-width:0.8px"/>
<g class="bond"><line x1="127.8" y1="339.2" x2="156.1" y2="371.1" style="stroke:#3B424C;stroke-width:10.3px;stroke-linecap:round"/><line x1="127.8" y1="339.2" x2="141.9" y2="355.1" style="stroke:#c0c6cf;stroke-width:8.7px;stroke-linecap:round"/><line x1="141.9" y1="355.1" x2="156.1" y2="371.1" style="stroke:#b6bdc6;stroke-width:8.7px;stroke-linecap:round"/></g>
<g class="bond"><line x1="304.7" y1="180.0" x2="340.7" y2="213.3" style="stroke:#3B424C;stroke-width:10.3px;stroke-linecap:round"/><line x1="304.7" y1="180.0" x2="322.7" y2="196.6" style="stroke:#c0c6cf;stroke-width:8.7px;stroke-linecap:round"/><line x1="322.7" y1="196.6" x2="340.7" y2="213.3" style="stroke:#c0c6cf;stroke-width:8.7px;stroke-linecap:round"/></g>
<g class="bond"><line x1="197.6" y1="234.7" x2="183.9" y2="282.8" style="stroke:#3B424C;stroke-width:10.3px;stroke-linecap:round"/><line x1="197.6" y1="234.7" x2="190.7" y2="258.8" style="stroke:#c0c6cf;stroke-width:8.7px;stroke-linecap:round"/><line x1="190.7" y1="258.8" x2="183.9" y2="282.8" style="stroke:#c0c6cf;stroke-width:8.7px;stroke-linecap:round"/></g>
<g class="bond"><line x1="370.2" y1="287.8" x2="410.1" y2="273.8" style="stroke:#3B424C;stroke-width:10.3px;stroke-linecap:round"/><line x1="370.2" y1="287.8" x2="390.2" y2="280.8" style="stroke:#c0c6cf;stroke-width:8.7px;stroke-linecap:round"/><line x1="390.2" y1="280.8" x2="410.1" y2="273.8" style="stroke:#b6bdc6;stroke-width:8.7px;stroke-linecap:round"/></g>
<circle class="ball" cx="183.9" cy="282.8" r="14.3" fill="url(#sgglossyb5bcc6)" style="stroke:#3B424C;stroke-width:0.8px"/>
<circle class="ball" cx="340.7" cy="213.3" r="14.3" fill="url(#sgglossyb5bcc6)" style="stroke:#3B424C;stroke-width:0.8px"/>
<circle class="ball" cx="512.8" cy="352.8" r="14.3" fill="url(#sgglossyb5bcc6)" style="stroke:#3B424C;stroke-width:0.8px"/>
<g class="bond"><line x1="512.8" y1="352.8" x2="488.7" y2="388.3" style="stroke:#3B424C;stroke-width:10.3px;stroke-linecap:round"/><line x1="512.8" y1="352.8" x2="500.8" y2="370.6" style="stroke:#c0c6cf;stroke-width:8.7px;stroke-linecap:round"/><line x1="500.8" y1="370.6" x2="488.7" y2="388.3" style="stroke:#8dba7a;stroke-width:8.7px;stroke-linecap:round"/></g>
<circle class="ball" cx="156.1" cy="371.1" r="14.3" fill="url(#sgglossyA9B1BC)" style="stroke:#3B424C;stroke-width:0.8px"/>
<circle class="ball" cx="410.1" cy="273.8" r="14.3" fill="url(#sgglossyA9B1BC)" style="stroke:#3B424C;stroke-width:0.8px"/>
<g class="bond"><line x1="156.1" y1="371.1" x2="145.3" y2="405.4" style="stroke:#3B424C;stroke-width:10.3px;stroke-linecap:round"/><line x1="156.1" y1="371.1" x2="150.7" y2="388.2" style="stroke:#b6bdc6;stroke-width:8.7px;stroke-linecap:round"/><line x1="150.7" y1="388.2" x2="145.3" y2="405.4" style="stroke:#f5f7f9;stroke-width:8.7px;stroke-linecap:round"/></g>
<g class="bond"><line x1="340.7" y1="213.3" x2="382.1" y2="200.5" style="stroke:#3B424C;stroke-width:10.3px;stroke-linecap:round"/><line x1="340.7" y1="213.3" x2="361.4" y2="206.9" style="stroke:#c0c6cf;stroke-width:8.7px;stroke-linecap:round"/><line x1="361.4" y1="206.9" x2="382.1" y2="200.5" style="stroke:#b6bdc6;stroke-width:8.7px;stroke-linecap:round"/></g>
<g class="bond"><line x1="183.9" y1="282.8" x2="212.1" y2="314.8" style="stroke:#3B424C;stroke-width:10.3px;stroke-linecap:round"/><line x1="183.9" y1="282.8" x2="198.0" y2="298.8" style="stroke:#c0c6cf;stroke-width:8.7px;stroke-linecap:round"/><line x1="198.0" y1="298.8" x2="212.1" y2="314.8" style="stroke:#b6bdc6;stroke-width:8.7px;stroke-linecap:round"/></g>
<circle class="ball" cx="145.3" cy="405.4" r="9.8" fill="url(#sgglossyF3F5F8)" style="stroke:#3B424C;stroke-width:0.8px"/>
<circle class="ball" cx="488.7" cy="388.3" r="12.4" fill="url(#sgglossy79AE63)" style="stroke:#3B424C;stroke-width:0.8px"/>
<g class="bond"><line x1="410.1" y1="273.8" x2="444.9" y2="305.0" style="stroke:#3B424C;stroke-width:10.3px;stroke-linecap:round"/><line x1="410.1" y1="273.8" x2="427.5" y2="289.4" style="stroke:#b6bdc6;stroke-width:8.7px;stroke-linecap:round"/><line x1="427.5" y1="289.4" x2="444.9" y2="305.0" style="stroke:#d6655d;stroke-width:8.7px;stroke-linecap:round"/></g>
<g class="bond"><line x1="197.6" y1="234.7" x2="185.8" y2="216.6" style="stroke:#3B424C;stroke-width:10.3px;stroke-linecap:round"/><line x1="197.6" y1="234.7" x2="191.7" y2="225.7" style="stroke:#c0c6cf;stroke-width:8.7px;stroke-linecap:round"/><line x1="191.7" y1="225.7" x2="185.8" y2="216.6" style="stroke:#f5f7f9;stroke-width:8.7px;stroke-linecap:round"/></g>
<g class="bond"><line x1="317.3" y1="131.4" x2="330.5" y2="121.0" style="stroke:#3B424C;stroke-width:10.3px;stroke-linecap:round"/><line x1="317.3" y1="131.4" x2="323.9" y2="126.2" style="stroke:#c0c6cf;stroke-width:8.7px;stroke-linecap:round"/><line x1="323.9" y1="126.2" x2="330.5" y2="121.0" style="stroke:#f5f7f9;stroke-width:8.7px;stroke-linecap:round"/></g>
<circle class="ball" cx="444.9" cy="305.0" r="13.3" fill="url(#sgglossyCF4A40)" style="stroke:#3B424C;stroke-width:0.8px"/>
<g class="bond"><line x1="198.2" y1="358.7" x2="156.1" y2="371.1" style="stroke:#3B424C;stroke-width:10.3px;stroke-linecap:round"/><line x1="198.2" y1="358.7" x2="177.1" y2="364.9" style="stroke:#b6bdc6;stroke-width:8.7px;stroke-linecap:round"/><line x1="177.1" y1="364.9" x2="156.1" y2="371.1" style="stroke:#b6bdc6;stroke-width:8.7px;stroke-linecap:round"/></g>
<g class="bond"><line x1="410.1" y1="273.8" x2="416.9" y2="230.4" style="stroke:#3B424C;stroke-width:10.3px;stroke-linecap:round"/><line x1="410.1" y1="273.8" x2="413.5" y2="252.1" style="stroke:#b6bdc6;stroke-width:8.7px;stroke-linecap:round"/><line x1="413.5" y1="252.1" x2="416.9" y2="230.4" style="stroke:#b6bdc6;stroke-width:8.7px;stroke-linecap:round"/></g>
<circle class="ball" cx="382.1" cy="200.5" r="14.3" fill="url(#sgglossyA9B1BC)" style="stroke:#3B424C;stroke-width:0.8px"/>
<circle class="ball" cx="212.1" cy="314.8" r="14.3" fill="url(#sgglossyA9B1BC)" style="stroke:#3B424C;stroke-width:0.8px"/>
<g class="bond"><line x1="512.8" y1="352.8" x2="530.4" y2="336.7" style="stroke:#3B424C;stroke-width:10.3px;stroke-linecap:round"/><line x1="512.8" y1="352.8" x2="521.6" y2="344.8" style="stroke:#c0c6cf;stroke-width:8.7px;stroke-linecap:round"/><line x1="521.6" y1="344.8" x2="530.4" y2="336.7" style="stroke:#8dba7a;stroke-width:8.7px;stroke-linecap:round"/></g>
<g class="bond"><line x1="416.9" y1="230.4" x2="382.1" y2="200.5" style="stroke:#3B424C;stroke-width:10.3px;stroke-linecap:round"/><line x1="416.9" y1="230.4" x2="399.5" y2="215.5" style="stroke:#b6bdc6;stroke-width:8.7px;stroke-linecap:round"/><line x1="399.5" y1="215.5" x2="382.1" y2="200.5" style="stroke:#b6bdc6;stroke-width:8.7px;stroke-linecap:round"/></g>
<g class="bond"><line x1="212.1" y1="314.8" x2="198.2" y2="358.7" style="stroke:#3B424C;stroke-width:10.3px;stroke-linecap:round"/><line x1="212.1" y1="314.8" x2="205.2" y2="336.7" style="stroke:#b6bdc6;stroke-width:8.7px;stroke-linecap:round"/><line x1="205.2" y1="336.7" x2="198.2" y2="358.7" style="stroke:#b6bdc6;stroke-width:8.7px;stroke-linecap:round"/></g>
<circle class="ball" cx="416.9" cy="230.4" r="14.3" fill="url(#sgglossyA9B1BC)" style="stroke:#3B424C;stroke-width:0.8px"/>
<circle class="ball" cx="198.2" cy="358.7" r="14.3" fill="url(#sgglossyA9B1BC)" style="stroke:#3B424C;stroke-width:0.8px"/>
<g class="bond"><line x1="382.1" y1="200.5" x2="387.5" y2="166.5" style="stroke:#3B424C;stroke-width:10.3px;stroke-linecap:round"/><line x1="382.1" y1="200.5" x2="384.8" y2="183.5" style="stroke:#b6bdc6;stroke-width:8.7px;stroke-linecap:round"/><line x1="384.8" y1="183.5" x2="387.5" y2="166.5" style="stroke:#f5f7f9;stroke-width:8.7px;stroke-linecap:round"/></g>
<g class="bond"><line x1="212.1" y1="314.8" x2="245.0" y2="305.1" style="stroke:#3B424C;stroke-width:10.3px;stroke-linecap:round"/><line x1="212.1" y1="314.8" x2="228.5" y2="309.9" style="stroke:#b6bdc6;stroke-width:8.7px;stroke-linecap:round"/><line x1="228.5" y1="309.9" x2="245.0" y2="305.1" style="stroke:#f5f7f9;stroke-width:8.7px;stroke-linecap:round"/></g>
<circle class="ball" cx="185.8" cy="216.6" r="9.8" fill="url(#sgglossyF3F5F8)" style="stroke:#3B424C;stroke-width:0.8px"/>
<circle class="ball" cx="387.5" cy="166.5" r="9.8" fill="url(#sgglossyF3F5F8)" style="stroke:#3B424C;stroke-width:0.8px"/>
<g class="bond"><line x1="416.9" y1="230.4" x2="448.9" y2="220.6" style="stroke:#3B424C;stroke-width:10.3px;stroke-linecap:round"/><line x1="416.9" y1="230.4" x2="432.9" y2="225.5" style="stroke:#b6bdc6;stroke-width:8.7px;stroke-linecap:round"/><line x1="432.9" y1="225.5" x2="448.9" y2="220.6" style="stroke:#f5f7f9;stroke-width:8.7px;stroke-linecap:round"/></g>
<g class="bond"><line x1="198.2" y1="358.7" x2="220.4" y2="383.4" style="stroke:#3B424C;stroke-width:10.3px;stroke-linecap:round"/><line x1="198.2" y1="358.7" x2="209.3" y2="371.1" style="stroke:#b6bdc6;stroke-width:8.7px;stroke-linecap:round"/><line x1="209.3" y1="371.1" x2="220.4" y2="383.4" style="stroke:#f5f7f9;stroke-width:8.7px;stroke-linecap:round"/></g>
<circle class="ball" cx="330.5" cy="121.0" r="9.8" fill="url(#sgglossyF3F5F8)" style="stroke:#3B424C;stroke-width:0.8px"/>
<circle class="ball" cx="245.0" cy="305.1" r="9.8" fill="url(#sgglossyF3F5F8)" style="stroke:#3B424C;stroke-width:0.8px"/>
<circle class="ball" cx="448.9" cy="220.6" r="9.8" fill="url(#sgglossyF3F5F8)" style="stroke:#3B424C;stroke-width:0.8px"/>
<circle class="ball" cx="220.4" cy="383.4" r="9.8" fill="url(#sgglossyF3F5F8)" style="stroke:#3B424C;stroke-width:0.8px"/>
<circle class="ball" cx="530.4" cy="336.7" r="12.4" fill="url(#sgglossy79AE63)" style="stroke:#3B424C;stroke-width:0.8px"/>
</g>
<line class="dp-spoke" x1="375.9" y1="243.9" x2="350.6" y2="221.9" stroke="#E58A1F"/><line class="dp-spoke behind" x1="350.6" y1="221.9" x2="340.7" y2="213.3" stroke="#E58A1F"/>
<line class="dp-spoke" x1="375.9" y1="243.9" x2="347.0" y2="253.7" stroke="#E58A1F"/><line class="dp-spoke behind" x1="347.0" y1="253.7" x2="335.6" y2="257.5" stroke="#E58A1F"/>
<line class="dp-spoke" x1="375.9" y1="243.9" x2="371.8" y2="275.5" stroke="#E58A1F"/><line class="dp-spoke behind" x1="371.8" y1="275.5" x2="370.2" y2="287.8" stroke="#E58A1F"/>
<line class="dp-spoke" x1="375.9" y1="243.9" x2="399.4" y2="264.4" stroke="#E58A1F"/><line class="dp-spoke behind" x1="399.4" y1="264.4" x2="410.1" y2="273.8" stroke="#E58A1F"/>
<line class="dp-spoke" x1="375.9" y1="243.9" x2="404.1" y2="234.6" stroke="#E58A1F"/><line class="dp-spoke behind" x1="404.1" y1="234.6" x2="416.9" y2="230.4" stroke="#E58A1F"/>
<line class="dp-spoke" x1="375.9" y1="243.9" x2="380.2" y2="214.0" stroke="#E58A1F"/><line class="dp-spoke behind" x1="380.2" y1="214.0" x2="382.1" y2="200.5" stroke="#E58A1F"/>
<line class="dp-ax" x1="375.9" y1="243.9" x2="412.9" y2="201.1" stroke="#D1453B" marker-end="url(#mkD1453B)"/>
<text class="dpn" x="418.4" y="199.8" text-anchor="middle" font-size="14.0" fill="#D1453B">v&#770;</text>
<line class="dp-ax" x1="375.9" y1="243.9" x2="350.6" y2="221.9" stroke="#2F5BD3"/><line class="dp-ax behind" x1="350.6" y1="221.9" x2="333.3" y2="206.9" stroke="#2F5BD3" marker-end="url(#mk2F5BD3)"/>
<text class="dpn" x="327.1" y="206.4" text-anchor="middle" font-size="14.0" fill="#2F5BD3">u&#770;</text>
<line class="dp-ax" x1="375.9" y1="243.9" x2="371.4" y2="242.5" stroke="#2E9E5B" marker-end="url(#mk2E9E5B)"/>
<text class="dpn" x="370.8" y="247.3" text-anchor="middle" font-size="14.0" fill="#2E9E5B">w&#770;</text>
<line class="dp-comp" x1="375.9" y1="243.9" x2="359.2" y2="263.2" stroke="#D1453B" marker-end="url(#mkD1453B)"/>
<line class="dp-drop" x1="299.7" y1="213.0" x2="359.2" y2="263.2" stroke="#7A3E9D"/>
<line class="dp-comp" x1="375.9" y1="243.9" x2="351.1" y2="222.3" stroke="#2F5BD3"/><line class="dp-comp behind" x1="351.1" y1="222.3" x2="329.7" y2="203.7" stroke="#2F5BD3"/><line class="dp-comp" x1="329.7" y1="203.7" x2="319.1" y2="194.5" stroke="#2F5BD3" marker-end="url(#mk2F5BD3)"/>
<line class="dp-drop" x1="299.7" y1="213.0" x2="319.1" y2="194.5" stroke="#7A3E9D"/>
<line class="dp-comp" x1="375.9" y1="243.9" x2="373.2" y2="243.1" stroke="#2E9E5B" marker-end="url(#mk2E9E5B)"/>
<line class="dp-drop" x1="299.7" y1="213.0" x2="373.2" y2="243.1" stroke="#7A3E9D"/>
<line class="dp-mu" x1="375.9" y1="243.9" x2="299.7" y2="213.0" stroke="#7A3E9D" marker-end="url(#mk7A3E9D)"/>
<circle class="dp-origin" cx="375.9" cy="243.9" r="4.2" fill="#E58A1F"/>
<text class="lab mu" data-lab="labmu|vD|1" x="368.2" y="267.2" text-anchor="start" font-size="12.0" fill="#D1453B">&#956;<tspan dy="2.6" font-size="0.75em">v</tspan><tspan dy="-2.6"> -1.64 D</tspan></text>
<text class="lab mu" data-lab="labmu|uD|1" x="319.1" y="184.5" text-anchor="middle" font-size="12.0" fill="#2F5BD3">&#956;<tspan dy="2.6" font-size="0.75em">u</tspan><tspan dy="-2.6"> 4.84 D</tspan></text>
<text class="lab mu" data-lab="labmu|wD|1" x="382.2" y="247.1" text-anchor="start" font-size="12.0" fill="#2E9E5B">&#956;<tspan dy="2.6" font-size="0.75em">w</tspan><tspan dy="-2.6"> 2.16 D</tspan></text>
<line class="leader" x1="273.7" y1="257.0" x2="299.7" y2="213.0" stroke="#7A3E9D"/><text class="lab mu" data-lab="labmu|D|1" x="269.7" y="269.0" text-anchor="end" font-size="12.0" fill="#7A3E9D">&#956; 5.55 D</text>
<circle cx="626" cy="437.6" r="3.6" fill="#7A3E9D"/>
<text class="key" x="618" y="441.1" text-anchor="end" font-size="10.5" fill="#374151">&#956; arrow 0.47 &#8491;/D, &#8722; &#8594; + (Gaussian vector)</text>
<circle cx="626" cy="452.6" r="3.6" fill="#7A3E9D"/>
<text class="key" x="618" y="456.1" text-anchor="end" font-size="10.5" fill="#374151">&#956;<tspan dy="2.6" font-size="0.75em">u</tspan><tspan dy="-2.6"> 4.84</tspan> · &#956;<tspan dy="2.6" font-size="0.75em">v</tspan><tspan dy="-2.6"> -1.64</tspan> · &#956;<tspan dy="2.6" font-size="0.75em">w</tspan><tspan dy="-2.6"> 2.16</tspan> · |&#956;| 5.55 D</text>
</svg>