<svg class="fig scene" xmlns="http://www.w3.org/2000/svg" viewBox="0 0 640 540" role="img" aria-label="Molecule with descriptor constructions">
<defs><radialGradient id="sgglossyBFC3C8" cx="34%" cy="30%" r="70%"><stop offset="0" stop-color="#FFFFFF"/><stop offset="0.13" stop-color="#e5e7e9"/><stop offset="0.5" stop-color="#BFC3C8"/><stop offset="1" stop-color="#56585a"/></radialGradient><radialGradient id="sgglossyF7F7F7" cx="34%" cy="30%" r="70%"><stop offset="0" stop-color="#FFFFFF"/><stop offset="0.13" stop-color="#fcfcfc"/><stop offset="0.5" stop-color="#F7F7F7"/><stop offset="1" stop-color="#6f6f6f"/></radialGradient><radialGradient id="sgglossyE3241B" cx="34%" cy="30%" r="70%"><stop offset="0" stop-color="#FFFFFF"/><stop offset="0.13" stop-color="#f4a7a4"/><stop offset="0.5" stop-color="#E3241B"/><stop offset="1" stop-color="#66100c"/></radialGradient><radialGradient id="sgglossyE8C630" cx="34%" cy="30%" r="70%"><stop offset="0" stop-color="#FFFFFF"/><stop offset="0.13" stop-color="#f6e8ac"/><stop offset="0.5" stop-color="#E8C630"/><stop offset="1" stop-color="#685916"/></radialGradient><radialGradient id="sgglossy9BE07A" cx="34%" cy="30%" r="70%"><stop offset="0" stop-color="#FFFFFF"/><stop offset="0.13" stop-color="#d7f3ca"/><stop offset="0.5" stop-color="#9BE07A"/><stop offset="1" stop-color="#466537"/></radialGradient><marker id="mk7A3E9D" viewBox="0 0 10 10" refX="8.5" refY="5" markerWidth="5.2" markerHeight="5.2" orient="auto"><path d="M0,0 L10,5 L0,10 z" fill="#7A3E9D"/></marker><marker id="mk98A0AB" viewBox="0 0 10 10" refX="8.5" refY="5" markerWidth="5.2" markerHeight="5.2" orient="auto"><path d="M0,0 L10,5 L0,10 z" fill="#98A0AB"/></marker></defs>
<g>
<circle class="ball" cx="457.2" cy="330.7" r="6.6" fill="url(#sgglossyE3241B)" style="stroke:#3B424C;stroke-width:1.1px"/>
<g class="bond"><line x1="478.4" y1="310.3" x2="457.2" y2="330.7" style="stroke:#3B424C;stroke-width:5.7px;stroke-linecap:round"/><line x1="478.4" y1="310.3" x2="457.2" y2="330.7" style="stroke:#1D2025;stroke-width:3.5px;stroke-linecap:round"/></g>
<circle class="ball" cx="182.9" cy="219.2" r="4.9" fill="url(#sgglossyF7F7F7)" style="stroke:#3B424C;stroke-width:1.1px"/>
<circle class="ball" cx="504.7" cy="271.4" r="6.6" fill="url(#sgglossyE3241B)" style="stroke:#3B424C;stroke-width:1.1px"/>
<g class="bond"><line x1="478.4" y1="310.3" x2="504.7" y2="271.4" style="stroke:#3B424C;stroke-width:5.7px;stroke-linecap:round"/><line x1="478.4" y1="310.3" x2="504.7" y2="271.4" style="stroke:#1D2025;stroke-width:3.5px;stroke-linecap:round"/></g>
<circle class="ball" cx="119.8" cy="270.7" r="4.9" fill="url(#sgglossyF7F7F7)" style="stroke:#3B424C;stroke-width:1.1px"/>
<circle class="ball" cx="342.8" cy="124.6" r="4.9" fill="url(#sgglossyF7F7F7)" style="stroke:#3B424C;stroke-width:1.1px"/>
<circle class="ball" cx="304.5" cy="268.3" r="4.9" fill="url(#sgglossyF7F7F7)" style="stroke:#3B424C;stroke-width:1.1px"/>
<circle class="ball" cx="545.0" cy="364.0" r="6.2" fill="url(#sgglossy9BE07A)" style="stroke:#3B424C;stroke-width:1.1px"/>
<circle class="ball" cx="478.4" cy="310.3" r="8.6" fill="url(#sgglossyE8C630)" style="stroke:#3B424C;stroke-width:1.1px"/>
<circle class="ball" cx="95.0" cy="348.6" r="4.9" fill="url(#sgglossyF7F7F7)" style="stroke:#3B424C;stroke-width:1.1px"/>
<g class="bond"><line x1="141.8" y1="295.4" x2="119.8" y2="270.7" style="stroke:#3B424C;stroke-width:5.7px;stroke-linecap:round"/><line x1="141.8" y1="295.4" x2="119.8" y2="270.7" style="stroke:#1D2025;stroke-width:3.5px;stroke-linecap:round"/></g>
<circle class="ball" cx="366.6" cy="321.9" r="4.9" fill="url(#sgglossyF7F7F7)" style="stroke:#3B424C;stroke-width:1.1px"/>
<g class="bond"><line x1="335.6" y1="257.5" x2="304.5" y2="268.3" style="stroke:#3B424C;stroke-width:5.7px;stroke-linecap:round"/><line x1="335.6" y1="257.5" x2="304.5" y2="268.3" style="stroke:#1D2025;stroke-width:3.5px;stroke-linecap:round"/></g>
<g class="bond"><line x1="197.6" y1="234.7" x2="182.9" y2="219.2" style="stroke:#3B424C;stroke-width:5.7px;stroke-linecap:round"/><line x1="197.6" y1="234.7" x2="182.9" y2="219.2" style="stroke:#1D2025;stroke-width:3.5px;stroke-linecap:round"/></g>
<g class="bond"><line x1="127.8" y1="339.2" x2="95.0" y2="348.6" style="stroke:#3B424C;stroke-width:5.7px;stroke-linecap:round"/><line x1="127.8" y1="339.2" x2="95.0" y2="348.6" style="stroke:#1D2025;stroke-width:3.5px;stroke-linecap:round"/></g>
<g class="bond"><line x1="317.3" y1="131.4" x2="342.8" y2="124.6" style="stroke:#3B424C;stroke-width:5.7px;stroke-linecap:round"/><line x1="317.3" y1="131.4" x2="342.8" y2="124.6" style="stroke:#1D2025;stroke-width:3.5px;stroke-linecap:round"/></g>
<g class="bond"><line x1="370.2" y1="287.8" x2="366.6" y2="321.9" style="stroke:#3B424C;stroke-width:5.7px;stroke-linecap:round"/><line x1="370.2" y1="287.8" x2="366.6" y2="321.9" style="stroke:#1D2025;stroke-width:3.5px;stroke-linecap:round"/></g>
<circle class="ball" cx="141.8" cy="295.4" r="7.1" fill="url(#sgglossyBFC3C8)" style="stroke:#3B424C;stroke-width:1.1px"/>
<circle class="ball" cx="335.6" cy="257.5" r="7.1" fill="url(#sgglossyBFC3C8)" style="stroke:#3B424C;stroke-width:1.1px"/>
<g class="bond"><line x1="512.8" y1="352.8" x2="545.0" y2="364.0" style="stroke:#3B424C;stroke-width:5.7px;stroke-linecap:round"/><line x1="512.8" y1="352.8" x2="545.0" y2="364.0" style="stroke:#1D2025;stroke-width:3.5px;stroke-linecap:round"/></g>
<g class="bond"><line x1="478.4" y1="310.3" x2="512.8" y2="352.8" style="stroke:#3B424C;stroke-width:5.7px;stroke-linecap:round"/><line x1="478.4" y1="310.3" x2="512.8" y2="352.8" style="stroke:#1D2025;stroke-width:3.5px;stroke-linecap:round"/></g>
<g class="bond"><line x1="141.8" y1="295.4" x2="127.8" y2="339.2" style="stroke:#3B424C;stroke-width:5.7px;stroke-linecap:round"/><line x1="141.8" y1="295.4" x2="127.8" y2="339.2" style="stroke:#1D2025;stroke-width:3.5px;stroke-linecap:round"/></g>
<g class="bond"><line x1="335.6" y1="257.5" x2="370.2" y2="287.8" style="stroke:#3B424C;stroke-width:5.7px;stroke-linecap:round"/><line x1="335.6" y1="257.5" x2="370.2" y2="287.8" style="stroke:#1D2025;stroke-width:3.5px;stroke-linecap:round"/></g>
<circle class="ball" cx="127.8" cy="339.2" r="7.1" fill="url(#sgglossyBFC3C8)" style="stroke:#3B424C;stroke-width:1.1px"/>
<circle class="ball" cx="288.5" cy="110.6" r="4.9" fill="url(#sgglossyF7F7F7)" style="stroke:#3B424C;stroke-width:1.1px"/>
<circle class="ball" cx="370.2" cy="287.8" r="7.1" fill="url(#sgglossyBFC3C8)" style="stroke:#3B424C;stroke-width:1.1px"/>
<circle class="ball" cx="236.7" cy="163.7" r="4.9" fill="url(#sgglossyF7F7F7)" style="stroke:#3B424C;stroke-width:1.1px"/>
<g class="bond"><line x1="183.9" y1="282.8" x2="141.8" y2="295.4" style="stroke:#3B424C;stroke-width:5.7px;stroke-linecap:round"/><line x1="183.9" y1="282.8" x2="141.8" y2="295.4" style="stroke:#1D2025;stroke-width:3.5px;stroke-linecap:round"/></g>
<g class="bond"><line x1="261.4" y1="190.0" x2="236.7" y2="163.7" style="stroke:#3B424C;stroke-width:5.7px;stroke-linecap:round"/><line x1="261.4" y1="190.0" x2="236.7" y2="163.7" style="stroke:#1D2025;stroke-width:3.5px;stroke-linecap:round"/></g>
<g class="bond"><line x1="317.3" y1="131.4" x2="288.5" y2="110.6" style="stroke:#3B424C;stroke-width:5.7px;stroke-linecap:round"/><line x1="317.3" y1="131.4" x2="288.5" y2="110.6" style="stroke:#1D2025;stroke-width:3.5px;stroke-linecap:round"/></g>
<g class="bond"><line x1="444.9" y1="305.0" x2="478.4" y2="310.3" style="stroke:#3B424C;stroke-width:5.7px;stroke-linecap:round"/><line x1="444.9" y1="305.0" x2="478.4" y2="310.3" style="stroke:#1D2025;stroke-width:3.5px;stroke-linecap:round"/></g>
<g class="bond"><line x1="340.7" y1="213.3" x2="335.6" y2="257.5" style="stroke:#3B424C;stroke-width:5.7px;stroke-linecap:round"/><line x1="340.7" y1="213.3" x2="335.6" y2="257.5" style="stroke:#1D2025;stroke-width:3.5px;stroke-linecap:round"/></g>
<circle class="ball" cx="261.4" cy="190.0" r="7.1" fill="url(#sgglossyBFC3C8)" style="stroke:#3B424C;stroke-width:1.1px"/>
<g class="bond"><line x1="261.4" y1="190.0" x2="244.7" y2="231.9" style="stroke:#3B424C;stroke-width:5.7px;stroke-linecap:round"/><line x1="261.4" y1="190.0" x2="244.7" y2="231.9" style="stroke:#1D2025;stroke-width:3.5px;stroke-linecap:round"/></g>
<circle class="ball" cx="244.7" cy="231.9" r="6.6" fill="url(#sgglossyE3241B)" style="stroke:#3B424C;stroke-width:1.1px"/>
<g class="bond"><line x1="304.7" y1="180.0" x2="261.4" y2="190.0" style="stroke:#3B424C;stroke-width:5.7px;stroke-linecap:round"/><line x1="304.7" y1="180.0" x2="261.4" y2="190.0" style="stroke:#1D2025;stroke-width:3.5px;stroke-linecap:round"/></g>
<g class="bond"><line x1="244.7" y1="231.9" x2="197.6" y2="234.7" style="stroke:#3B424C;stroke-width:5.7px;stroke-linecap:round"/><line x1="244.7" y1="231.9" x2="197.6" y2="234.7" style="stroke:#1D2025;stroke-width:3.5px;stroke-linecap:round"/></g>
<g class="bond"><line x1="304.7" y1="180.0" x2="317.3" y2="131.4" style="stroke:#3B424C;stroke-width:5.7px;stroke-linecap:round"/><line x1="304.7" y1="180.0" x2="317.3" y2="131.4" style="stroke:#1D2025;stroke-width:3.5px;stroke-linecap:round"/></g>
<circle class="ball" cx="317.3" cy="131.4" r="7.1" fill="url(#sgglossyBFC3C8)" style="stroke:#3B424C;stroke-width:1.1px"/>
<circle class="ball" cx="304.7" cy="180.0" r="7.1" fill="url(#sgglossyBFC3C8)" style="stroke:#3B424C;stroke-width:1.1px"/>
<circle class="ball" cx="197.6" cy="234.7" r="7.1" fill="url(#sgglossyBFC3C8)" style="stroke:#3B424C;stroke-width:1.1px"/>
<g class="bond"><line x1="127.8" y1="339.2" x2="156.1" y2="371.1" style="stroke:#3B424C;stroke-width:5.7px;stroke-linecap:round"/><line x1="127.8" y1="339.2" x2="156.1" y2="371.1" style="stroke:#1D2025;stroke-width:3.5px;stroke-linecap:round"/></g>
<g class="bond"><line x1="304.7" y1="180.0" x2="340.7" y2="213.3" style="stroke:#3B424C;stroke-width:5.7px;stroke-linecap:round"/><line x1="304.7" y1="180.0" x2="340.7" y2="213.3" style="stroke:#1D2025;stroke-width:3.5px;stroke-linecap:round"/></g>
<g class="bond"><line x1="197.6" y1="234.7" x2="183.9" y2="282.8" style="stroke:#3B424C;stroke-width:5.7px;stroke-linecap:round"/><line x1="197.6" y1="234.7" x2="183.9" y2="282.8" style="stroke:#1D2025;stroke-width:3.5px;stroke-linecap:round"/></g>
<g class="bond"><line x1="370.2" y1="287.8" x2="410.1" y2="273.8" style="stroke:#3B424C;stroke-width:5.7px;stroke-linecap:round"/><line x1="370.2" y1="287.8" x2="410.1" y2="273.8" style="stroke:#1D2025;stroke-width:3.5px;stroke-linecap:round"/></g>
<circle class="ball" cx="183.9" cy="282.8" r="7.1" fill="url(#sgglossyBFC3C8)" style="stroke:#3B424C;stroke-width:1.1px"/>
<circle class="ball" cx="340.7" cy="213.3" r="7.1" fill="url(#sgglossyBFC3C8)" style="stroke:#3B424C;stroke-width:1.1px"/>
<circle class="ball" cx="512.8" cy="352.8" r="7.1" fill="url(#sgglossyBFC3C8)" style="stroke:#3B424C;stroke-width:1.1px"/>
<g class="bond"><line x1="512.8" y1="352.8" x2="488.7" y2="388.3" style="stroke:#3B424C;stroke-width:5.7px;stroke-linecap:round"/><line x1="512.8" y1="352.8" x2="488.7" y2="388.3" style="stroke:#1D2025;stroke-width:3.5px;stroke-linecap:round"/></g>
<circle class="ball" cx="156.1" cy="371.1" r="7.1" fill="url(#sgglossyBFC3C8)" style="stroke:#3B424C;stroke-width:1.1px"/>
<circle class="ball" cx="410.1" cy="273.8" r="7.1" fill="url(#sgglossyBFC3C8)" style="stroke:#3B424C;stroke-width:1.1px"/>
<g class="bond"><line x1="156.1" y1="371.1" x2="145.3" y2="405.4" style="stroke:#3B424C;stroke-width:5.7px;stroke-linecap:round"/><line x1="156.1" y1="371.1" x2="145.3" y2="405.4" style="stroke:#1D2025;stroke-width:3.5px;stroke-linecap:round"/></g>
<g class="bond"><line x1="340.7" y1="213.3" x2="382.1" y2="200.5" style="stroke:#3B424C;stroke-width:5.7px;stroke-linecap:round"/><line x1="340.7" y1="213.3" x2="382.1" y2="200.5" style="stroke:#1D2025;stroke-width:3.5px;stroke-linecap:round"/></g>
<g class="bond"><line x1="183.9" y1="282.8" x2="212.1" y2="314.8" style="stroke:#3B424C;stroke-width:5.7px;stroke-linecap:round"/><line x1="183.9" y1="282.8" x2="212.1" y2="314.8" style="stroke:#1D2025;stroke-width:3.5px;stroke-linecap:round"/></g>
<circle class="ball" cx="145.3" cy="405.4" r="4.9" fill="url(#sgglossyF7F7F7)" style="stroke:#3B424C;stroke-width:1.1px"/>
<circle class="ball" cx="488.7" cy="388.3" r="6.2" fill="url(#sgglossy9BE07A)" style="stroke:#3B424C;stroke-width:1.1px"/>
<g class="bond"><line x1="410.1" y1="273.8" x2="444.9" y2="305.0" style="stroke:#3B424C;stroke-width:5.7px;stroke-linecap:round"/><line x1="410.1" y1="273.8" x2="444.9" y2="305.0" style="stroke:#1D2025;stroke-width:3.5px;stroke-linecap:round"/></g>
<g class="bond"><line x1="197.6" y1="234.7" x2="185.8" y2="216.6" style="stroke:#3B424C;stroke-width:5.7px;stroke-linecap:round"/><line x1="197.6" y1="234.7" x2="185.8" y2="216.6" style="stroke:#1D2025;stroke-width:3.5px;stroke-linecap:round"/></g>
<g class="bond"><line x1="317.3" y1="131.4" x2="330.5" y2="121.0" style="stroke:#3B424C;stroke-width:5.7px;stroke-linecap:round"/><line x1="317.3" y1="131.4" x2="330.5" y2="121.0" style="stroke:#1D2025;stroke-width:3.5px;stroke-linecap:round"/></g>
<circle class="ball" cx="444.9" cy="305.0" r="6.6" fill="url(#sgglossyE3241B)" style="stroke:#3B424C;stroke-width:1.1px"/>
<g class="bond"><line x1="198.2" y1="358.7" x2="156.1" y2="371.1" style="stroke:#3B424C;stroke-width:5.7px;stroke-linecap:round"/><line x1="198.2" y1="358.7" x2="156.1" y2="371.1" style="stroke:#1D2025;stroke-width:3.5px;stroke-linecap:round"/></g>
<g class="bond"><line x1="410.1" y1="273.8" x2="416.9" y2="230.4" style="stroke:#3B424C;stroke-width:5.7px;stroke-linecap:round"/><line x1="410.1" y1="273.8" x2="416.9" y2="230.4" style="stroke:#1D2025;stroke-width:3.5px;stroke-linecap:round"/></g>
<circle class="ball" cx="382.1" cy="200.5" r="7.1" fill="url(#sgglossyBFC3C8)" style="stroke:#3B424C;stroke-width:1.1px"/>
<circle class="ball" cx="212.1" cy="314.8" r="7.1" fill="url(#sgglossyBFC3C8)" style="stroke:#3B424C;stroke-width:1.1px"/>
<g class="bond"><line x1="512.8" y1="352.8" x2="530.4" y2="336.7" style="stroke:#3B424C;stroke-width:5.7px;stroke-linecap:round"/><line x1="512.8" y1="352.8" x2="530.4" y2="336.7" style="stroke:#1D2025;stroke-width:3.5px;stroke-linecap:round"/></g>
<g class="bond"><line x1="416.9" y1="230.4" x2="382.1" y2="200.5" style="stroke:#3B424C;stroke-width:5.7px;stroke-linecap:round"/><line x1="416.9" y1="230.4" x2="382.1" y2="200.5" style="stroke:#1D2025;stroke-width:3.5px;stroke-linecap:round"/></g>
<g class="bond"><line x1="212.1" y1="314.8" x2="198.2" y2="358.7" style="stroke:#3B424C;stroke-width:5.7px;stroke-linecap:round"/><line x1="212.1" y1="314.8" x2="198.2" y2="358.7" style="stroke:#1D2025;stroke-width:3.5px;stroke-linecap:round"/></g>
<circle class="ball" cx="416.9" cy="230.4" r="7.1" fill="url(#sgglossyBFC3C8)" style="stroke:#3B424C;stroke-width:1.1px"/>
<circle class="ball" cx="198.2" cy="358.7" r="7.1" fill="url(#sgglossyBFC3C8)" style="stroke:#3B424C;stroke-width:1.1px"/>
<g class="bond"><line x1="382.1" y1="200.5" x2="387.5" y2="166.5" style="stroke:#3B424C;stroke-width:5.7px;stroke-linecap:round"/><line x1="382.1" y1="200.5" x2="387.5" y2="166.5" style="stroke:#1D2025;stroke-width:3.5px;stroke-linecap:round"/></g>
<g class="bond"><line x1="212.1" y1="314.8" x2="245.0" y2="305.1" style="stroke:#3B424C;stroke-width:5.7px;stroke-linecap:round"/><line x1="212.1" y1="314.8" x2="245.0" y2="305.1" style="stroke:#1D2025;stroke-width:3.5px;stroke-linecap:round"/></g>
<circle class="ball" cx="185.8" cy="216.6" r="4.9" fill="url(#sgglossyF7F7F7)" style="stroke:#3B424C;stroke-width:1.1px"/>
<circle class="ball" cx="387.5" cy="166.5" r="4.9" fill="url(#sgglossyF7F7F7)" style="stroke:#3B424C;stroke-width:1.1px"/>
<g class="bond"><line x1="416.9" y1="230.4" x2="448.9" y2="220.6" style="stroke:#3B424C;stroke-width:5.7px;stroke-linecap:round"/><line x1="416.9" y1="230.4" x2="448.9" y2="220.6" style="stroke:#1D2025;stroke-width:3.5px;stroke-linecap:round"/></g>
<g class="bond"><line x1="198.2" y1="358.7" x2="220.4" y2="383.4" style="stroke:#3B424C;stroke-width:5.7px;stroke-linecap:round"/><line x1="198.2" y1="358.7" x2="220.4" y2="383.4" style="stroke:#1D2025;stroke-width:3.5px;stroke-linecap:round"/></g>
<circle class="ball" cx="330.5" cy="121.0" r="4.9" fill="url(#sgglossyF7F7F7)" style="stroke:#3B424C;stroke-width:1.1px"/>
<circle class="ball" cx="245.0" cy="305.1" r="4.9" fill="url(#sgglossyF7F7F7)" style="stroke:#3B424C;stroke-width:1.1px"/>
<circle class="ball" cx="448.9" cy="220.6" r="4.9" fill="url(#sgglossyF7F7F7)" style="stroke:#3B424C;stroke-width:1.1px"/>
<circle class="ball" cx="220.4" cy="383.4" r="4.9" fill="url(#sgglossyF7F7F7)" style="stroke:#3B424C;stroke-width:1.1px"/>
<circle class="ball" cx="530.4" cy="336.7" r="6.2" fill="url(#sgglossy9BE07A)" style="stroke:#3B424C;stroke-width:1.1px"/>
</g>
<line class="dp-spoke" x1="375.9" y1="243.9" x2="345.1" y2="217.1" stroke="#E58A1F"/><line class="dp-spoke behind" x1="345.1" y1="217.1" x2="340.7" y2="213.3" stroke="#E58A1F"/>
<line class="dp-spoke" x1="375.9" y1="243.9" x2="340.7" y2="255.8" stroke="#E58A1F"/><line class="dp-spoke behind" x1="340.7" y1="255.8" x2="335.6" y2="257.5" stroke="#E58A1F"/>
<line class="dp-spoke" x1="375.9" y1="243.9" x2="370.9" y2="282.3" stroke="#E58A1F"/><line class="dp-spoke behind" x1="370.9" y1="282.3" x2="370.2" y2="287.8" stroke="#E58A1F"/>
<line class="dp-spoke" x1="375.9" y1="243.9" x2="404.8" y2="269.1" stroke="#E58A1F"/><line class="dp-spoke behind" x1="404.8" y1="269.1" x2="410.1" y2="273.8" stroke="#E58A1F"/>
<line class="dp-spoke" x1="375.9" y1="243.9" x2="410.5" y2="232.5" stroke="#E58A1F"/><line class="dp-spoke behind" x1="410.5" y1="232.5" x2="416.9" y2="230.4" stroke="#E58A1F"/>
<line class="dp-spoke" x1="375.9" y1="243.9" x2="381.2" y2="207.2" stroke="#E58A1F"/><line class="dp-spoke behind" x1="381.2" y1="207.2" x2="382.1" y2="200.5" stroke="#E58A1F"/>
<line class="dp-guide" x1="375.9" y1="243.9" x2="345.6" y2="217.5" stroke="#7A3E9D"/><line class="dp-guide behind" x1="345.6" y1="217.5" x2="334.7" y2="208.1" stroke="#7A3E9D"/><line class="dp-guide" x1="334.7" y1="208.1" x2="308.7" y2="185.5" stroke="#7A3E9D"/><line class="dp-guide behind" x1="308.7" y1="185.5" x2="306.5" y2="183.6" stroke="#7A3E9D"/>
<line class="dp-comp" x1="375.9" y1="243.9" x2="345.7" y2="217.6" stroke="#7A3E9D"/><line class="dp-comp behind" x1="345.7" y1="217.6" x2="335.1" y2="208.4" stroke="#7A3E9D"/><line class="dp-comp" x1="335.1" y1="208.4" x2="319.1" y2="194.5" stroke="#7A3E9D" marker-end="url(#mk7A3E9D)"/>
<line class="dp-drop" x1="299.7" y1="213.0" x2="319.1" y2="194.5" stroke="#98A0AB"/>
<line class="dp-mu" x1="375.9" y1="243.9" x2="299.7" y2="213.0" stroke="#98A0AB" marker-end="url(#mk98A0AB)"/>
<circle class="dp-origin" cx="375.9" cy="243.9" r="4.2" fill="#E58A1F"/>
<text class="dpn" data-lab="dpn|u|1" x="318.5" y="187.6" text-anchor="start" font-size="28.0" fill="#7A3E9D">u&#770;</text>
<text class="lab mu" data-lab="labmu|uD|1" x="310.1" y="198.5" text-anchor="end" font-size="24.0" fill="#7A3E9D">&#956;<tspan dy="2.6" font-size="0.75em">u</tspan><tspan dy="-2.6"> 4.84 D</tspan></text>
<text class="lab mu" data-lab="labmu|D|1" x="259.7" y="147.7" text-anchor="end" font-size="24.0" fill="#98A0AB">&#956; 5.55 D</text>
</svg>