<svg class="fig scene" xmlns="http://www.w3.org/2000/svg" viewBox="0 0 640 540" role="img" aria-label="Molecule with descriptor constructions">
<defs><radialGradient id="sgglossyb5bcc6" cx="34%" cy="30%" r="70%"><stop offset="0" stop-color="#FFFFFF"/><stop offset="0.13" stop-color="#e1e4e8"/><stop offset="0.5" stop-color="#b5bcc6"/><stop offset="1" stop-color="#515559"/></radialGradient><radialGradient id="sgglossyDF8A2E" cx="34%" cy="30%" r="70%"><stop offset="0" stop-color="#FFFFFF"/><stop offset="0.13" stop-color="#f2d0ab"/><stop offset="0.5" stop-color="#DF8A2E"/><stop offset="1" stop-color="#643e15"/></radialGradient><radialGradient id="sgglossyA9B1BC" cx="34%" cy="30%" r="70%"><stop offset="0" stop-color="#FFFFFF"/><stop offset="0.13" stop-color="#dde0e4"/><stop offset="0.5" stop-color="#A9B1BC"/><stop offset="1" stop-color="#4c5055"/></radialGradient><radialGradient id="sgglossy647dd1" cx="34%" cy="30%" r="70%"><stop offset="0" stop-color="#FFFFFF"/><stop offset="0.13" stop-color="#c1cbed"/><stop offset="0.5" stop-color="#647dd1"/><stop offset="1" stop-color="#2d385e"/></radialGradient><radialGradient id="sgglossyf5f6f9" cx="34%" cy="30%" r="70%"><stop offset="0" stop-color="#FFFFFF"/><stop offset="0.13" stop-color="#fbfbfd"/><stop offset="0.5" stop-color="#f5f6f9"/><stop offset="1" stop-color="#6e6f70"/></radialGradient><radialGradient id="sgglossyCF4A40" cx="34%" cy="30%" r="70%"><stop offset="0" stop-color="#FFFFFF"/><stop offset="0.13" stop-color="#ecb7b3"/><stop offset="0.5" stop-color="#CF4A40"/><stop offset="1" stop-color="#5d211d"/></radialGradient><radialGradient id="sgglossyf6f8fa" cx="34%" cy="30%" r="70%"><stop offset="0" stop-color="#FFFFFF"/><stop offset="0.13" stop-color="#fbfcfd"/><stop offset="0.5" stop-color="#f6f8fa"/><stop offset="1" stop-color="#6f7071"/></radialGradient><radialGradient id="sgglossyF3F5F8" cx="34%" cy="30%" r="70%"><stop offset="0" stop-color="#FFFFFF"/><stop offset="0.13" stop-color="#fafbfc"/><stop offset="0.5" stop-color="#F3F5F8"/><stop offset="1" stop-color="#6d6e70"/></radialGradient><marker id="mk1596A6" viewBox="0 0 10 10" refX="8.5" refY="5" markerWidth="5.2" markerHeight="5.2" orient="auto"><path d="M0,0 L10,5 L0,10 z" fill="#1596A6"/></marker><marker id="mkC9352B" viewBox="0 0 10 10" refX="8.5" refY="5" markerWidth="5.2" markerHeight="5.2" orient="auto"><path d="M0,0 L10,5 L0,10 z" fill="#C9352B"/></marker><marker id="mk6C4AB6" viewBox="0 0 10 10" refX="8.5" refY="5" markerWidth="5.2" markerHeight="5.2" orient="auto"><path d="M0,0 L10,5 L0,10 z" fill="#6C4AB6"/></marker><filter id="softshadow" x="-20%" y="-20%" width="140%" height="140%"><feDropShadow dx="1.4" dy="2.4" stdDeviation="2.3" flood-color="#1B2230" flood-opacity=".22"/></filter></defs>
<path class="sx-ref" d="M281.9,281.5 L182.7,304.2 L182.7,82.5 L281.9,59.8 Z" fill="#3450A8" stroke="#3450A8"/>
<path class="sx-patch" d="M324.0,279.7 L277.0,290.4 L277.0,233.4 L324.0,222.6 Z" fill="#6C4AB6" stroke="#6C4AB6"/>
<g filter="url(#softshadow)">
<circle class="ball ghost" cx="264.2" cy="252.6" r="8.2" fill="url(#sgglossyf6f8fa)" style="stroke:#3B424C;stroke-width:0.8px"/>
<circle class="ball ghost" cx="307.4" cy="277.8" r="8.2" fill="url(#sgglossyf5f6f9)" style="stroke:#3B424C;stroke-width:0.8px"/>
<circle class="ball ghost" cx="264.1" cy="302.3" r="8.2" fill="url(#sgglossyf5f6f9)" style="stroke:#3B424C;stroke-width:0.8px"/>
<g class="bond ghost"><line x1="278.7" y1="276.8" x2="264.2" y2="252.6" style="stroke:#3B424C;stroke-width:8.9px;stroke-linecap:round"/><line x1="278.7" y1="276.8" x2="271.5" y2="264.7" style="stroke:#c0c6cf;stroke-width:7.3px;stroke-linecap:round"/><line x1="271.5" y1="264.7" x2="264.2" y2="252.6" style="stroke:#f7f9fb;stroke-width:7.3px;stroke-linecap:round"/></g>
<g class="bond ghost"><line x1="278.7" y1="276.8" x2="307.4" y2="277.8" style="stroke:#3B424C;stroke-width:8.9px;stroke-linecap:round"/><line x1="278.7" y1="276.8" x2="293.1" y2="277.3" style="stroke:#c0c6cf;stroke-width:7.3px;stroke-linecap:round"/><line x1="293.1" y1="277.3" x2="307.4" y2="277.8" style="stroke:#f7f7fa;stroke-width:7.3px;stroke-linecap:round"/></g>
<g class="bond ghost"><line x1="278.7" y1="276.8" x2="264.1" y2="302.3" style="stroke:#3B424C;stroke-width:8.9px;stroke-linecap:round"/><line x1="278.7" y1="276.8" x2="271.4" y2="289.5" style="stroke:#c0c6cf;stroke-width:7.3px;stroke-linecap:round"/><line x1="271.4" y1="289.5" x2="264.1" y2="302.3" style="stroke:#f7f7fa;stroke-width:7.3px;stroke-linecap:round"/></g>
<circle class="ball ghost" cx="278.7" cy="276.8" r="12.0" fill="url(#sgglossyb5bcc6)" style="stroke:#3B424C;stroke-width:0.8px"/>
<g class="bond ghost"><line x1="278.7" y1="276.8" x2="278.7" y2="275.1" style="stroke:#3B424C;stroke-width:8.9px;stroke-linecap:round"/><line x1="278.7" y1="276.8" x2="278.7" y2="275.9" style="stroke:#c0c6cf;stroke-width:7.3px;stroke-linecap:round"/><line x1="278.7" y1="275.9" x2="278.7" y2="275.1" style="stroke:#c0c6cf;stroke-width:7.3px;stroke-linecap:round"/></g>
<circle class="ball ghost" cx="278.7" cy="275.1" r="12.0" fill="url(#sgglossyb5bcc6)" style="stroke:#3B424C;stroke-width:0.8px"/>
<circle class="ball ghost" cx="226.8" cy="244.6" r="8.2" fill="url(#sgglossyf5f6f9)" style="stroke:#3B424C;stroke-width:0.8px"/>
<circle class="ball ghost" cx="331.5" cy="303.6" r="8.2" fill="url(#sgglossyf5f6f9)" style="stroke:#3B424C;stroke-width:0.8px"/>
<g class="bond ghost"><line x1="278.7" y1="275.1" x2="249.6" y2="258.0" style="stroke:#3B424C;stroke-width:8.9px;stroke-linecap:round"/><line x1="278.7" y1="275.1" x2="264.2" y2="266.6" style="stroke:#c0c6cf;stroke-width:7.3px;stroke-linecap:round"/><line x1="264.2" y1="266.6" x2="249.6" y2="258.0" style="stroke:#c0c6cf;stroke-width:7.3px;stroke-linecap:round"/></g>
<circle class="ball ghost" cx="227.8" cy="364.6" r="8.2" fill="url(#sgglossyf5f6f9)" style="stroke:#3B424C;stroke-width:0.8px"/>
<g class="bond ghost"><line x1="278.7" y1="275.1" x2="307.7" y2="291.0" style="stroke:#3B424C;stroke-width:8.9px;stroke-linecap:round"/><line x1="278.7" y1="275.1" x2="293.2" y2="283.0" style="stroke:#c0c6cf;stroke-width:7.3px;stroke-linecap:round"/><line x1="293.2" y1="283.0" x2="307.7" y2="291.0" style="stroke:#c0c6cf;stroke-width:7.3px;stroke-linecap:round"/></g>
<g class="bond ghost"><line x1="249.6" y1="258.0" x2="226.8" y2="244.6" style="stroke:#3B424C;stroke-width:8.9px;stroke-linecap:round"/><line x1="249.6" y1="258.0" x2="238.2" y2="251.3" style="stroke:#c0c6cf;stroke-width:7.3px;stroke-linecap:round"/><line x1="238.2" y1="251.3" x2="226.8" y2="244.6" style="stroke:#f7f7fa;stroke-width:7.3px;stroke-linecap:round"/></g>
<g class="bond ghost"><line x1="307.7" y1="291.0" x2="331.5" y2="303.6" style="stroke:#3B424C;stroke-width:8.9px;stroke-linecap:round"/><line x1="307.7" y1="291.0" x2="319.6" y2="297.3" style="stroke:#c0c6cf;stroke-width:7.3px;stroke-linecap:round"/><line x1="319.6" y1="297.3" x2="331.5" y2="303.6" style="stroke:#f7f7fa;stroke-width:7.3px;stroke-linecap:round"/></g>
<circle class="ball ghost" cx="288.7" cy="400.7" r="8.2" fill="url(#sgglossyf5f6f9)" style="stroke:#3B424C;stroke-width:0.8px"/>
<circle class="ball ghost" cx="225.9" cy="434.6" r="8.2" fill="url(#sgglossyf5f6f9)" style="stroke:#3B424C;stroke-width:0.8px"/>
<circle class="ball ghost" cx="249.6" cy="258.0" r="12.0" fill="url(#sgglossyb5bcc6)" style="stroke:#3B424C;stroke-width:0.8px"/>
<circle class="ball ghost" cx="307.7" cy="291.0" r="12.0" fill="url(#sgglossyb5bcc6)" style="stroke:#3B424C;stroke-width:0.8px"/>
<g class="bond ghost"><line x1="227.7" y1="361.3" x2="227.8" y2="364.6" style="stroke:#3B424C;stroke-width:8.9px;stroke-linecap:round"/><line x1="227.7" y1="361.3" x2="227.8" y2="362.9" style="stroke:#c0c6cf;stroke-width:7.3px;stroke-linecap:round"/><line x1="227.8" y1="362.9" x2="227.8" y2="364.6" style="stroke:#f7f7fa;stroke-width:7.3px;stroke-linecap:round"/></g>
<g class="bond ghost"><line x1="287.6" y1="397.3" x2="288.7" y2="400.7" style="stroke:#3B424C;stroke-width:8.9px;stroke-linecap:round"/><line x1="287.6" y1="397.3" x2="288.1" y2="399.0" style="stroke:#c0c6cf;stroke-width:7.3px;stroke-linecap:round"/><line x1="288.1" y1="399.0" x2="288.7" y2="400.7" style="stroke:#f7f7fa;stroke-width:7.3px;stroke-linecap:round"/></g>
<g class="bond ghost"><line x1="225.8" y1="430.9" x2="225.9" y2="434.6" style="stroke:#3B424C;stroke-width:8.9px;stroke-linecap:round"/><line x1="225.8" y1="430.9" x2="225.9" y2="432.7" style="stroke:#c0c6cf;stroke-width:7.3px;stroke-linecap:round"/><line x1="225.9" y1="432.7" x2="225.9" y2="434.6" style="stroke:#f7f7fa;stroke-width:7.3px;stroke-linecap:round"/></g>
<g class="bond ghost"><line x1="248.0" y1="257.7" x2="249.6" y2="258.0" style="stroke:#3B424C;stroke-width:8.9px;stroke-linecap:round"/><line x1="248.0" y1="257.7" x2="248.8" y2="257.9" style="stroke:#c0c6cf;stroke-width:7.3px;stroke-linecap:round"/><line x1="248.8" y1="257.9" x2="249.6" y2="258.0" style="stroke:#c0c6cf;stroke-width:7.3px;stroke-linecap:round"/></g>
<g class="bond ghost"><line x1="307.7" y1="291.0" x2="307.8" y2="291.5" style="stroke:#3B424C;stroke-width:8.9px;stroke-linecap:round"/><line x1="307.7" y1="291.0" x2="307.7" y2="291.2" style="stroke:#c0c6cf;stroke-width:7.3px;stroke-linecap:round"/><line x1="307.7" y1="291.2" x2="307.8" y2="291.5" style="stroke:#c0c6cf;stroke-width:7.3px;stroke-linecap:round"/></g>
<circle class="ball ghost" cx="227.7" cy="361.3" r="12.0" fill="url(#sgglossyb5bcc6)" style="stroke:#3B424C;stroke-width:0.8px"/>
<g class="bond ghost"><line x1="227.7" y1="361.3" x2="242.4" y2="335.1" style="stroke:#3B424C;stroke-width:8.9px;stroke-linecap:round"/><line x1="227.7" y1="361.3" x2="235.1" y2="348.2" style="stroke:#c0c6cf;stroke-width:7.3px;stroke-linecap:round"/><line x1="235.1" y1="348.2" x2="242.4" y2="335.1" style="stroke:#f7f7fa;stroke-width:7.3px;stroke-linecap:round"/></g>
<g class="bond ghost"><line x1="227.7" y1="361.3" x2="198.6" y2="358.1" style="stroke:#3B424C;stroke-width:8.9px;stroke-linecap:round"/><line x1="227.7" y1="361.3" x2="213.2" y2="359.7" style="stroke:#c0c6cf;stroke-width:7.3px;stroke-linecap:round"/><line x1="213.2" y1="359.7" x2="198.6" y2="358.1" style="stroke:#f7f7fa;stroke-width:7.3px;stroke-linecap:round"/></g>
<circle class="ball ghost" cx="287.6" cy="397.3" r="12.0" fill="url(#sgglossyb5bcc6)" style="stroke:#3B424C;stroke-width:0.8px"/>
<circle class="ball ghost" cx="242.4" cy="335.1" r="8.2" fill="url(#sgglossyf5f6f9)" style="stroke:#3B424C;stroke-width:0.8px"/>
<circle class="ball ghost" cx="225.8" cy="430.9" r="12.0" fill="url(#sgglossyb5bcc6)" style="stroke:#3B424C;stroke-width:0.8px"/>
<g class="bond ghost"><line x1="287.6" y1="397.3" x2="302.8" y2="371.4" style="stroke:#3B424C;stroke-width:8.9px;stroke-linecap:round"/><line x1="287.6" y1="397.3" x2="295.2" y2="384.3" style="stroke:#c0c6cf;stroke-width:7.3px;stroke-linecap:round"/><line x1="295.2" y1="384.3" x2="302.8" y2="371.4" style="stroke:#f7f7fa;stroke-width:7.3px;stroke-linecap:round"/></g>
<g class="bond ghost"><line x1="246.8" y1="395.0" x2="227.7" y2="361.3" style="stroke:#3B424C;stroke-width:8.9px;stroke-linecap:round"/><line x1="246.8" y1="395.0" x2="237.3" y2="378.1" style="stroke:#c0c6cf;stroke-width:7.3px;stroke-linecap:round"/><line x1="237.3" y1="378.1" x2="227.7" y2="361.3" style="stroke:#c0c6cf;stroke-width:7.3px;stroke-linecap:round"/></g>
<circle class="ball ghost" cx="198.6" cy="358.1" r="8.2" fill="url(#sgglossyf5f6f9)" style="stroke:#3B424C;stroke-width:0.8px"/>
<g class="bond ghost"><line x1="287.6" y1="397.3" x2="302.7" y2="421.2" style="stroke:#3B424C;stroke-width:8.9px;stroke-linecap:round"/><line x1="287.6" y1="397.3" x2="295.1" y2="409.2" style="stroke:#c0c6cf;stroke-width:7.3px;stroke-linecap:round"/><line x1="295.1" y1="409.2" x2="302.7" y2="421.2" style="stroke:#f7f7fa;stroke-width:7.3px;stroke-linecap:round"/></g>
<g class="bond ghost"><line x1="246.8" y1="395.0" x2="287.6" y2="397.3" style="stroke:#3B424C;stroke-width:8.9px;stroke-linecap:round"/><line x1="246.8" y1="395.0" x2="267.2" y2="396.1" style="stroke:#c0c6cf;stroke-width:7.3px;stroke-linecap:round"/><line x1="267.2" y1="396.1" x2="287.6" y2="397.3" style="stroke:#c0c6cf;stroke-width:7.3px;stroke-linecap:round"/></g>
<g class="bond ghost"><line x1="225.8" y1="430.9" x2="196.3" y2="429.6" style="stroke:#3B424C;stroke-width:8.9px;stroke-linecap:round"/><line x1="225.8" y1="430.9" x2="211.1" y2="430.3" style="stroke:#c0c6cf;stroke-width:7.3px;stroke-linecap:round"/><line x1="211.1" y1="430.3" x2="196.3" y2="429.6" style="stroke:#f7f7fa;stroke-width:7.3px;stroke-linecap:round"/></g>
<circle class="ball ghost" cx="302.8" cy="371.4" r="8.2" fill="url(#sgglossyf5f6f9)" style="stroke:#3B424C;stroke-width:0.8px"/>
<g class="bond ghost"><line x1="246.8" y1="395.0" x2="225.8" y2="430.9" style="stroke:#3B424C;stroke-width:8.9px;stroke-linecap:round"/><line x1="246.8" y1="395.0" x2="236.3" y2="412.9" style="stroke:#c0c6cf;stroke-width:7.3px;stroke-linecap:round"/><line x1="236.3" y1="412.9" x2="225.8" y2="430.9" style="stroke:#c0c6cf;stroke-width:7.3px;stroke-linecap:round"/></g>
<g class="bond ghost"><line x1="225.8" y1="430.9" x2="238.6" y2="456.2" style="stroke:#3B424C;stroke-width:8.9px;stroke-linecap:round"/><line x1="225.8" y1="430.9" x2="232.2" y2="443.5" style="stroke:#c0c6cf;stroke-width:7.3px;stroke-linecap:round"/><line x1="232.2" y1="443.5" x2="238.6" y2="456.2" style="stroke:#f7f7fa;stroke-width:7.3px;stroke-linecap:round"/></g>
<circle class="ball ghost" cx="194.7" cy="230.0" r="8.2" fill="url(#sgglossyf5f6f9)" style="stroke:#3B424C;stroke-width:0.8px"/>
<circle class="ball ghost" cx="364.4" cy="311.2" r="8.2" fill="url(#sgglossyf5f6f9)" style="stroke:#3B424C;stroke-width:0.8px"/>
<circle class="ball ghost" cx="196.3" cy="429.6" r="8.2" fill="url(#sgglossyf5f6f9)" style="stroke:#3B424C;stroke-width:0.8px"/>
<circle class="ball ghost" cx="302.7" cy="421.2" r="8.2" fill="url(#sgglossyf5f6f9)" style="stroke:#3B424C;stroke-width:0.8px"/>
<circle class="ball ghost" cx="248.0" cy="257.7" r="12.0" fill="url(#sgglossyb5bcc6)" style="stroke:#3B424C;stroke-width:0.8px"/>
<circle class="ball ghost" cx="246.8" cy="395.0" r="12.0" fill="url(#sgglossyb5bcc6)" style="stroke:#3B424C;stroke-width:0.8px"/>
<circle class="ball ghost" cx="307.8" cy="291.5" r="12.0" fill="url(#sgglossyb5bcc6)" style="stroke:#3B424C;stroke-width:0.8px"/>
<circle class="ball ghost" cx="238.6" cy="456.2" r="8.2" fill="url(#sgglossyf5f6f9)" style="stroke:#3B424C;stroke-width:0.8px"/>
<g class="bond ghost"><line x1="215.5" y1="237.9" x2="194.7" y2="230.0" style="stroke:#3B424C;stroke-width:8.9px;stroke-linecap:round"/><line x1="215.5" y1="237.9" x2="205.1" y2="234.0" style="stroke:#c0c6cf;stroke-width:7.3px;stroke-linecap:round"/><line x1="205.1" y1="234.0" x2="194.7" y2="230.0" style="stroke:#f7f7fa;stroke-width:7.3px;stroke-linecap:round"/></g>
<g class="bond ghost"><line x1="341.8" y1="308.7" x2="364.4" y2="311.2" style="stroke:#3B424C;stroke-width:8.9px;stroke-linecap:round"/><line x1="341.8" y1="308.7" x2="353.1" y2="309.9" style="stroke:#c0c6cf;stroke-width:7.3px;stroke-linecap:round"/><line x1="353.1" y1="309.9" x2="364.4" y2="311.2" style="stroke:#f7f7fa;stroke-width:7.3px;stroke-linecap:round"/></g>
<g class="bond ghost"><line x1="248.0" y1="257.7" x2="215.5" y2="237.9" style="stroke:#3B424C;stroke-width:8.9px;stroke-linecap:round"/><line x1="248.0" y1="257.7" x2="231.7" y2="247.8" style="stroke:#c0c6cf;stroke-width:7.3px;stroke-linecap:round"/><line x1="231.7" y1="247.8" x2="215.5" y2="237.9" style="stroke:#c0c6cf;stroke-width:7.3px;stroke-linecap:round"/></g>
<g class="bond ghost"><line x1="277.0" y1="275.4" x2="248.0" y2="257.7" style="stroke:#3B424C;stroke-width:8.9px;stroke-linecap:round"/><line x1="277.0" y1="275.4" x2="262.5" y2="266.6" style="stroke:#c0c6cf;stroke-width:7.3px;stroke-linecap:round"/><line x1="262.5" y1="266.6" x2="248.0" y2="257.7" style="stroke:#c0c6cf;stroke-width:7.3px;stroke-linecap:round"/></g>
<g class="bond ghost"><line x1="307.8" y1="291.5" x2="341.8" y2="308.7" style="stroke:#3B424C;stroke-width:8.9px;stroke-linecap:round"/><line x1="307.8" y1="291.5" x2="324.8" y2="300.1" style="stroke:#c0c6cf;stroke-width:7.3px;stroke-linecap:round"/><line x1="324.8" y1="300.1" x2="341.8" y2="308.7" style="stroke:#c0c6cf;stroke-width:7.3px;stroke-linecap:round"/></g>
<g class="bond ghost"><line x1="307.8" y1="291.5" x2="277.0" y2="275.4" style="stroke:#3B424C;stroke-width:8.9px;stroke-linecap:round"/><line x1="307.8" y1="291.5" x2="292.4" y2="283.5" style="stroke:#c0c6cf;stroke-width:7.3px;stroke-linecap:round"/><line x1="292.4" y1="283.5" x2="277.0" y2="275.4" style="stroke:#c0c6cf;stroke-width:7.3px;stroke-linecap:round"/></g>
<circle class="ball" cx="317.4" cy="213.3" r="8.2" fill="url(#sgglossyf5f6f9)" style="stroke:#3B424C;stroke-width:0.8px"/>
<circle class="ball ghost" cx="215.5" cy="237.9" r="12.0" fill="url(#sgglossyb5bcc6)" style="stroke:#3B424C;stroke-width:0.8px"/>
<circle class="ball ghost" cx="341.8" cy="308.7" r="12.0" fill="url(#sgglossyb5bcc6)" style="stroke:#3B424C;stroke-width:0.8px"/>
<circle class="ball ghost" cx="277.0" cy="275.4" r="12.0" fill="url(#sgglossyb5bcc6)" style="stroke:#3B424C;stroke-width:0.8px"/>
<g class="bond ghost"><line x1="244.4" y1="390.4" x2="246.8" y2="395.0" style="stroke:#3B424C;stroke-width:8.9px;stroke-linecap:round"/><line x1="244.4" y1="390.4" x2="245.6" y2="392.7" style="stroke:#c0c6cf;stroke-width:7.3px;stroke-linecap:round"/><line x1="245.6" y1="392.7" x2="246.8" y2="395.0" style="stroke:#c0c6cf;stroke-width:7.3px;stroke-linecap:round"/></g>
<g class="bond ghost"><line x1="341.8" y1="308.7" x2="336.2" y2="337.1" style="stroke:#3B424C;stroke-width:8.9px;stroke-linecap:round"/><line x1="341.8" y1="308.7" x2="339.0" y2="322.9" style="stroke:#c0c6cf;stroke-width:7.3px;stroke-linecap:round"/><line x1="339.0" y1="322.9" x2="336.2" y2="337.1" style="stroke:#f7f7fa;stroke-width:7.3px;stroke-linecap:round"/></g>
<g class="bond ghost"><line x1="215.5" y1="237.9" x2="224.4" y2="212.2" style="stroke:#3B424C;stroke-width:8.9px;stroke-linecap:round"/><line x1="215.5" y1="237.9" x2="219.9" y2="225.0" style="stroke:#c0c6cf;stroke-width:7.3px;stroke-linecap:round"/><line x1="219.9" y1="225.0" x2="224.4" y2="212.2" style="stroke:#f7f7fa;stroke-width:7.3px;stroke-linecap:round"/></g>
<g class="bond ghost"><line x1="215.5" y1="237.9" x2="200.9" y2="256.1" style="stroke:#3B424C;stroke-width:8.9px;stroke-linecap:round"/><line x1="215.5" y1="237.9" x2="208.2" y2="247.0" style="stroke:#c0c6cf;stroke-width:7.3px;stroke-linecap:round"/><line x1="208.2" y1="247.0" x2="200.9" y2="256.1" style="stroke:#f7f7fa;stroke-width:7.3px;stroke-linecap:round"/></g>
<circle class="ball ghost" cx="336.2" cy="337.1" r="8.2" fill="url(#sgglossyf5f6f9)" style="stroke:#3B424C;stroke-width:0.8px"/>
<g class="bond ghost"><line x1="341.8" y1="308.7" x2="352.7" y2="292.4" style="stroke:#3B424C;stroke-width:8.9px;stroke-linecap:round"/><line x1="341.8" y1="308.7" x2="347.3" y2="300.5" style="stroke:#c0c6cf;stroke-width:7.3px;stroke-linecap:round"/><line x1="347.3" y1="300.5" x2="352.7" y2="292.4" style="stroke:#f7f7fa;stroke-width:7.3px;stroke-linecap:round"/></g>
<g class="bond"><line x1="327.6" y1="211.0" x2="317.4" y2="213.3" style="stroke:#3B424C;stroke-width:8.9px;stroke-linecap:round"/><line x1="327.6" y1="211.0" x2="322.5" y2="212.2" style="stroke:#c0c6cf;stroke-width:7.3px;stroke-linecap:round"/><line x1="322.5" y1="212.2" x2="317.4" y2="213.3" style="stroke:#f7f7fa;stroke-width:7.3px;stroke-linecap:round"/></g>
<circle class="ball ghost" cx="224.4" cy="212.2" r="8.2" fill="url(#sgglossyf5f6f9)" style="stroke:#3B424C;stroke-width:0.8px"/>
<circle class="ball ghost" cx="200.9" cy="256.1" r="8.2" fill="url(#sgglossyf5f6f9)" style="stroke:#3B424C;stroke-width:0.8px"/>
<circle class="ball ghost" cx="352.7" cy="292.4" r="8.2" fill="url(#sgglossyf5f6f9)" style="stroke:#3B424C;stroke-width:0.8px"/>
<circle class="ball ghost" cx="244.4" cy="390.4" r="12.0" fill="url(#sgglossyb5bcc6)" style="stroke:#3B424C;stroke-width:0.8px"/>
<g class="bond ghost"><line x1="277.0" y1="275.4" x2="269.7" y2="276.2" style="stroke:#3B424C;stroke-width:8.9px;stroke-linecap:round"/><line x1="277.0" y1="275.4" x2="273.4" y2="275.8" style="stroke:#c0c6cf;stroke-width:7.3px;stroke-linecap:round"/><line x1="273.4" y1="275.8" x2="269.7" y2="276.2" style="stroke:#e49c4d;stroke-width:7.3px;stroke-linecap:round"/></g>
<circle class="ball" cx="327.6" cy="211.0" r="12.0" fill="url(#sgglossyb5bcc6)" style="stroke:#3B424C;stroke-width:0.8px"/>
<g class="bond"><line x1="327.6" y1="211.0" x2="349.6" y2="189.4" style="stroke:#3B424C;stroke-width:8.9px;stroke-linecap:round"/><line x1="327.6" y1="211.0" x2="338.6" y2="200.2" style="stroke:#c0c6cf;stroke-width:7.3px;stroke-linecap:round"/><line x1="338.6" y1="200.2" x2="349.6" y2="189.4" style="stroke:#f7f7fa;stroke-width:7.3px;stroke-linecap:round"/></g>
<g class="bond ghost"><line x1="244.4" y1="390.4" x2="214.3" y2="389.4" style="stroke:#3B424C;stroke-width:8.9px;stroke-linecap:round"/><line x1="244.4" y1="390.4" x2="229.4" y2="389.9" style="stroke:#c0c6cf;stroke-width:7.3px;stroke-linecap:round"/><line x1="229.4" y1="389.9" x2="214.3" y2="389.4" style="stroke:#f7f7fa;stroke-width:7.3px;stroke-linecap:round"/></g>
<circle class="ball" cx="349.6" cy="189.4" r="8.2" fill="url(#sgglossyf5f6f9)" style="stroke:#3B424C;stroke-width:0.8px"/>
<g class="bond"><line x1="327.6" y1="211.0" x2="340.7" y2="238.0" style="stroke:#3B424C;stroke-width:8.9px;stroke-linecap:round"/><line x1="327.6" y1="211.0" x2="334.1" y2="224.5" style="stroke:#c0c6cf;stroke-width:7.3px;stroke-linecap:round"/><line x1="334.1" y1="224.5" x2="340.7" y2="238.0" style="stroke:#f7f7fa;stroke-width:7.3px;stroke-linecap:round"/></g>
<g class="bond ghost"><line x1="261.7" y1="355.6" x2="244.4" y2="390.4" style="stroke:#3B424C;stroke-width:8.9px;stroke-linecap:round"/><line x1="261.7" y1="355.6" x2="253.1" y2="373.0" style="stroke:#7b91d8;stroke-width:7.3px;stroke-linecap:round"/><line x1="253.1" y1="373.0" x2="244.4" y2="390.4" style="stroke:#c0c6cf;stroke-width:7.3px;stroke-linecap:round"/></g>
<circle class="ball ghost" cx="276.1" cy="444.1" r="8.2" fill="url(#sgglossyf5f6f9)" style="stroke:#3B424C;stroke-width:0.8px"/>
<circle class="ball ghost" cx="214.3" cy="389.4" r="8.2" fill="url(#sgglossyf5f6f9)" style="stroke:#3B424C;stroke-width:0.8px"/>
<circle class="ball" cx="340.7" cy="238.0" r="8.2" fill="url(#sgglossyf5f6f9)" style="stroke:#3B424C;stroke-width:0.8px"/>
<g class="bond ghost"><line x1="244.4" y1="390.4" x2="264.8" y2="420.6" style="stroke:#3B424C;stroke-width:8.9px;stroke-linecap:round"/><line x1="244.4" y1="390.4" x2="254.6" y2="405.5" style="stroke:#c0c6cf;stroke-width:7.3px;stroke-linecap:round"/><line x1="254.6" y1="405.5" x2="264.8" y2="420.6" style="stroke:#c0c6cf;stroke-width:7.3px;stroke-linecap:round"/></g>
<circle class="ball ghost" cx="261.7" cy="355.6" r="11.6" fill="url(#sgglossy647dd1)" style="stroke:#3B424C;stroke-width:0.8px"/>
<g class="bond ghost"><line x1="264.8" y1="420.6" x2="276.1" y2="444.1" style="stroke:#3B424C;stroke-width:8.9px;stroke-linecap:round"/><line x1="264.8" y1="420.6" x2="270.4" y2="432.3" style="stroke:#c0c6cf;stroke-width:7.3px;stroke-linecap:round"/><line x1="270.4" y1="432.3" x2="276.1" y2="444.1" style="stroke:#f7f7fa;stroke-width:7.3px;stroke-linecap:round"/></g>
<g class="bond"><line x1="296.4" y1="200.9" x2="327.6" y2="211.0" style="stroke:#3B424C;stroke-width:8.9px;stroke-linecap:round"/><line x1="296.4" y1="200.9" x2="312.0" y2="206.0" style="stroke:#b6bdc6;stroke-width:7.3px;stroke-linecap:round"/><line x1="312.0" y1="206.0" x2="327.6" y2="211.0" style="stroke:#c0c6cf;stroke-width:7.3px;stroke-linecap:round"/></g>
<circle class="ball ghost" cx="264.8" cy="420.6" r="12.0" fill="url(#sgglossyb5bcc6)" style="stroke:#3B424C;stroke-width:0.8px"/>
<g class="bond ghost"><line x1="289.2" y1="364.4" x2="261.7" y2="355.6" style="stroke:#3B424C;stroke-width:8.9px;stroke-linecap:round"/><line x1="289.2" y1="364.4" x2="275.5" y2="360.0" style="stroke:#b6bdc6;stroke-width:7.3px;stroke-linecap:round"/><line x1="275.5" y1="360.0" x2="261.7" y2="355.6" style="stroke:#7b91d8;stroke-width:7.3px;stroke-linecap:round"/></g>
<circle class="ball" cx="269.7" cy="276.2" r="14.6" fill="url(#sgglossyDF8A2E)" style="stroke:#3B424C;stroke-width:0.8px"/>
<circle class="ball" cx="296.4" cy="200.9" r="12.0" fill="url(#sgglossyA9B1BC)" style="stroke:#3B424C;stroke-width:0.8px"/>
<circle class="ball" cx="314.7" cy="143.6" r="8.2" fill="url(#sgglossyF3F5F8)" style="stroke:#3B424C;stroke-width:0.8px"/>
<g class="bond ghost"><line x1="264.8" y1="420.6" x2="295.8" y2="401.0" style="stroke:#3B424C;stroke-width:8.9px;stroke-linecap:round"/><line x1="264.8" y1="420.6" x2="280.3" y2="410.8" style="stroke:#c0c6cf;stroke-width:7.3px;stroke-linecap:round"/><line x1="280.3" y1="410.8" x2="295.8" y2="401.0" style="stroke:#d6655d;stroke-width:7.3px;stroke-linecap:round"/></g>
<circle class="ball ghost" cx="289.2" cy="364.4" r="12.0" fill="url(#sgglossyA9B1BC)" style="stroke:#3B424C;stroke-width:0.8px"/>
<g class="bond ghost"><line x1="264.8" y1="420.6" x2="247.3" y2="431.7" style="stroke:#3B424C;stroke-width:8.9px;stroke-linecap:round"/><line x1="264.8" y1="420.6" x2="256.1" y2="426.1" style="stroke:#c0c6cf;stroke-width:7.3px;stroke-linecap:round"/><line x1="256.1" y1="426.1" x2="247.3" y2="431.7" style="stroke:#f5f7f9;stroke-width:7.3px;stroke-linecap:round"/></g>
<g class="bond"><line x1="293.9" y1="163.4" x2="296.4" y2="200.9" style="stroke:#3B424C;stroke-width:8.9px;stroke-linecap:round"/><line x1="293.9" y1="163.4" x2="295.1" y2="182.2" style="stroke:#b6bdc6;stroke-width:7.3px;stroke-linecap:round"/><line x1="295.1" y1="182.2" x2="296.4" y2="200.9" style="stroke:#b6bdc6;stroke-width:7.3px;stroke-linecap:round"/></g>
<g class="bond"><line x1="293.9" y1="163.4" x2="314.7" y2="143.6" style="stroke:#3B424C;stroke-width:8.9px;stroke-linecap:round"/><line x1="293.9" y1="163.4" x2="304.3" y2="153.5" style="stroke:#b6bdc6;stroke-width:7.3px;stroke-linecap:round"/><line x1="304.3" y1="153.5" x2="314.7" y2="143.6" style="stroke:#f5f7f9;stroke-width:7.3px;stroke-linecap:round"/></g>
<g class="bond"><line x1="269.7" y1="276.2" x2="269.7" y2="226.9" style="stroke:#3B424C;stroke-width:8.9px;stroke-linecap:round"/><line x1="269.7" y1="276.2" x2="269.7" y2="251.6" style="stroke:#e49c4d;stroke-width:7.3px;stroke-linecap:round"/><line x1="269.7" y1="251.6" x2="269.7" y2="226.9" style="stroke:#b6bdc6;stroke-width:7.3px;stroke-linecap:round"/></g>
<g class="bond"><line x1="269.7" y1="226.9" x2="296.4" y2="200.9" style="stroke:#3B424C;stroke-width:8.9px;stroke-linecap:round"/><line x1="269.7" y1="226.9" x2="283.1" y2="213.9" style="stroke:#b6bdc6;stroke-width:7.3px;stroke-linecap:round"/><line x1="283.1" y1="213.9" x2="296.4" y2="200.9" style="stroke:#b6bdc6;stroke-width:7.3px;stroke-linecap:round"/></g>
<g class="bond ghost"><line x1="289.2" y1="364.4" x2="295.8" y2="401.0" style="stroke:#3B424C;stroke-width:8.9px;stroke-linecap:round"/><line x1="289.2" y1="364.4" x2="292.5" y2="382.7" style="stroke:#b6bdc6;stroke-width:7.3px;stroke-linecap:round"/><line x1="292.5" y1="382.7" x2="295.8" y2="401.0" style="stroke:#d6655d;stroke-width:7.3px;stroke-linecap:round"/></g>
<circle class="ball ghost" cx="295.8" cy="401.0" r="11.2" fill="url(#sgglossyCF4A40)" style="stroke:#3B424C;stroke-width:0.8px"/>
<circle class="ball" cx="293.9" cy="163.4" r="12.0" fill="url(#sgglossyA9B1BC)" style="stroke:#3B424C;stroke-width:0.8px"/>
<g class="bond ghost"><line x1="269.7" y1="276.2" x2="308.4" y2="298.6" style="stroke:#3B424C;stroke-width:8.9px;stroke-linecap:round"/><line x1="269.7" y1="276.2" x2="289.1" y2="287.4" style="stroke:#e49c4d;stroke-width:7.3px;stroke-linecap:round"/><line x1="289.1" y1="287.4" x2="308.4" y2="298.6" style="stroke:#b6bdc6;stroke-width:7.3px;stroke-linecap:round"/></g>
<circle class="ball" cx="269.7" cy="226.9" r="12.0" fill="url(#sgglossyA9B1BC)" style="stroke:#3B424C;stroke-width:0.8px"/>
<g class="bond ghost"><line x1="313.7" y1="338.0" x2="289.2" y2="364.4" style="stroke:#3B424C;stroke-width:8.9px;stroke-linecap:round"/><line x1="313.7" y1="338.0" x2="301.5" y2="351.2" style="stroke:#b6bdc6;stroke-width:7.3px;stroke-linecap:round"/><line x1="301.5" y1="351.2" x2="289.2" y2="364.4" style="stroke:#b6bdc6;stroke-width:7.3px;stroke-linecap:round"/></g>
<circle class="ball ghost" cx="247.3" cy="431.7" r="8.2" fill="url(#sgglossyF3F5F8)" style="stroke:#3B424C;stroke-width:0.8px"/>
<g class="bond"><line x1="265.9" y1="150.6" x2="293.9" y2="163.4" style="stroke:#3B424C;stroke-width:8.9px;stroke-linecap:round"/><line x1="265.9" y1="150.6" x2="279.9" y2="157.0" style="stroke:#b6bdc6;stroke-width:7.3px;stroke-linecap:round"/><line x1="279.9" y1="157.0" x2="293.9" y2="163.4" style="stroke:#b6bdc6;stroke-width:7.3px;stroke-linecap:round"/></g>
<circle class="ball ghost" cx="308.4" cy="298.6" r="12.0" fill="url(#sgglossyA9B1BC)" style="stroke:#3B424C;stroke-width:0.8px"/>
<g class="bond ghost"><line x1="308.4" y1="298.6" x2="313.7" y2="338.0" style="stroke:#3B424C;stroke-width:8.9px;stroke-linecap:round"/><line x1="308.4" y1="298.6" x2="311.1" y2="318.3" style="stroke:#b6bdc6;stroke-width:7.3px;stroke-linecap:round"/><line x1="311.1" y1="318.3" x2="313.7" y2="338.0" style="stroke:#b6bdc6;stroke-width:7.3px;stroke-linecap:round"/></g>
<circle class="ball ghost" cx="313.7" cy="338.0" r="12.0" fill="url(#sgglossyA9B1BC)" style="stroke:#3B424C;stroke-width:0.8px"/>
<g class="bond"><line x1="269.7" y1="226.9" x2="241.0" y2="214.6" style="stroke:#3B424C;stroke-width:8.9px;stroke-linecap:round"/><line x1="269.7" y1="226.9" x2="255.4" y2="220.8" style="stroke:#b6bdc6;stroke-width:7.3px;stroke-linecap:round"/><line x1="255.4" y1="220.8" x2="241.0" y2="214.6" style="stroke:#b6bdc6;stroke-width:7.3px;stroke-linecap:round"/></g>
<circle class="ball" cx="283.1" cy="92.6" r="8.2" fill="url(#sgglossyF3F5F8)" style="stroke:#3B424C;stroke-width:0.8px"/>
<circle class="ball" cx="193.3" cy="251.7" r="8.2" fill="url(#sgglossyF3F5F8)" style="stroke:#3B424C;stroke-width:0.8px"/>
<circle class="ball" cx="265.9" cy="150.6" r="12.0" fill="url(#sgglossyA9B1BC)" style="stroke:#3B424C;stroke-width:0.8px"/>
<g class="bond ghost"><line x1="308.4" y1="298.6" x2="331.3" y2="276.2" style="stroke:#3B424C;stroke-width:8.9px;stroke-linecap:round"/><line x1="308.4" y1="298.6" x2="319.9" y2="287.4" style="stroke:#b6bdc6;stroke-width:7.3px;stroke-linecap:round"/><line x1="319.9" y1="287.4" x2="331.3" y2="276.2" style="stroke:#b6bdc6;stroke-width:7.3px;stroke-linecap:round"/></g>
<g class="bond ghost"><line x1="342.3" y1="353.2" x2="313.7" y2="338.0" style="stroke:#3B424C;stroke-width:8.9px;stroke-linecap:round"/><line x1="342.3" y1="353.2" x2="328.0" y2="345.6" style="stroke:#b6bdc6;stroke-width:7.3px;stroke-linecap:round"/><line x1="328.0" y1="345.6" x2="313.7" y2="338.0" style="stroke:#b6bdc6;stroke-width:7.3px;stroke-linecap:round"/></g>
<circle class="ball" cx="241.0" cy="214.6" r="12.0" fill="url(#sgglossyA9B1BC)" style="stroke:#3B424C;stroke-width:0.8px"/>
<g class="bond"><line x1="264.0" y1="110.3" x2="283.1" y2="92.6" style="stroke:#3B424C;stroke-width:8.9px;stroke-linecap:round"/><line x1="264.0" y1="110.3" x2="273.5" y2="101.5" style="stroke:#b6bdc6;stroke-width:7.3px;stroke-linecap:round"/><line x1="273.5" y1="101.5" x2="283.1" y2="92.6" style="stroke:#f5f7f9;stroke-width:7.3px;stroke-linecap:round"/></g>
<g class="bond"><line x1="265.9" y1="150.6" x2="264.0" y2="110.3" style="stroke:#3B424C;stroke-width:8.9px;stroke-linecap:round"/><line x1="265.9" y1="150.6" x2="265.0" y2="130.5" style="stroke:#b6bdc6;stroke-width:7.3px;stroke-linecap:round"/><line x1="265.0" y1="130.5" x2="264.0" y2="110.3" style="stroke:#b6bdc6;stroke-width:7.3px;stroke-linecap:round"/></g>
<g class="bond"><line x1="239.9" y1="176.7" x2="265.9" y2="150.6" style="stroke:#3B424C;stroke-width:8.9px;stroke-linecap:round"/><line x1="239.9" y1="176.7" x2="252.9" y2="163.7" style="stroke:#b6bdc6;stroke-width:7.3px;stroke-linecap:round"/><line x1="252.9" y1="163.7" x2="265.9" y2="150.6" style="stroke:#b6bdc6;stroke-width:7.3px;stroke-linecap:round"/></g>
<g class="bond"><line x1="211.3" y1="239.9" x2="193.3" y2="251.7" style="stroke:#3B424C;stroke-width:8.9px;stroke-linecap:round"/><line x1="211.3" y1="239.9" x2="202.3" y2="245.8" style="stroke:#b6bdc6;stroke-width:7.3px;stroke-linecap:round"/><line x1="202.3" y1="245.8" x2="193.3" y2="251.7" style="stroke:#f5f7f9;stroke-width:7.3px;stroke-linecap:round"/></g>
<g class="bond"><line x1="241.0" y1="214.6" x2="239.9" y2="176.7" style="stroke:#3B424C;stroke-width:8.9px;stroke-linecap:round"/><line x1="241.0" y1="214.6" x2="240.5" y2="195.6" style="stroke:#b6bdc6;stroke-width:7.3px;stroke-linecap:round"/><line x1="240.5" y1="195.6" x2="239.9" y2="176.7" style="stroke:#b6bdc6;stroke-width:7.3px;stroke-linecap:round"/></g>
<circle class="ball" cx="235.4" cy="99.1" r="8.2" fill="url(#sgglossyF3F5F8)" style="stroke:#3B424C;stroke-width:0.8px"/>
<g class="bond"><line x1="264.0" y1="110.3" x2="235.4" y2="99.1" style="stroke:#3B424C;stroke-width:8.9px;stroke-linecap:round"/><line x1="264.0" y1="110.3" x2="249.7" y2="104.7" style="stroke:#b6bdc6;stroke-width:7.3px;stroke-linecap:round"/><line x1="249.7" y1="104.7" x2="235.4" y2="99.1" style="stroke:#f5f7f9;stroke-width:7.3px;stroke-linecap:round"/></g>
<g class="bond"><line x1="241.0" y1="214.6" x2="211.3" y2="239.9" style="stroke:#3B424C;stroke-width:8.9px;stroke-linecap:round"/><line x1="241.0" y1="214.6" x2="226.2" y2="227.2" style="stroke:#b6bdc6;stroke-width:7.3px;stroke-linecap:round"/><line x1="226.2" y1="227.2" x2="211.3" y2="239.9" style="stroke:#b6bdc6;stroke-width:7.3px;stroke-linecap:round"/></g>
<circle class="ball ghost" cx="331.3" cy="276.2" r="12.0" fill="url(#sgglossyA9B1BC)" style="stroke:#3B424C;stroke-width:0.8px"/>
<g class="bond ghost"><line x1="331.3" y1="276.2" x2="326.7" y2="245.9" style="stroke:#3B424C;stroke-width:8.9px;stroke-linecap:round"/><line x1="331.3" y1="276.2" x2="329.0" y2="261.1" style="stroke:#b6bdc6;stroke-width:7.3px;stroke-linecap:round"/><line x1="329.0" y1="261.1" x2="326.7" y2="245.9" style="stroke:#f5f7f9;stroke-width:7.3px;stroke-linecap:round"/></g>
<circle class="ball" cx="264.0" cy="110.3" r="12.0" fill="url(#sgglossyA9B1BC)" style="stroke:#3B424C;stroke-width:0.8px"/>
<circle class="ball ghost" cx="342.3" cy="353.2" r="12.0" fill="url(#sgglossyA9B1BC)" style="stroke:#3B424C;stroke-width:0.8px"/>
<circle class="ball ghost" cx="326.7" cy="245.9" r="8.2" fill="url(#sgglossyF3F5F8)" style="stroke:#3B424C;stroke-width:0.8px"/>
<g class="bond ghost"><line x1="342.3" y1="353.2" x2="345.7" y2="383.6" style="stroke:#3B424C;stroke-width:8.9px;stroke-linecap:round"/><line x1="342.3" y1="353.2" x2="344.0" y2="368.4" style="stroke:#b6bdc6;stroke-width:7.3px;stroke-linecap:round"/><line x1="344.0" y1="368.4" x2="345.7" y2="383.6" style="stroke:#f5f7f9;stroke-width:7.3px;stroke-linecap:round"/></g>
<circle class="ball ghost" cx="345.7" cy="383.6" r="8.2" fill="url(#sgglossyF3F5F8)" style="stroke:#3B424C;stroke-width:0.8px"/>
<circle class="ball" cx="239.9" cy="176.7" r="12.0" fill="url(#sgglossyA9B1BC)" style="stroke:#3B424C;stroke-width:0.8px"/>
<circle class="ball" cx="211.3" cy="239.9" r="12.0" fill="url(#sgglossyA9B1BC)" style="stroke:#3B424C;stroke-width:0.8px"/>
<g class="bond ghost"><line x1="331.3" y1="276.2" x2="359.8" y2="291.7" style="stroke:#3B424C;stroke-width:8.9px;stroke-linecap:round"/><line x1="331.3" y1="276.2" x2="345.6" y2="283.9" style="stroke:#b6bdc6;stroke-width:7.3px;stroke-linecap:round"/><line x1="345.6" y1="283.9" x2="359.8" y2="291.7" style="stroke:#b6bdc6;stroke-width:7.3px;stroke-linecap:round"/></g>
<g class="bond"><line x1="239.9" y1="176.7" x2="217.7" y2="167.4" style="stroke:#3B424C;stroke-width:8.9px;stroke-linecap:round"/><line x1="239.9" y1="176.7" x2="228.8" y2="172.1" style="stroke:#b6bdc6;stroke-width:7.3px;stroke-linecap:round"/><line x1="228.8" y1="172.1" x2="217.7" y2="167.4" style="stroke:#f5f7f9;stroke-width:7.3px;stroke-linecap:round"/></g>
<g class="bond ghost"><line x1="365.6" y1="330.2" x2="342.3" y2="353.2" style="stroke:#3B424C;stroke-width:8.9px;stroke-linecap:round"/><line x1="365.6" y1="330.2" x2="354.0" y2="341.7" style="stroke:#b6bdc6;stroke-width:7.3px;stroke-linecap:round"/><line x1="354.0" y1="341.7" x2="342.3" y2="353.2" style="stroke:#b6bdc6;stroke-width:7.3px;stroke-linecap:round"/></g>
<g class="bond"><line x1="211.3" y1="239.9" x2="223.1" y2="263.8" style="stroke:#3B424C;stroke-width:8.9px;stroke-linecap:round"/><line x1="211.3" y1="239.9" x2="217.2" y2="251.8" style="stroke:#b6bdc6;stroke-width:7.3px;stroke-linecap:round"/><line x1="217.2" y1="251.8" x2="223.1" y2="263.8" style="stroke:#f5f7f9;stroke-width:7.3px;stroke-linecap:round"/></g>
<g class="bond"><line x1="264.0" y1="110.3" x2="271.6" y2="107.3" style="stroke:#3B424C;stroke-width:8.9px;stroke-linecap:round"/><line x1="264.0" y1="110.3" x2="267.8" y2="108.8" style="stroke:#b6bdc6;stroke-width:7.3px;stroke-linecap:round"/><line x1="267.8" y1="108.8" x2="271.6" y2="107.3" style="stroke:#f5f7f9;stroke-width:7.3px;stroke-linecap:round"/></g>
<g class="bond"><line x1="211.3" y1="239.9" x2="192.8" y2="224.2" style="stroke:#3B424C;stroke-width:8.9px;stroke-linecap:round"/><line x1="211.3" y1="239.9" x2="202.1" y2="232.0" style="stroke:#b6bdc6;stroke-width:7.3px;stroke-linecap:round"/><line x1="202.1" y1="232.0" x2="192.8" y2="224.2" style="stroke:#f5f7f9;stroke-width:7.3px;stroke-linecap:round"/></g>
<circle class="ball" cx="217.7" cy="167.4" r="8.2" fill="url(#sgglossyF3F5F8)" style="stroke:#3B424C;stroke-width:0.8px"/>
<g class="bond ghost"><line x1="359.8" y1="291.7" x2="365.6" y2="330.2" style="stroke:#3B424C;stroke-width:8.9px;stroke-linecap:round"/><line x1="359.8" y1="291.7" x2="362.7" y2="310.9" style="stroke:#b6bdc6;stroke-width:7.3px;stroke-linecap:round"/><line x1="362.7" y1="310.9" x2="365.6" y2="330.2" style="stroke:#b6bdc6;stroke-width:7.3px;stroke-linecap:round"/></g>
<circle class="ball ghost" cx="359.8" cy="291.7" r="12.0" fill="url(#sgglossyA9B1BC)" style="stroke:#3B424C;stroke-width:0.8px"/>
<circle class="ball ghost" cx="365.6" cy="330.2" r="12.0" fill="url(#sgglossyA9B1BC)" style="stroke:#3B424C;stroke-width:0.8px"/>
<circle class="ball" cx="223.1" cy="263.8" r="8.2" fill="url(#sgglossyF3F5F8)" style="stroke:#3B424C;stroke-width:0.8px"/>
<circle class="ball" cx="192.8" cy="224.2" r="8.2" fill="url(#sgglossyF3F5F8)" style="stroke:#3B424C;stroke-width:0.8px"/>
<circle class="ball" cx="271.6" cy="107.3" r="8.2" fill="url(#sgglossyF3F5F8)" style="stroke:#3B424C;stroke-width:0.8px"/>
<g class="bond ghost"><line x1="359.8" y1="291.7" x2="377.3" y2="273.3" style="stroke:#3B424C;stroke-width:8.9px;stroke-linecap:round"/><line x1="359.8" y1="291.7" x2="368.6" y2="282.5" style="stroke:#b6bdc6;stroke-width:7.3px;stroke-linecap:round"/><line x1="368.6" y1="282.5" x2="377.3" y2="273.3" style="stroke:#f5f7f9;stroke-width:7.3px;stroke-linecap:round"/></g>
<g class="bond ghost"><line x1="365.6" y1="330.2" x2="387.8" y2="342.6" style="stroke:#3B424C;stroke-width:8.9px;stroke-linecap:round"/><line x1="365.6" y1="330.2" x2="376.7" y2="336.4" style="stroke:#b6bdc6;stroke-width:7.3px;stroke-linecap:round"/><line x1="376.7" y1="336.4" x2="387.8" y2="342.6" style="stroke:#f5f7f9;stroke-width:7.3px;stroke-linecap:round"/></g>
<circle class="ball ghost" cx="387.8" cy="342.6" r="8.2" fill="url(#sgglossyF3F5F8)" style="stroke:#3B424C;stroke-width:0.8px"/>
<circle class="ball ghost" cx="377.3" cy="273.3" r="8.2" fill="url(#sgglossyF3F5F8)" style="stroke:#3B424C;stroke-width:0.8px"/>
</g>
<circle class="sx-touch" cx="223.1" cy="263.8" r="11.2" stroke="#6C4AB6"/>
<circle class="sx-touch" cx="340.7" cy="238.0" r="11.2" stroke="#6C4AB6"/>
<circle class="sx-touch" cx="271.6" cy="107.3" r="11.2" stroke="#6C4AB6"/>
<line class="sx-axis behind" x1="269.7" y1="276.2" x2="269.7" y2="256.9" stroke="#1596A6"/><line class="sx-axis" x1="269.7" y1="256.9" x2="269.7" y2="237.7" stroke="#1596A6"/><line class="sx-axis behind" x1="269.7" y1="237.7" x2="269.7" y2="212.0" stroke="#1596A6"/><line class="sx-axis" x1="269.7" y1="212.0" x2="269.7" y2="160.6" stroke="#1596A6"/><line class="sx-axis behind" x1="269.7" y1="160.6" x2="269.7" y2="134.9" stroke="#1596A6"/><line class="sx-axis" x1="269.7" y1="134.9" x2="269.7" y2="115.6" stroke="#1596A6"/><line class="sx-axis behind" x1="269.7" y1="115.6" x2="269.7" y2="96.4" stroke="#1596A6"/><line class="sx-axis" x1="269.7" y1="96.4" x2="269.7" y2="70.7" stroke="#1596A6" marker-end="url(#mk1596A6)"/>
<path class="sx-wedge" d="M269.7,276.2 L226.3,246.5 L226.2,246.5 L226.2,246.4 L226.2,246.4 L226.1,246.4 L226.1,246.4 L226.1,246.4 L226.0,246.4 L226.0,246.4 L225.9,246.4 L225.9,246.3 L225.9,246.3 L225.8,246.3 L225.8,246.3 L225.8,246.3 L225.7,246.3 L225.7,246.3 L225.6,246.2 L225.6,246.2 L225.6,246.2 L225.5,246.2 L225.5,246.2 L225.5,246.2 L225.4,246.2 L225.4,246.1 L225.4,246.1 L225.3,246.1 L225.3,246.1 L225.2,246.1 L225.2,246.1 L225.2,246.1 L225.1,246.1 Z" fill="#3450A8"/>
<path class="sx-arc" d="M226.3,246.5 L226.2,246.5 L226.2,246.4 L226.2,246.4 L226.1,246.4 L226.1,246.4 L226.1,246.4 L226.0,246.4 L226.0,246.4 L225.9,246.4 L225.9,246.3 L225.9,246.3 L225.8,246.3 L225.8,246.3 L225.8,246.3 L225.7,246.3 L225.7,246.3 L225.6,246.2 L225.6,246.2 L225.6,246.2 L225.5,246.2 L225.5,246.2 L225.5,246.2 L225.4,246.2 L225.4,246.1 L225.4,246.1 L225.3,246.1 L225.3,246.1 L225.2,246.1 L225.2,246.1 L225.2,246.1 L225.1,246.1" stroke="#3450A8"/>
<line class="sx-shadow behind" x1="269.7" y1="276.2" x2="260.4" y2="269.8" stroke="#3450A8"/><line class="sx-shadow" x1="260.4" y1="269.8" x2="220.6" y2="242.6" stroke="#3450A8"/><line class="sx-shadow behind" x1="220.6" y1="242.6" x2="206.5" y2="233.0" stroke="#3450A8"/><line class="sx-shadow" x1="206.5" y1="233.0" x2="199.5" y2="228.2" stroke="#3450A8"/><line class="sx-shadow behind" x1="199.5" y1="228.2" x2="194.8" y2="225.0" stroke="#3450A8"/>
<line class="sx-perp behind" x1="194.8" y1="225.0" x2="192.8" y2="224.2" stroke="#3450A8"/>
<path class="sx-right" d="M200.1,228.6 L195.0,226.6 L189.7,223.0" stroke="#434C59"/>
<line class="sx-v dash behind" x1="269.7" y1="276.2" x2="260.1" y2="269.7" stroke="#C9352B"/><line class="sx-v dash" x1="260.1" y1="269.7" x2="221.7" y2="243.7" stroke="#C9352B"/><line class="sx-v dash behind" x1="221.7" y1="243.7" x2="204.9" y2="232.3" stroke="#C9352B"/><line class="sx-v dash" x1="204.9" y1="232.3" x2="197.7" y2="227.5" stroke="#C9352B"/><line class="sx-v dash behind" x1="197.7" y1="227.5" x2="192.8" y2="224.2" stroke="#C9352B" marker-end="url(#mkC9352B)"/>
<circle class="sx-ring" cx="192.8" cy="224.2" r="11.2" stroke="#C9352B"/>
<circle cx="269.7" cy="276.2" r="2.4" fill="#3450A8"/>
<line class="sx-b1" x1="269.7" y1="245.0" x2="300.5" y2="256.5" stroke="#6C4AB6" marker-end="url(#mk6C4AB6)"/>
<line class="sx-locline behind" x1="194.8" y1="225.0" x2="201.9" y2="223.4" stroke="#8A6A00"/><line class="sx-locline" x1="201.9" y1="223.4" x2="234.6" y2="215.9" stroke="#8A6A00"/><line class="sx-locline behind" x1="234.6" y1="215.9" x2="253.3" y2="211.6" stroke="#8A6A00"/><line class="sx-locline" x1="253.3" y1="211.6" x2="269.7" y2="207.9" stroke="#8A6A00"/>
<line class="sx-tickhalo" x1="277.2" y1="207.9" x2="262.2" y2="207.9" stroke="#FFFFFF"/>
<line class="sx-loctick" x1="277.2" y1="207.9" x2="262.2" y2="207.9" stroke="#C99A00"/>
<line class="sx-b5" x1="269.7" y1="207.9" x2="251.1" y2="211.8" stroke="#C9352B"/><line class="sx-b5 behind" x1="251.1" y1="211.8" x2="229.3" y2="216.5" stroke="#C9352B"/><line class="sx-b5" x1="229.3" y1="216.5" x2="198.2" y2="223.1" stroke="#C9352B"/><line class="sx-b5 behind" x1="198.2" y1="223.1" x2="185.7" y2="225.7" stroke="#C9352B"/><line class="sx-b5" x1="185.7" y1="225.7" x2="170.2" y2="229.0" stroke="#C9352B" marker-end="url(#mkC9352B)"/>
<line class="leader" x1="225.7" y1="281.3" x2="225.7" y2="246.3" stroke="#3450A8"/><text class="th" data-lab="th||1" x="225.7" y="294.3" text-anchor="middle" font-size="13.0" fill="#3450A8">&#952; 1.6&#176;</text>
<line class="leader" x1="345.7" y1="207.9" x2="269.7" y2="207.9" stroke="#8A6A00"/><text class="lab" data-lab="lab|locB5|1" x="349.7" y="211.9" text-anchor="start" font-size="12.0" fill="#8A6A00">loc B<tspan dy="2.6" font-size="0.75em">5</tspan><tspan dy="-2.6"> 2.55 &#8491;</tspan></text>
<text class="lab" data-lab="lab|B1|1" x="314.5" y="272.5" text-anchor="start" font-size="12.0" fill="#6C4AB6">B<tspan dy="2.6" font-size="0.75em">1</tspan><tspan dy="-2.6"> 1.78 &#8491;</tspan></text>
<text class="lab" data-lab="lab|B5|1" x="160.4" y="235.1" text-anchor="end" font-size="12.0" fill="#C9352B">B<tspan dy="2.6" font-size="0.75em">5</tspan><tspan dy="-2.6"> 4.39 &#8491;</tspan></text>
<text class="vl" data-lab="vl|v|1" x="210.6" y="264.9" text-anchor="middle" font-size="11.5" fill="#C9352B">v</text>
<text class="lab" data-lab="lab|L|1" x="269.7" y="58.7" text-anchor="middle" font-size="12.0" fill="#1F2937">L 7.66 &#8491;</text>
<text class="mark" data-lab="mark|B1plane|1" x="324.0" y="292.7" text-anchor="middle" font-size="9.0" fill="#6C4AB6">B<tspan dy="2.6" font-size="0.75em">1</tspan><tspan dy="-2.6"> plane</tspan></text>
<line class="leader" x1="254.3" y1="302.8" x2="232.3" y2="292.8" stroke="#3450A8"/><text class="mark" data-lab="mark|B1throughtheaxis|1" x="258.3" y="311.8" text-anchor="start" font-size="9.0" fill="#3450A8">&#8741; B<tspan dy="2.6" font-size="0.75em">1</tspan><tspan dy="-2.6">, through the axis</tspan></text>
<circle cx="626" cy="486.9" r="3.6" fill="#1596A6"/>
<text class="key" x="618" y="490.4" text-anchor="end" font-size="10.5" fill="#374151">10-11  B<tspan dy="2.6" font-size="0.75em">1</tspan><tspan dy="-2.6"> 1.78</tspan> · B<tspan dy="2.6" font-size="0.75em">5</tspan><tspan dy="-2.6"> 4.39</tspan> · L 7.66 · loc B<tspan dy="2.6" font-size="0.75em">5</tspan><tspan dy="-2.6"> 2.55</tspan> · &#952; 1.6&#176;</text>
<rect class="ins-box" x="498.0" y="34.0" width="132" height="132" rx="3"/>
<circle cx="564.0" cy="100.0" r="54.7" fill="none" stroke="#C9352B" stroke-width=".9" stroke-dasharray="3 4" opacity=".75"/>
<circle cx="564.0" cy="100.0" r="17.5" fill="#D9DFE8" fill-opacity=".35" stroke="#8F99A7" stroke-width="0.5"/>
<circle cx="564.0" cy="100.0" r="21.2" fill="#D9DFE8" fill-opacity=".35" stroke="#8F99A7" stroke-width="0.5"/>
<circle cx="548.5" cy="100.9" r="21.2" fill="#D9DFE8" fill-opacity=".35" stroke="#8F99A7" stroke-width="0.5"/>
<circle cx="532.0" cy="101.2" r="18.7" fill="#D9DFE8" fill-opacity=".35" stroke="#8F99A7" stroke-width="0.5"/>
<circle cx="548.5" cy="101.7" r="21.2" fill="#D9DFE8" fill-opacity=".35" stroke="#8F99A7" stroke-width="0.5"/>
<circle cx="563.1" cy="101.6" r="21.2" fill="#D9DFE8" fill-opacity=".35" stroke="#8F99A7" stroke-width="0.5"/>
<circle cx="578.2" cy="100.8" r="21.2" fill="#D9DFE8" fill-opacity=".35" stroke="#8F99A7" stroke-width="0.5"/>
<circle cx="579.0" cy="100.0" r="21.2" fill="#D9DFE8" fill-opacity=".35" stroke="#8F99A7" stroke-width="0.5"/>
<circle cx="596.1" cy="99.3" r="18.7" fill="#D9DFE8" fill-opacity=".35" stroke="#8F99A7" stroke-width="0.5"/>
<circle cx="562.6" cy="102.3" r="18.7" fill="#D9DFE8" fill-opacity=".35" stroke="#8F99A7" stroke-width="0.5"/>
<circle cx="530.6" cy="112.4" r="12.5" fill="#D9DFE8" fill-opacity=".35" stroke="#8F99A7" stroke-width="0.5"/>
<circle cx="521.8" cy="101.4" r="12.5" fill="#D9DFE8" fill-opacity=".5" stroke="#C9352B" stroke-width="1.2"/>
<circle cx="530.1" cy="90.3" r="12.5" fill="#D9DFE8" fill-opacity=".35" stroke="#8F99A7" stroke-width="0.5"/>
<circle cx="536.5" cy="102.4" r="12.5" fill="#D9DFE8" fill-opacity=".35" stroke="#8F99A7" stroke-width="0.5"/>
<circle cx="589.9" cy="100.7" r="12.5" fill="#D9DFE8" fill-opacity=".35" stroke="#8F99A7" stroke-width="0.5"/>
<circle cx="599.9" cy="111.6" r="12.5" fill="#D9DFE8" fill-opacity=".35" stroke="#8F99A7" stroke-width="0.5"/>
<circle cx="596.7" cy="90.6" r="12.5" fill="#D9DFE8" fill-opacity=".35" stroke="#8F99A7" stroke-width="0.5"/>
<circle cx="605.3" cy="95.2" r="12.5" fill="#D9DFE8" fill-opacity=".35" stroke="#8F99A7" stroke-width="0.5"/>
<circle cx="554.2" cy="112.3" r="12.5" fill="#D9DFE8" fill-opacity=".35" stroke="#8F99A7" stroke-width="0.5"/>
<circle cx="575.0" cy="104.4" r="12.5" fill="#D9DFE8" fill-opacity=".35" stroke="#8F99A7" stroke-width="0.5"/>
<circle cx="557.7" cy="90.5" r="12.5" fill="#D9DFE8" fill-opacity=".35" stroke="#8F99A7" stroke-width="0.5"/>
<line x1="618.7" y1="77.8" x2="509.3" y2="77.8" stroke="#6C4AB6" stroke-width="1.4" stroke-linecap="round"/>
<circle cx="564.0" cy="100.0" r="1.8" fill="#1F2937"/>
<line x1="564.0" y1="100.0" x2="564.0" y2="77.8" stroke="#6C4AB6" stroke-width="1.3" stroke-linecap="round" opacity=".85"/>
<line x1="564.0" y1="100.0" x2="509.3" y2="101.9" stroke="#C9352B" stroke-width="1.3" stroke-linecap="round" opacity=".85"/>
<line x1="509.1" y1="96.9" x2="509.5" y2="106.8" stroke="#C9352B" stroke-width="1.3" stroke-linecap="round"/>
<text class="mark" x="564.0" y="29.0" text-anchor="middle" font-size="9.0" fill="#1F2937">end-on, 10-11</text>
<text class="mark" x="504.0" y="150.0" font-size="9.0" fill="#6C4AB6">B<tspan dy="2.6" font-size="0.75em">1</tspan><tspan dy="-2.6"> 1.78</tspan></text>
<text class="mark" x="504.0" y="161.0" font-size="9.0" fill="#C9352B">B<tspan dy="2.6" font-size="0.75em">5</tspan><tspan dy="-2.6"> 4.39 &#8491;</tspan></text>
</svg>